<?xml version="1.0" encoding="UTF-8"?>
<svg id="Layer_2" data-name="Layer 2" xmlns="http://www.w3.org/2000/svg" viewBox="0 0 130.45 120.96">
  <defs>
    <style>
      .cls-1, .cls-2, .cls-3 {
        stroke-width: 0px;
      }

      .cls-2 {
        fill: #ff7c00;
      }

      .cls-3 {
        fill: #ffa800;
      }
    </style>
  </defs>
  <g id="Layer_1-2" data-name="Layer 1">
    <g>
      <path class="cls-2" d="m18.74,68.31c1.31,5.28.62,10.68-1.8,14.08-.82,2.46-1.65,4.26-1.91,4.82h2.8c5.08,0,6.11,1.06,10.1,6.05,2.09,2.09,3.1,6.42,4.02,11.05,0,4.11,1.01,7.76,1.83,7.9.38-.37,3.27-3.12,6.99-4.98q7.02-5.02,13.08-4.01h0c6.29,0,15.19,4.21,19.06,9.02,1.01.51,1.77,1.27,2.38,1.89.61.61,1.09,1.09,1.54,1.09.92,0,2.88-2.92,3.89-4.93,3.88-7.76,15.95-16.16,20.17-14.06.77.39,1.28.64,1.5.5.32-.19.32-1.26.32-3.39,0-6.23,4.24-12.17,10.09-14.12h.04c1.68,0,3.38-.73,3.83-.94-.23-.44-1.08-2.02-1.92-2.85-2.91-4.84-2.28-8.89,2-13.18,2-2,4.95-3.97,6.04-4.04l.8-.8c-.69-.23-1.62-1.33-2.76-2.67-.67-.79-1.37-1.61-2.07-2.32-2.9-4.82-3.14-8.73-1.04-16.11v-3.89l-5.91-1.97c-8.58-1.91-14.97-6.79-17.07-13.05-2.02-2.04-2.02-5.07-2.02-6.07,0-.59-.27-1.01-.79-1.23-.92-.38-2.63-.05-3.99,1.31-.98.98-3.96,2.03-7.07,2.04-3.04,1-5.06,0-9.08-2.01-2.64-.88-5.82-2.8-6.06-3.98-.42.04-1.96.29-2.78,1.92l-.03.04c-4.87,3.9-7.93,6.05-14.1,5.03h0c-3.61,0-6.82-1.41-8.03-2.01l-2.91-.97-4.95,4.95c-2.96,2.96-7.02,7.02-10.05,8.03-3.89,1.95-3.91,2.92-3.91,4.84,2.02,3.12-.04,13.14-3.02,18.1-.87,1.74-2.91,4.97-5.04,6.04l-2.84,1.89,2.84,1.9c3.63,1.81,6.57,5.96,7.84,11.08Zm8.97-22.02c3.1-9.29,6.37-12.29,19.05-21.06,10.89-7.92,20.8-9.16,32.12-4.01,2.8,1.86,4.74,2.87,4.98,2.99.67.03,1.99,1.12,3.96,2.76,1.2,1,2.56,2.12,4.09,3.27,9.35,9.35,12.05,15.42,12.05,27.1.98,11.77-.79,17.85-7.04,24.09-6.37,6.37-11.54,9.09-19.07,10.04-1.9,0-3.8.4-5.19.69-.77.16-1.39.29-1.78.31-.91.86-3.19,1.17-5.86,1.17-3.88,0-8.59-.64-11.22-1.17h-.02c-11.21-4.08-14.18-7.22-23.06-20.05-6.2-9.31-6.91-15.41-3.02-26.11Z"/>
      <path class="cls-3" d="m46.86,81.21c2.09.02,6.13,2.09,9.02,4.01,2.3.58,4.27,1.48,5.72,2.15,1.03.47,1.83.84,2.23.84h3.04l.03.02c3.05,2.03,14.01.93,19.88-2.01,5.91-2.96,12.93-10.86,13.93-17.91,3.86-13.5.41-25.56-9.96-34.89-7.19-7.19-11.29-9.05-19.94-10.97-7.89-1.97-11.79-1.09-21.91,4.99-10.7,6.42-17.08,13.46-18.94,20.92-1.66,5.8-2,11.84-.77,13.47.19.25.4.37.64.37.05,0,1.12.02,1.12,2.12,0,1.86,11.79,14.79,15.9,16.88Z"/>
      <path class="cls-1" d="m53.79,92.45h.02c2.62.53,7.34,1.17,11.22,1.17,2.67,0,4.95-.31,5.86-1.17.38-.01,1-.14,1.78-.31,1.38-.29,3.28-.69,5.19-.69,7.53-.94,12.7-3.66,19.07-10.04,6.24-6.24,8.02-12.32,7.04-24.09,0-11.68-2.7-17.75-12.05-27.1-1.53-1.14-2.89-2.27-4.09-3.27-1.97-1.64-3.29-2.72-3.96-2.76-.24-.12-2.18-1.13-4.98-2.99-11.32-5.15-21.23-3.91-32.12,4.01-12.67,8.77-15.95,11.77-19.05,21.06-3.89,10.71-3.19,16.81,3.02,26.11,8.88,12.83,11.85,15.97,23.06,20.05Zm-23.96-30.24c-.25,0-.46-.12-.64-.37-1.23-1.64-.89-7.68.77-13.47,1.87-7.46,8.24-14.5,18.94-20.92,10.12-6.07,14.01-6.96,21.91-4.99,8.66,1.92,12.75,3.78,19.94,10.97,10.37,9.33,13.81,21.39,9.96,34.89-1.01,7.05-8.02,14.95-13.93,17.91-5.87,2.93-16.83,4.04-19.88,2.01l-.03-.02h-3.04c-.4,0-1.21-.37-2.23-.84-1.44-.66-3.42-1.57-5.72-2.15-2.89-1.92-6.93-3.99-9.02-4.01-4.12-2.09-15.9-15.01-15.9-16.88,0-2.1-1.08-2.12-1.12-2.12Z"/>
      <path class="cls-1" d="m4.83,59.96c3.6,0,6.95,2.26,8.97,6.04,2.52,4.7,2.39,10.37-.33,14.44l-.1.17c-1,1.99-2.9,4.78-3.7,5.58-1.48,1.48-1.48,3.96-1.48,5.15s.77,2.38,2.5,2.38c.81,0,1.86-.24,3.64-.83l.2-.07.15-.09c1.31-.82,2.58-1.23,3.78-1.23,5.12,0,9.03,7.62,9.74,18.96v.2s.08.22.08.22c.37,1.11.6,2.43.8,3.61.42,2.42.78,4.5,2.74,4.5h.67l.48-.48s1.84-1.83,3.58-2.7l.19-.1.14-.12c6.18-5.3,9.56-7.8,13.74-7.8.62,0,1.26.05,1.93.17l.14.02h.12c6.35,0,14.8,3.59,19.68,8.35.97,1.8,3.27,4.65,5.32,4.65s3.3-2.4,4.5-5.99c2.68-5.32,6.28-9.21,11.34-12.24,2.33-1.4,3.59-2.02,4.91-2.02,1.41,0,3.25.68,6.56,2.1,3.81,1.9,5.09,2.55,6.14,2.55.98,0,1.77-.59,2.04-1.53.13-.46.13-.93.13-1.48,0-1.41-1.22-2.9-3.48-5.15l-.17-.15c-2.93-2.2-3.43-5.11-1.55-8.91,2.11-3.49,5.34-5.41,9.09-5.41.7,0,1.42.07,2.13.21,1.85.46,2.79.7,3.48.7,1.06,0,1.57-.57,1.78-.91.61-.99.14-1.92-.45-3.1-1.24-2.47-2.8-2.85-4.03-2.9-.59-.7-1.98-3.31-2.84-6.77l-.03-.12c-.09-.25,0-.88.54-1.8,1.41-2.43,5.05-5.45,8.23-6.09l.2-.05c3.26-1.09,4.11-1.5,4.11-4.54v-.67l-.48-.48c-.25-.25-.41-.51-.59-.8-.39-.63-1.04-1.68-2.55-1.68h0c-1.11-.11-5.39-4.1-5.39-7.38v-.17s-.03-.15-.03-.15c-.94-4.68.07-10.04,1.56-11.53,1.4-1.4,1.88-3.31,1.24-4.87-.7-1.68-2.51-2.48-4.58-1.91-1.19-.13-5.35-1.17-8.41-1.94-8.36-1.86-12.86-6.31-13.78-13.62l-.03-.25-.13-.27c-.36-.72-.75-1.81-1.12-2.86-.74-2.08-1.28-3.51-1.97-4.32-.28-.54-.92-1.8-2.29-1.8-.85,0-1.44.46-2.26,1.11-.43.34-.98.77-1.71,1.25l-.14.1-.1.1c-2.56,2.56-5.52,3.91-8.56,3.91-3.43,0-6.93-1.7-10.14-4.91l-.09-.09-5.46-4.1-2.95,4.43-.1.17c-1.72,3.44-7.08,6.1-10.55,6.1h-4c-.84,0-1.99-.76-3.11-1.51-.58-.39-1.19-.79-1.81-1.13-2.33-3.05-3.45-3.67-4.49-3.67h0c-.86,0-1.59.5-1.94,1.34-.18.43-.27.94-.27,1.6,0,3.84-11.96,14.33-17.5,15.37-.49,0-.9-.04-1.22-.07-.3-.03-.52-.04-.69-.04-.98,0-1.48.48-1.72.88-.58.95-.15,1.77.56,3.14l.02.03c.2.38.44.84.72,1.41,1.94,3.89,1.59,10.11-.89,15.49-1.8,3.91-4.37,6.54-7.05,7.21l-.12.04c-4.2,1.4-6.66,3.86-6.27,6.27.11.68.78,2.9,4.79,2.9Zm6.06-6.52c2.13-1.07,4.18-4.31,5.04-6.04,2.98-4.96,5.04-14.98,3.02-18.1,0-1.92.02-2.9,3.91-4.84,3.03-1.01,7.09-5.07,10.05-8.03l4.95-4.95,2.91.97c1.21.61,4.41,2.01,8.03,2.01h0c6.17,1.03,9.23-1.13,14.1-5.03l.03-.04c.82-1.64,2.35-1.89,2.78-1.92.23,1.18,3.42,3.1,6.06,3.98,4.02,2.01,6.04,3.02,9.08,2.01,3.11,0,6.09-1.06,7.07-2.04,1.36-1.36,3.07-1.7,3.99-1.31.52.22.79.64.79,1.23,0,1,0,4.03,2.02,6.07,2.1,6.27,8.49,11.14,17.07,13.05l5.91,1.97v3.89c-2.11,7.38-1.86,11.29,1.04,16.11.71.71,1.4,1.52,2.07,2.32,1.14,1.34,2.07,2.44,2.76,2.67l-.8.8c-1.08.06-4.03,2.03-6.04,4.04-4.28,4.28-4.91,8.34-2,13.18.84.84,1.69,2.42,1.92,2.85-.45.21-2.15.93-3.83.93h-.04c-5.84,1.95-10.09,7.89-10.09,14.12,0,2.13,0,3.2-.32,3.39-.22.14-.73-.12-1.5-.5-4.22-2.11-16.29,6.3-20.17,14.06-1.01,2.02-2.97,4.93-3.89,4.93-.45,0-.93-.48-1.54-1.09-.61-.61-1.38-1.38-2.38-1.89-3.86-4.81-12.77-9.02-19.06-9.02h0q-6.05-1.01-13.08,4.01c-3.72,1.86-6.61,4.62-6.99,4.98-.82-.14-1.83-3.78-1.83-7.9-.93-4.63-1.93-8.96-4.02-11.05-3.99-4.99-5.01-6.05-10.1-6.05h-2.8c.27-.56,1.09-2.36,1.91-4.82,2.42-3.4,3.11-8.79,1.8-14.08-1.27-5.12-4.21-9.27-7.84-11.08l-2.84-1.9,2.84-1.89Z"/>
    </g>
  </g>
</svg>