<?xml version="1.0" encoding="UTF-8"?>
<svg id="Layer_2" data-name="Layer 2" xmlns="http://www.w3.org/2000/svg" viewBox="0 0 167.79 107.85">
  <defs>
    <style>
      .cls-1, .cls-2, .cls-3 {
        stroke-width: 0px;
      }

      .cls-2 {
        fill: #78a9d5;
      }

      .cls-3 {
        fill: #d5d6ff;
      }
    </style>
  </defs>
  <g id="Layer_1-2" data-name="Layer 1">
    <g>
      <path class="cls-3" d="m160.25,82.71s-1.05,1.04-2.09,1.04c-.79,0-1.3.16-1.37.44-.06.25.28.75,1.42,1.33,1.25.62,2.45.57,3.46-.16,2.03-1.46,2.98-5.37,2.36-9.71-.64-2.54-2.6-4.88-4.57-5.42-.89-.25-1.66-.08-2.22.49-1.04,1.03-1.13,1.05-2.14.04-1.14,0-1.82.07-1.82.88v.05c-.94,2.33-2.8,3.93-5.1,4.4-2.47.51-5.12-.38-7.11-2.36-1.79-1.79-2.6-3.3-2.4-4.48.12-.72.59-1.29,1.42-1.71,1.07-1.06,2.77-1.37,4.23-.76,1.23.51,1.97,1.58,1.97,2.86,0,.85-.36,1.45-.97,1.59-.78.18-1.71-.44-2.26-1.52-.48-.46-1.14-.41-1.55-.11-.43.31-.72,1-.23,1.98.95,1.89,4.87,1.93,6.83.94h.03c1.24-.26,2.17-1.18,2.7-2.67,1.43-4.04-.3-10.98-3.77-15.14-1.97-2.96-2.92-2.96-6.9-2.96-5.2,0-13.91,3.1-14.88,5.9v5.98c0,2.77-.89,5.98-2.05,6.12-.5.93-1.67,1.5-3.08,1.5s-2.63-.6-3.11-1.57c-.67-1.34-.5-3.6.39-5.03.47-.76,1.06-1.15,1.73-1.15,1.12,0,1.12.12,1.12,2.12v.06c-.84,1.66-.82,2.33-.66,2.59.09.15.27.23.53.23.76,0,1.46-.66,1.96-1.87,1.18-2.84.97-7.9-1.05-9.92-2.9-2.9-9.8-3.01-12.84-.98h-.03c-2.91.99-2.91,1.91-2.91,7.9,0,8.03-2.05,12.11-6.1,12.12-1.4.46-2.95.09-4.35-1.03-1.23-.98-2.27-2.5-2.79-4.06v-.04c0-2.04,2.04-5.12,5.12-5.12h2.53l-2.47,1.24c-2.17,1.08-2.67,2.62-2.42,3.69.3,1.26,1.62,2.07,3.36,2.07h.06c.85.44,1.55.51,2.03.21.51-.32.79-1.04.79-2.08v-.04l.02-.03c2.01-3.02,1.93-7.81,1.05-8.81-1.07-.07-1.07-2.05-1.07-3.12,0-2.78-5.54-4.88-12.88-4.88-10.08,1.01-15.91,4.99-18.88,12.92-1.24,3.73-1.71,5.52-1.16,6.27.28.4.88.56,2.04.56,3.6,0,5.86,3.24,6.78,6.28,1.11,3.67.74,8.66-2.71,10.95l-.03.02h-.04c-1,0-2.03,0-4.06-1.01l-.03-.02c-1.48-1.48-1.88-4.58-1.23-6.16.29-.69.74-1.06,1.32-1.06,1.07,0,1.12.05,1.12,1.12,0,.96,0,2.95.96,3.91l.04.04v.05c0,.29.09.49.25.52.23.05.83-.21,1.51-1.58,2.12-3.19,1.8-6.08-.98-8.86-1.89-1.89-2.84-1.96-3.8-1.96-.15,1-2.08,1-4.12,1h-.06c-.76-.39-1.27-.5-1.54-.34-.28.18-.28.71-.28,1.22,0,1.07-2.03,2.12-4.1,2.12-3.1,1.05-5.85,5.1-4.9,9.85,0,3.04,2.04,9.98,4.95,11.92.99.99,10.03,1.98,17.93,1.98.26,0,1.09-.07,2.25-.17,3.44-.29,9.83-.83,15.75-.83,10.61,0,20.02-.67,27.98-2,.28,0,.97-.07,1.93-.17,2.86-.29,8.17-.83,14.09-.83s11.75-.54,14.9-.83c1.11-.1,1.84-.17,2.1-.17,4.12-.59,6.22-3.19,6.41-5.35.18-1.98-1.11-3.63-3.45-4.41-2.96-.59-4.54-2.89-4.36-4.77.15-1.55,1.42-2.48,3.4-2.48,1,0,2.12,0,2.12,1.12v.05l-.04.04Z"/>
      <path class="cls-2" d="m66.04,68.62c.96-5.78,5.74-13,12.09-15.12,4-2,6.02-3.01,13.06-2h.01c4.03,0,7.32.66,10.03,2.01l.04.02.02.04c.91,1.83,1.69,2.01,5.83-.06,5.03-3.02,11.11-3.01,14.14.02l1.91,1.91,2.91-2.91c1.03-1.03,3.05-2.04,4.09-2.04,2.03,0,3.97-1.02,4.91-1.96l.03-.03h.04c5.05-1.02,12.09-.01,14.13,3.05.26.26.53.36.79.3.64-.15,1.31-1.25,1.98-3.27.97-1.94.05-2.85-2.97-5.87-3.18-3.18-5.23-3.39-6.17-3.24-.72.12-1.28.53-1.62,1.18-.02,1.06-1.06,2.09-2.12,2.09-1,0-1.95,0-2.91.96-.62.93-3.29,4.04-11.09,4.04h-.06c-2.02-1.02-3.05-2.05-4.06-4.07-.54-2.17-.51-3.47.09-4.24.51-.65,1.44-.94,3.02-.94,2.02,0,3.12,0,3.12,2.12,0,.85-.36,1.45-.97,1.59-.69.16-1.48-.29-2.03-1.13v.53c-.39,1.58-.19,2.73.59,3.36,1.03.83,2.98.65,5.23-.47,6.43-3.21,8.93-6.27,8.93-10.89,0-2.95-1-3.95-3.96-6.91-3.87-3.87-9.73-4.98-20.9-3.96-6.73,0-8.85,1.7-9.89,7.9,0,2.02-1.01,5.04-2.04,6.07-2.86,2.86-8.93,6.04-13.09,6.04s-8.12-4.02-8.12-8.12c0-5.09,1.03-6.12,6.12-6.12h4.12v2.07c.33.33.43.56.35.76-.17.42-1.14.42-3.48.42h-4.88v2.88c-.33,1.32.47,2.21,1.2,2.72,2.61,1.84,8.43,1.96,12.6-.83,4.11-2.06,5.91-7.11,4.95-13.88-.96-5.78-1.91-8.87-4.96-11.93-5.06-5.06-9.09-5.96-17.91-5.96-11.37,0-17.04,2.15-20.9,7.94l-2.94,4.89,2.93,1.96c4.08,5.11,6.03,9.26,6.03,19.08,1.01,8.05,1.02,9.04-2.04,12.09-3.09,5.16-12.25,10.04-17.09,10.04-2.55,0-4.95-1.64-6.42-4.38-1.87-3.49-1.74-7.73.31-10.82,2.4-2.41,5.27-3.51,7.49-2.89,1.38.38,2.35,1.42,2.73,2.93v4.11s-.07.03-.07.03c-1.07.54-2.15.52-2.81-.06-.7-.61-.83-1.71-.36-3.1.49-.98.38-1.22.31-1.28-.13-.11-.68-.2-3.12,1.43-1.22.81-2.05,2.6-2.28,4.89-.24,2.46.28,4.89,1.28,5.9,3.9,1.92,13.75-1.86,17.82-7.97,2.98-2.99,2.97-3.98,1.98-10.91,0-9.86-2.84-15.86-8.93-18.91-5.96-2.98-7.96-3.98-13.92-2.99-14.28,3.06-27.84,18.16-25.9,28.85,0,2.05,1.02,3.99,1.97,4.93,1.8,1.8,3.17,3.92,1.02,7.16-1.05,2.11-2.51,3.29-3.71,3.02-.97-.23-1.52-1.35-1.52-3.09,0-.94.22-1.52.63-1.61.46-.12,1.06.46,1.61,1.56v.06c.01.16.04.23.06.26.02.03.03.03.04.03.19,0,.67-.61.67-1.29v-.05c.76-1.88.42-3.46-.92-4.34-.59-.39-1.37-.61-2.24-.61-1.45,0-3.16.61-4.63,2.08-.12.19-.26.39-.39.58-1.72,2.55-2.5,3.71-1.58,8.31,0,6.07,1.01,7.99,4.98,12.95l.03.03v.04c0,.88,1.94.88,2.88.88,1.01,0,2.29.26,3.52.5,1.22.24,2.49.5,3.48.5h.06c1.97,1,6.01,1,9.92,1,3.02-1,7.07-1,9.02-1s6.99,0,11.98-1h.02c6.25,0,13.01-2.08,14.9-3.95.1-.2.98-2.08.98-3.93Z"/>
      <path class="cls-1" d="m165.21,68.37l-.14-.1c-2.28-1.52-2.28-1.8-2.28-6.44,1.02-4.24-.05-5.82-1.81-8.43-.15-.21-.3-.44-.46-.68l-.1-.14-.1-.1c-.85-.85-2.25-1.7-3.52-2.15v-2.7c0-4.39-1.98-6.4-3.65-7.33-3.97-3.88-7.6-4.3-8.97-4.3-.13,0-.22,0-.29-.01-.09-.45-.09-1.46-.09-2.36,0-4.7-2.5-15.62-25.62-15.62-4.39,0-7.68.51-9.66.82-.53.08-1.18.18-1.34.18h-.67l-.44.44c-.09-.35-.19-.74-.29-1.13-1.09-7.47-5.34-10.81-11.7-15.04l-.17-.11-.22-.08c-.92-.31-1.75-.59-2.51-.85-4.19-1.44-6.5-2.23-11-2.23-6.81,0-8.89.74-12.67,2.09l-.04.02c-.8.28-1.7.61-2.73.95-4.34,1.09-5.63,2.3-8.86,6.6-1.84,2.3-2.86,3.57-3.48,4.09-.26.22-.29.24-.95.25-2.26-.71-5.04-1.09-8.05-1.09h0c-4.49,0-9.4.85-12.8,2.21l-.12.05-.1.06c-12.83,7.49-21.78,20.17-20.81,29.48,0,1.14,0,2.84-.19,3.18-.08.03-.38.12-1.18.12-2.64,0-4.91,1.52-6.38,4.27-2.65,4.95-2.62,14.24,2,21.2,4.69,8.17,12.13,9.77,23.38,9.77,8.32,0,12.65-.56,18.14-1.27,1.86-.24,3.78-.49,6.04-.74l.17-.03c-2.02,3.65-1.97,10.74.14,16.02l.06.12c1.02,2.04,3.12,5.23,5.3,7.42,2.13,2.13,3.22,3.07,6.8,3.07,1.84,0,4.32-.23,8.41-.6,10.49,0,35.71-.97,44.03-2,.73,0,2.04-.11,3.89-.25,3.97-.3,9.97-.75,16.02-.75l1.58-.07c20.12-.96,22.22-1.06,26.57-5.4,2.28-2.28,3.48-3.68,3.48-8.15v-11c0-7.18,0-8.67-2.48-11.15l-.11-.1Zm-11.71-14.51c.59,0,1.43.28,2.6.87,3.13,2.09,3.85,6.12,2.95,8.84-.97,1.94-1.94,2.93-2.89,2.93h-.06c-.66.34-1.03.42-1.3.29-.55-.27-.8-1.53-1.29-4.04-.07-.36-.15-.74-.23-1.16-1.15-4.62-1.3-6.86-.48-7.52.18-.14.41-.21.7-.21Zm-103.34,22.64h-.02c-4.99,1-10.06,1-11.98,1s-6,0-9.02,1c-3.91,0-7.95,0-9.92-.99h-.06c-.99-.01-2.25-.27-3.48-.51-1.23-.25-2.51-.5-3.52-.5-.93,0-2.88,0-2.88-.88v-.04l-.03-.03c-3.97-4.96-4.97-6.87-4.98-12.95-.92-4.6-.14-5.76,1.58-8.31.13-.19.26-.39.39-.58,1.47-1.47,3.17-2.08,4.63-2.08.87,0,1.65.22,2.24.61,1.34.88,1.68,2.46.93,4.34v.05c0,.68-.49,1.29-.68,1.29,0,0-.02,0-.04-.03-.02-.03-.04-.1-.04-.26v-.06c-.56-1.1-1.16-1.67-1.62-1.56-.41.1-.63.67-.63,1.61,0,1.73.56,2.86,1.52,3.09,1.19.28,2.65-.91,3.71-3.02,2.16-3.24.79-5.35-1.02-7.16-.95-.95-1.96-2.89-1.97-4.93-1.94-10.69,11.61-25.79,25.9-28.85,5.96-.99,7.97,0,13.92,2.99,6.09,3.05,8.93,9.05,8.93,18.91.99,6.93,1,7.93-1.98,10.91-4.07,6.1-13.92,9.89-17.82,7.97-1-1.02-1.53-3.44-1.28-5.9.23-2.29,1.06-4.07,2.28-4.89,2.44-1.62,2.99-1.54,3.12-1.43.07.06.18.31-.31,1.28-.46,1.39-.33,2.49.36,3.1.66.57,1.74.59,2.81.06l.07-.03v-4.11c-.38-1.51-1.35-2.55-2.73-2.93-2.23-.62-5.09.48-7.49,2.89-2.06,3.08-2.18,7.33-.31,10.82,1.47,2.74,3.86,4.38,6.42,4.38,4.83,0,14-4.88,17.09-10.04,3.05-3.05,3.04-4.04,2.04-12.09,0-9.82-1.94-13.97-6.03-19.08l-2.93-1.96,2.94-4.89c3.86-5.79,9.52-7.94,20.9-7.94,8.82,0,12.85.9,17.91,5.96,3.06,3.06,4,6.15,4.96,11.93.97,6.76-.83,11.82-4.95,13.88-4.17,2.78-9.99,2.67-12.6.83-.73-.51-1.53-1.4-1.2-2.72v-2.88h4.88c2.33,0,3.3,0,3.48-.42.08-.19-.02-.42-.35-.76v-2.07h-4.12c-5.09,0-6.12,1.03-6.12,6.12,0,4.1,4.02,8.12,8.12,8.12s10.23-3.18,13.09-6.04c1.03-1.03,2.04-4.04,2.04-6.07,1.03-6.2,3.16-7.9,9.89-7.9,11.17-1.02,17.03.1,20.9,3.96,2.96,2.96,3.96,3.96,3.96,6.91,0,4.62-2.5,7.67-8.93,10.89-2.24,1.12-4.2,1.3-5.23.47-.78-.62-.99-1.78-.59-3.36v-.53c.55.83,1.34,1.29,2.03,1.13.61-.14.97-.74.97-1.59,0-2.12-1.11-2.12-3.12-2.12-1.58,0-2.51.29-3.02.94-.6.77-.63,2.07-.09,4.24,1.01,2.02,2.03,3.04,4.06,4.06h.06c7.79.01,10.47-3.09,11.09-4.02.96-.96,1.91-.96,2.91-.96,1.06,0,2.11-1.03,2.12-2.09.34-.66.9-1.07,1.62-1.18.94-.15,2.99.07,6.17,3.24s3.94,3.94,2.97,5.87c-.67,2.02-1.34,3.12-1.98,3.27-.27.06-.53-.04-.79-.3-2.04-3.06-9.08-4.06-14.13-3.05h-.04s-.03.03-.03.03c-.95.95-2.89,1.96-4.91,1.96-1.04,0-3.06,1.01-4.09,2.04l-2.91,2.91-1.91-1.91c-3.03-3.03-9.12-3.04-14.14-.02-4.14,2.07-4.92,1.88-5.83.06l-.02-.04-.04-.02c-2.71-1.35-5.99-2.01-10.03-2.01h-.01c-7.04-1.01-9.06,0-13.06,2-6.34,2.11-11.12,9.34-12.09,15.12,0,1.85-.88,3.72-.98,3.93-1.89,1.87-8.65,3.95-14.9,3.95Zm108,5c-1.97,0-3.24.93-3.4,2.48-.19,1.88,1.4,4.17,4.36,4.77,2.34.78,3.63,2.43,3.45,4.41-.19,2.16-2.29,4.76-6.41,5.35-.27,0-1,.07-2.1.17-3.14.29-8.99.83-14.9.83s-11.23.54-14.09.83c-.96.1-1.66.17-1.93.17-7.96,1.33-17.37,2-27.98,2-5.92,0-12.31.54-15.75.83-1.16.1-1.99.17-2.25.17-7.9,0-16.94-.99-17.93-1.98-2.91-1.94-4.94-8.88-4.95-11.92-.95-4.75,1.8-8.81,4.9-9.85,2.07,0,4.1-1.06,4.1-2.12,0-.51,0-1.04.28-1.22.26-.16.78-.05,1.54.33h.06c2.04.01,3.97.01,4.12-.99.96,0,1.91.08,3.8,1.96,2.78,2.78,3.1,5.67.98,8.86-.68,1.37-1.28,1.63-1.51,1.58-.16-.04-.25-.23-.25-.52v-.05l-.04-.04c-.96-.96-.96-2.95-.96-3.91,0-1.07-.05-1.12-1.12-1.12-.57,0-1.03.37-1.32,1.06-.65,1.58-.25,4.68,1.23,6.16l.03.02c2.03,1.01,3.06,1.01,4.06,1.01h.04l.03-.02c3.44-2.3,3.82-7.29,2.71-10.95-.92-3.03-3.18-6.28-6.78-6.28-1.17,0-1.76-.16-2.04-.56-.54-.76-.08-2.55,1.16-6.27,2.97-7.93,8.8-11.91,18.88-12.92,7.34,0,12.88,2.1,12.88,4.88,0,1.07,0,3.06,1.07,3.12.88,1,.96,5.79-1.05,8.81l-.02.03v.04c0,1.05-.27,1.77-.79,2.08-.48.3-1.18.23-2.03-.2h-.06c-1.74-.01-3.06-.83-3.36-2.09-.25-1.07.25-2.61,2.42-3.69l2.47-1.24h-2.53c-3.08,0-5.12,3.08-5.12,5.12v.04c.53,1.56,1.57,3.08,2.8,4.06,1.4,1.12,2.95,1.48,4.35,1.03,4.05-.01,6.1-4.09,6.1-12.12,0-5.99,0-6.91,2.91-7.88h.03c3.04-2.04,9.95-1.93,12.84.97,2.02,2.02,2.22,7.08,1.05,9.92-.5,1.21-1.2,1.87-1.96,1.87-.27,0-.44-.07-.53-.23-.16-.27-.19-.93.65-2.59v-.06c.01-2,.01-2.12-1.11-2.12-.66,0-1.26.4-1.73,1.15-.88,1.43-1.06,3.68-.39,5.03.48.97,1.68,1.57,3.11,1.57s2.57-.57,3.08-1.5c1.16-.14,2.05-3.35,2.05-6.12v-5.98c.97-2.79,9.67-5.9,14.88-5.9,3.99,0,4.93,0,6.9,2.96,3.47,4.16,5.2,11.1,3.77,15.14-.53,1.49-1.46,2.41-2.7,2.66h-.03c-1.96.99-5.89.96-6.83-.93-.49-.98-.2-1.67.23-1.98.41-.3,1.08-.35,1.55.11.55,1.08,1.47,1.7,2.26,1.52.61-.14.97-.74.97-1.59,0-1.28-.74-2.35-1.97-2.86-1.46-.6-3.16-.3-4.23.76-.82.42-1.3.99-1.42,1.71-.19,1.19.62,2.7,2.4,4.48,1.99,1.99,4.64,2.87,7.11,2.36,2.31-.47,4.16-2.08,5.09-4.4v-.05c0-.8.7-.87,1.83-.88,1.01,1.01,1.1,1,2.14-.04.57-.57,1.33-.74,2.22-.49,1.97.54,3.93,2.88,4.57,5.42.62,4.34-.33,8.24-2.36,9.71-1.01.73-2.21.79-3.46.16-1.15-.57-1.48-1.07-1.42-1.33.06-.27.58-.44,1.37-.44,1.04,0,2.05-.99,2.09-1.04l.04-.04v-.05c0-1.12-1.13-1.12-2.12-1.12Z"/>
    </g>
  </g>
</svg>