<?xml version="1.0" encoding="UTF-8"?>
<svg id="Layer_2" data-name="Layer 2" xmlns="http://www.w3.org/2000/svg" viewBox="0 0 107.44 165.65">
  <defs>
    <style>
      .cls-1, .cls-2, .cls-3, .cls-4, .cls-5 {
        stroke-width: 0px;
      }

      .cls-2 {
        fill: #d71e00;
      }

      .cls-3 {
        fill: #ffd7ff;
      }

      .cls-4 {
        fill: #ffd341;
      }

      .cls-5 {
        fill: #ffd5d4;
      }
    </style>
  </defs>
  <g id="Layer_1-2" data-name="Layer 1">
    <g>
      <path class="cls-4" d="m75.14,39.03c-1.52-1.31-3.1-2.66-3.79-4-2.01-1.01-4.03-3.04-6-5l-1.79-1.79v2.7q0,1.88.88,1.88h.04l.03.02s3.05,2.04,7.01,5c3.9,3.9,6.98,6.97,7.92,6.97.17,0,.22-.07.24-.12.19-.45-.65-1.98-2.33-3.66-.66-.66-1.45-1.34-2.22-1.99Z"/>
      <path class="cls-4" d="m68.55,43.95c-.67-.54-1.42-1.15-2.19-1.92l-1.93-1.29,2.12,2.12c2.61,3.48,3.42,3.56,3.61,3.49.15-.05.17-.28.17-.42,0-.56-.74-1.16-1.77-1.99Z"/>
      <path class="cls-2" d="m43.57,42.94c0,2.86.33,4.32,1.08,4.72.56.3,1.43.04,2.72-.82,1.02-1.02,3.08-1.02,5.07-1.02.99,0,4,0,5.06,1.01,1.37.34,2.28.45,2.84.02.98-.76.98-3.31.98-8.91-1.04-13.57-3.79-27.88-5.54-28.87-.06-.03-.11-.05-.16-.05-.04,0-.08,0-.12.03-1.34.45-4.18,6.2-7.06,14.31-2.96,8.31-4.87,16-4.87,19.58Z"/>
      <path class="cls-5" d="m38.32,101.94c0-2.02-2.04-15.02-3.98-17.93-.58-1.17-1.91-2.03-3.1-2.03-.54,0-1.26.18-1.69,1.02l-.03.07h-1.13c-.19-.11-.37-.15-.54-.15-.14,0-.28.03-.42.1-1.3.64-2.13,4.28-2.86,7.95,0,1.99-1.02,8.09-2,14-1.99,8.97-1.99,10,0,21.96.17,1.17.33,2.36.5,3.56.82,5.87,1.67,11.93,2.49,14.42.97,2.9,2.01,6.96,2.01,9.04.25,1.71.4,2.53.49,2.91.06-1.05-.06-4.69-.74-14.91-.73-11.68-.45-17.58.87-18.02.4-.13.84.18,1.36.95l.02.04s1,5.06,1,9.02v12l.85,3.39.9-5.41c1.82-17.29,3.73-27.47,6.01-32.04.93-3.72,1.87-4.02,4.38-4.84.22-.07.45-.15.69-.23h.04s2.47,0,2.47,0l-3.53-1.76c-2.77-.92-4.07-1.91-4.07-3.11Z"/>
      <path class="cls-4" d="m65.34,45.99c-.39-.79-.78-1.24-1.06-1.24-.02,0-.04,0-.05,0-.15.04-.65.37-.65,3.18.46,1.83.8,3.17,1,3.19.14.02.45-.62.76-1.24.98-1.96.98-2.89.02-3.86l-.02-.03Z"/>
      <path class="cls-5" d="m27.54,71.85c.73.73,1.49,1.06,2.25.99,1.12-.11,2.32-1.11,3.56-2.97,2.09-4.19,1.81-7.05-.98-9.84-1.46-1.46-2.36-2.36-2.63-2.36-.01,0-.02,0-.03,0-.12.05-.12.64-.12,1.27v.05l-.04.04c-.49.49-.72.96-.98,1.47-.25.5-.51,1.02-1.02,1.53-1.28,1.28-1.71,4.74-1.32,7.17.23,1.39.68,2.33,1.29,2.63l.03.02Z"/>
      <path class="cls-4" d="m78.45,38.81c.29,0,.57,0,.61-.07.08-.13-.22-.74-.73-1.75-.98-2.93-1.91-2.93-2.89-2.93s-2.97-.97-3.06-1.01l-.07-.03v-.08c0-1.96-7.93-8.88-8.88-8.88-.04,0-.05,0-.05,0,0,0-.04.08.11.37,1.49,2.95,13.36,14.37,14.94,14.37Z"/>
      <path class="cls-4" d="m42.34,24.99c-.26-.39-.51-.77-.74-1.13-.73-1.12-1.49-2.29-1.77-2.29,0,0-.02,0-.03,0-.05.02-.22.16-.22,1.36,0,.9,3.11,5.5,3.75,5.95v-.05l.13-.03c.16,0,.21-.06.24-.1.28-.45-.59-2.19-1.35-3.72Z"/>
      <path class="cls-4" d="m64.5,35.11c-.02.1.02.26.11.46.92,2.16,6.85,8.09,7.72,8.31v-.06s.12-.01.12-.01c.08,0,.12-.02.13-.03.16-.38-1.97-2.5-4.22-4.75-1.71-2.56-3.42-3.66-3.86-3.92Z"/>
      <path class="cls-4" d="m36.98,26.21c-.42.29,0,2.02,1.58,4.66,2.04,2.73,3.52,3.45,4.21,3.22.36-.12.56-.51.56-1.11-.22-.32-2.04-3.02-2.96-3.95-2.1-2.62-3.11-3.01-3.38-2.82Z"/>
      <path class="cls-4" d="m28.57,41.06v.82c.18.17.96.85,1.75.92v-.87c0-.79-.66-.87-1.75-.88Z"/>
      <path class="cls-4" d="m28.93,43.42c-.59-.25-1.68-.06-2.35.57,0,1.82,0,1.82.88,1.82.93,0,1.88-.95,1.88-1.88,0-.24-.13-.41-.4-.52Z"/>
      <path class="cls-4" d="m47.39,16.06c-.39-.01-.77-.16-1.08-.28-.27-.11-.56-.21-.66-.14-.05.04-.08.14-.08.3v1.95c.91.91.94.93,1.82.93.45-.46.68-.92.68-1.38s-.23-.91-.68-1.38Z"/>
      <path class="cls-4" d="m45.32,24.78v-1.84c0-.84-2.2-4.55-2.75-4.97v.03c-.59,1.15.25,3.45,1.27,5.1.63,1.02,1.17,1.56,1.48,1.69Z"/>
      <path class="cls-4" d="m32.2,38.68c-.66-.46-1.4-.99-1.59-.88-.02.01-.04.06-.04.14v.12h-.12s-.01,0-.02,0c0,0-.02.19.48.94,1.12,1.64,3.95,4.62,5.4,4.8-.04-.47-.31-2.12-1.94-3.76-.77-.38-1.52-.9-2.18-1.36Z"/>
      <path class="cls-4" d="m35.37,30.04c-.64-.32-.81-.34-.85-.32-.04.16.59,1.17,1.38,2.46.45.72,1,1.62,1.65,2.69,2.23,2.78,3.33,3.44,3.49,3.32.12-.09-.07-1.01-1.69-3.18-1.89-2.83-3.79-4.79-3.97-4.97Z"/>
      <path class="cls-4" d="m32.93,33.95c-.13-.02-.24-.01-.32.03.23.42,1.34,2.28,3.93,4.88h0c1.39,1.75,3.71,4.65,4.12,4.65,0,0,0,0,.01,0,.02-.03.08-.25-.35-1.52-1.79-3.58-5.88-7.79-7.4-8.03Z"/>
      <path class="cls-3" d="m95.3,127.84c-.17-.79-1.26-5.44-3.96-10.85-2-5.99-5-15.01-7-19-3-11-5.04-14-7.96-15.95-1.71-.85-2.71-1.07-3.57-.75-1.39.51-2.48,2.57-4.25,6.7-3.87,6.77-10,29.9-8.99,33.92,0,2.06,1.2,2.95,7.9,3.91h.06c2.04,0,2.05.13,3.05,14.12,0,5.08.53,10.2.82,12.94.11,1.04.18,1.74.18,2.04.76,1.51,1.21,1.66,1.41,1.61.61-.14,1.34-2.1,1.34-10.58v-15c0-1.07,1.05-2.12,2.12-2.12h.09l.03.09c.04.12,1,3.13,0,12.05v13.82c.46-.35.7-2.64,1-5.48.18-1.77.41-3.97.76-6.37v-14.11s8.12,0,8.12,0c4.46,0,8.16-.81,8.85-.97Z"/>
      <path class="cls-3" d="m75.34,70.88l.02-.03c1.36-1.36,1.69-3.07,1.31-3.99-.22-.52-.64-.79-1.23-.79-1.3,0-2.23.37-2.76,1.11-.61.84-.65,2.13-.12,3.72.95,1.89,1.82,1.89,2.77,0Z"/>
      <path class="cls-4" d="m48.57,13.94v.7l.75-.75v-.82c-.75,0-.75.04-.75.88Z"/>
      <path class="cls-2" d="m19.52,43.84c1.63,1.08,2.37,1.57,2.82,1.46.34-.09.58-.56,1-1.41l.03-.07h.08c.88,0,1.88-1.88,1.88-2.88s.05-1.12,1-1.12v-1.88c0-1,0-2.12,1.12-2.12.92,0,2.88-2.92,3.89-4.93,3.99-8.99,9.05-15.05,20.03-24.04,1.34-.9,1.33-1.15,1.33-1.16-.17-.14-1.91.22-6.2,2.37-5.05,2.02-22.93,15.93-26.96,20.97-2.1,2.1-8.01,9.03-9.99,12.98l-.02.03-1.79,1.79h11.74l.03.02Z"/>
      <path class="cls-4" d="m69.55,25.87c3.47,3.47,5.78,5.77,6.08,5.58.04-.02.12-.19-.3-1.45-2.01-3-10.87-11.87-12.92-12.93-.72,0-1.21.29-1.32.78-.13.55.25,1.4,1.38,1.97,1.14.06,5.09,3.08,7.07,6.05Z"/>
      <path class="cls-2" d="m68.54,17.85c11.02,13.02,12.02,16.04,14.03,22.04.12.9.21,1.69.3,2.41.68,5.55.8,6.47,1.54,6.5.33-.22,3.11-2.05,4.98-2.99,3.02-2.01,5.07-2.01,7.06-2.01h1.78c-.59-.96-3.36-5.4-6.88-9.8-5.01-7.01-6.97-8.97-14.98-14.98-4.95-2.97-9.96-6.96-11.01-8.01-.96-.96-2.96-2.96-3.91-2.96h-.06c-.46-.25-1.64-.83-1.96-.83-.02,0-.04,0-.06.01-.12.4,2.77,3.58,8.01,9.34l1.15,1.27Z"/>
      <path class="cls-1" d="m83.06,139.14c.73-5.86,1.25-6.03,4.23-6.03,1.42,0,3.3.18,5.99.45h.16c3.13,0,4.85,0,5.95-.13,1.77-.22,2.67-1.06,2.67-2.49,0-1.28-.9-3.18-1.17-3.73l-.24-.48-.33-.16c-1.86-2.16-10.7-24.01-14.33-36.09-2.38-7.92-4.33-12.24-8.26-13.64h.02s-.02-.02-.02-.02c2.5-1.62,3.88-5.26,4.25-6.37.57-1.71.24-4.46-.89-7.36-1.07-2.75-2.61-4.95-3.92-5.6l-.11-.06-.1-.03c-.48-.16-1-.24-1.55-.24-3.61,0-8.59,3.93-8.59,6.78,0,3.64,1.28,7.92,3.27,10.9l.1.14.1.1c.44.44,1.07.9,1.78,1.32h-.02s.02.01.02.01c-1.81.22-3.2.95-4.99,3.62l-.1.17c-.47.94-1.21,2.18-1.94,3.39-.75,1.25-1.53,2.55-2.06,3.61l-.1.2-.05.26c-.51,3.05-1.29,5.87-1.92,8.14-.6,2.14-1.03,3.69-1.09,4.85-.7,2.25-2.11,8.45-3.35,13.93v.06c-.68,2.93-1.25,5.45-1.59,6.83-.39,1.18-.73,2.71.08,4.1.94,1.61,3.02,2.32,6.06,2.93,1.8.61,3.23,1.21,3.95,1.54.26,1.83.85,6.4.85,10.89v.2c1.04,8.24,1.78,13.36,2.4,16.6.68,3.51,1.27,5.82,3.22,5.82.11,0,.24,0,.38,0v.05l.48.48c1.29,1.3,2.52,1.57,3.33,1.57,1.75,0,3.14-1.26,3.4-3.09h.42c1.02,0,1.67-.5,2.03-.92.82-.95,1.46-2.67.59-8.82,0-3.86,0-9.7.95-13.5l.04-.19Zm-10.37-71.97c.53-.74,1.46-1.11,2.76-1.11.59,0,1.01.27,1.23.79.38.92.05,2.63-1.31,3.99l-.02.03c-.95,1.9-1.82,1.9-2.77,0-.53-1.59-.49-2.87.12-3.72Zm5.64,61.64v14.11c-.34,2.4-.57,4.6-.75,6.37-.3,2.84-.53,5.13-1,5.48v-13.82c.99-8.92.03-11.93,0-12.05l-.03-.09h-.09c-1.07,0-2.12,1.05-2.12,2.12v15c0,8.48-.73,10.44-1.34,10.58-.2.05-.65-.1-1.41-1.61,0-.3-.08-1-.18-2.04-.28-2.75-.81-7.86-.82-12.94-1-13.98-1.01-14.12-3.05-14.12h-.06c-6.7-.96-7.89-1.85-7.9-3.91-1-4.02,5.13-27.15,8.99-33.92,1.77-4.13,2.86-6.19,4.25-6.7.85-.32,1.86-.1,3.57.75,2.92,1.95,4.95,4.95,7.96,15.95,2,3.99,5,13.01,7,19,2.71,5.41,3.79,10.06,3.96,10.85-.7.16-4.4.97-8.85.97h-8.12Z"/>
      <path class="cls-1" d="m1.72,54.39l.32.16h.41c1.05.01,3.14-.54,4.32-2.63,1.74-1.72,2.48-2.24,2.79-2.35h.25l.37-.17c.94-.47,1.99-.83,2.27-.83h.49l.41-.27c.72-.48,1.52-.73,2.36-.73,1.85,0,3.83,1.21,5.41,3.31,1.31,1.95,2.72,2.94,4.2,2.94.94,0,2.67-.43,3.65-3.3.66-1.59,3.07-2.7,5.85-2.7,2.14,0,4.62.74,5.01,2.36.21,1.89,2.84,4.39,4.61,4.39h.09c.28,1.3.28,5.51.28,12.38s0,16.8-.95,20.61l-.05.21v.18c0,7.79,0,9.66,1.46,11.14-.32.41-.46,1.01-.46,1.86,0,.01,0,.02,0,.03h-.03c-.31,0-.74-.11-1.21-.3-.95-2.15-3.39-12.31-4.51-17.91-.14-2.4-2.96-3.81-3.89-4.27l-.32-.16h-.41c-1.39-.01-2.88-.7-3.67-1.38,1.67-.67,3.32-1.98,4.88-3.92,2.58-2.62,3.67-6.13,3-9.64-.75-3.87-3.56-7.21-7.53-8.92-.42-.2-.87-.3-1.34-.3-1.13,0-4.15.79-7.79,8.05l-.09.18-.05.23c-1.05,5.23-1.06,6.64,1.14,11.05,1.01,2.02,2.48,3.27,4.27,3.65l-.02.02h.01c-2.37,1.77-5.3,5.42-6.15,6.71l-.27.41v.49c0,.73-.88,6.25-1.97,11.68l-.03.17v.15c0,6.28-1.06,11.74-1.83,13.27-1.19,2.38-1.22,4.63-.14,10.05l.05.2c.76,2.27,1.56,7.25,2.34,12.06.2,1.24.4,2.49.6,3.69.96,4.79,1.7,10.11,2.29,14.39.73,5.3,1.18,8.36,1.71,9.72.09.64.64,2.74,4.1,2.74,1.83,0,4.1-.61,6.23-1.67,1.75-.88,3-2.38,3.25-3.92.17-1.03-.12-1.99-.82-2.69l-.21-.21c-.65-2.72.68-15.44,2.65-25.28.99-3.97,2-8.98,2.04-11.23.56-3.85,1.8-5.86,2.73-5.86.32,0,.73.2,1.17.58.62,1.7,3.06,2.77,4.47,2.77,3.23,0,3.57-2.07,4.39-7.08l.21-1.28c1.08-5.38.03-6.94-1.45-8.42l-.24-.24c-.29-1.48-.29-6.44-.29-14.62v-24.91s.85-8.46.85-8.46h1.53c1.45,0,3.07.72,5.96,2.63,3.03,3.03,3.75,3.75,4.84,3.75.76,0,1.65-.51,1.8-1.64,1.01-2.42,7.1-6.65,8.41-6.73.54,0,3.1.79,4.84,2.52,2.55,2.55,4.55,3.79,6.12,3.79,1.32,0,2.65-.91,2.65-2.94,0-.16.45-.88.68-1.26.25-.41.56-.91.88-1.5,1.37-.6,2.95-.93,4.46-.93s4.32.35,6.06,2.66l.08.1.08.08c.25.25.55.65.85,1.05.85,1.14,1.82,2.43,3.3,2.43.73,0,1.37-.39,1.72-1.04.96-1.78-.76-6.07-2.37-8.48l-.24-.36-.39-.19c-1.42-.71-3.22-3.18-4.26-5.25-4.89-10.72-16.57-22.07-30.49-29.62-.14-.14-.27-.27-.36-.37,0-.09,0-.21,0-.32v-.87l-6.66-4.44c-3.08-2.46-4.89-3.63-6.84-3.63-1.5,0-2.74.74-3.86,1.48-8.04,3.02-12.14,5.08-16.24,8.16l-.17.15c-7.81,7.81-13.78,12.86-15.14,13.54-1.52.18-3.14,1.73-5.86,4.46l-.25.25-.14.39c-.48,1.45-1.25,2.67-1.87,3.65-.38.6-.7,1.12-.92,1.62-.72.43-1.32,1.18-2.02,2.04-.51.63-1.09,1.34-1.8,2.05-.58.58-1.34,1.59-2.16,2.68-.67.89-1.43,1.9-1.84,2.32l-.12.12-.08.12c-1.34,2.02-3.69,6.57-2.96,9.35.31,1.16,1.03,1.73,1.58,2.01Zm25.73-8.58c-.87,0-.88,0-.88-1.82.67-.64,1.77-.82,2.35-.57.26.11.4.28.4.52,0,.93-.95,1.88-1.88,1.88Zm2.88-3.01c-.79-.07-1.57-.76-1.75-.92v-.82c1.09,0,1.75.09,1.75.88v.87Zm.59-3.8c-.51-.75-.48-.93-.48-.94,0,0,0,0,.02,0h.12v-.12c0-.08.01-.13.04-.14.18-.11.93.42,1.59.88.66.46,1.41.98,2.18,1.36,1.63,1.64,1.9,3.29,1.94,3.76-1.45-.18-4.28-3.16-5.4-4.8Zm9.76,4.5s0,0-.01,0c-.41,0-2.73-2.9-4.12-4.64h0c-2.59-2.6-3.69-4.46-3.93-4.89.08-.04.19-.05.32-.03,1.52.25,5.61,4.45,7.4,8.03.42,1.27.37,1.49.35,1.52Zm.36-5.31c-.16.12-1.26-.54-3.49-3.32-.65-1.08-1.2-1.97-1.65-2.69-.8-1.28-1.43-2.3-1.38-2.46.04-.02.21,0,.85.32.18.19,2.09,2.14,3.97,4.97,1.62,2.17,1.81,3.09,1.69,3.18Zm1.71-4.1c-.69.23-2.16-.49-4.21-3.22-1.58-2.64-1.99-4.37-1.58-4.66.27-.19,1.28.19,3.38,2.82.92.92,2.75,3.62,2.96,3.95,0,.6-.21.99-.56,1.11Zm.56-5.25v.05c-.64-.45-3.75-5.05-3.75-5.95,0-1.2.17-1.34.22-1.36,0,0,.02,0,.03,0,.28,0,1.04,1.16,1.77,2.29.23.36.48.74.74,1.13.76,1.53,1.63,3.26,1.35,3.72-.03.04-.08.1-.24.1l-.13.03Zm-.76-10.85v-.03c.57.42,2.76,4.14,2.76,4.97v1.84c-.3-.13-.85-.67-1.48-1.69-1.02-1.65-1.86-3.95-1.29-5.1Zm-16.34,51.2c-.39-2.43.04-5.89,1.32-7.17.51-.51.77-1.03,1.02-1.53.25-.5.49-.98.98-1.47l.04-.04v-.05c0-.62,0-1.21.12-1.27.01,0,.02,0,.03,0,.27,0,1.17.9,2.63,2.36,2.8,2.79,3.08,5.65.98,9.84-1.24,1.86-2.44,2.86-3.56,2.97-.76.07-1.52-.26-2.25-.99l-.03-.02c-.6-.3-1.06-1.24-1.29-2.63Zm17.23,37.62h-.04c-.24.09-.47.16-.69.23-2.52.81-3.46,1.12-4.38,4.84-2.28,4.56-4.19,14.74-6.01,32.04l-.9,5.41-.85-3.39v-12c0-3.97-.99-8.97-1-9.02l-.02-.04c-.51-.77-.96-1.07-1.36-.95-1.32.44-1.6,6.34-.87,18.02.68,10.21.8,13.85.74,14.91-.09-.39-.25-1.2-.49-2.91,0-2.08-1.04-6.14-2.01-9.04-.83-2.49-1.68-8.56-2.49-14.42-.17-1.19-.33-2.39-.5-3.56-1.99-11.96-1.99-12.99,0-21.96.98-5.9,2-12.01,2-14,.73-3.68,1.56-7.32,2.86-7.95.14-.07.27-.1.42-.1.17,0,.35.05.54.14h1.13s.03-.06.03-.06c.42-.84,1.15-1.02,1.69-1.02,1.19,0,2.51.87,3.1,2.03,1.94,2.91,3.98,15.91,3.98,17.93,0,1.2,1.3,2.19,4.07,3.11l3.53,1.76h-2.47ZM61.1,17.84c.12-.49.6-.77,1.32-.78,2.04,1.06,10.91,9.93,12.92,12.93.42,1.26.33,1.43.3,1.45-.3.19-2.61-2.11-6.08-5.58-1.98-2.98-5.93-6-7.07-6.05-1.13-.58-1.51-1.42-1.38-1.97Zm2.3,6.23s.01,0,.05,0c.94,0,8.88,6.92,8.88,8.88v.08l.07.03c.08.04,2.04,1.01,3.06,1.01s1.91,0,2.89,2.93c.5,1.01.81,1.62.73,1.75-.04.07-.32.07-.61.07-1.59,0-13.46-11.41-14.94-14.37-.15-.3-.11-.37-.11-.37Zm1.94,25.81c-.31.62-.62,1.27-.76,1.24-.21-.02-.54-1.36-1-3.19,0-2.81.5-3.15.65-3.18.02,0,.04,0,.05,0,.27,0,.66.46,1.06,1.24l.02.03c.96.96.96,1.9-.02,3.86Zm4.82-3.53c-.18.07-.99-.01-3.61-3.49l-2.12-2.12,1.93,1.29c.77.77,1.52,1.38,2.19,1.92,1.03.83,1.77,1.43,1.77,1.99,0,.14-.02.37-.17.42Zm2.29-2.54h-.11s0,.07,0,.07c-.88-.23-6.8-6.15-7.72-8.31-.08-.2-.12-.36-.11-.46.44.25,2.15,1.36,3.86,3.92,2.25,2.25,4.38,4.38,4.22,4.75,0,.02-.05.03-.13.03Zm7.24.88c-.02.05-.07.12-.24.12-.95,0-4.02-3.07-7.92-6.97-3.96-2.97-6.98-4.98-7.01-5l-.03-.02h-.04q-.88,0-.88-1.88v-2.7l1.79,1.79c1.96,1.96,3.99,3.99,6,5,.69,1.34,2.26,2.7,3.79,4,.76.65,1.55,1.33,2.22,1.99,1.68,1.68,2.52,3.21,2.33,3.66ZM59.43,7.23c.32,0,1.49.59,1.96.82h.06c.95.01,2.95,2.02,3.91,2.98,1.05,1.05,6.07,5.04,11.01,8.01,8.01,6.01,9.97,7.97,14.98,14.98,3.51,4.39,6.29,8.84,6.88,9.8h-1.78c-1.99,0-4.04,0-7.06,2.01-1.87.94-4.65,2.77-4.98,2.99-.75-.03-.86-.96-1.54-6.5-.09-.72-.19-1.51-.3-2.41-2-6.01-3.01-9.02-14.03-22.04l-1.15-1.27c-5.25-5.77-8.13-8.95-8.01-9.34.01,0,.03-.01.06-.01Zm-3.93,1.82s.08-.03.12-.03c.05,0,.1.02.16.05,1.75.99,4.5,15.3,5.54,28.87,0,5.59,0,8.14-.98,8.91-.56.43-1.46.32-2.84-.02-1.06-1.01-4.07-1.01-5.06-1.01-1.99,0-4.05,0-5.07,1.02-1.29.86-2.16,1.13-2.72.82-.75-.4-1.08-1.86-1.08-4.72,0-3.59,1.91-11.28,4.87-19.58,2.89-8.11,5.72-13.86,7.06-14.31Zm-9.93,8.84v-1.95c0-.16.03-.26.08-.3.1-.07.39.04.66.14.31.12.69.26,1.08.28.45.46.68.92.68,1.38s-.23.91-.68,1.38c-.88,0-.91-.02-1.82-.93Zm3-3.25v-.7c0-.83,0-.87.75-.88v.82l-.75.75ZM9.54,42.03l.02-.03c1.97-3.95,7.89-10.88,9.99-12.98,4.03-5.04,21.91-18.95,26.96-20.97,4.29-2.14,6.03-2.51,6.2-2.37,0,0,0,.26-1.33,1.16-10.98,8.99-16.04,15.05-20.03,24.04-1.01,2.01-2.97,4.93-3.89,4.93-1.12,0-1.12,1.13-1.12,2.12v1.88c-.95,0-1,.1-1,1.12s-.99,2.88-1.88,2.88h-.08l-.03.07c-.43.85-.66,1.32-1,1.41-.45.11-1.19-.38-2.82-1.46l-.03-.02H7.75l1.79-1.79Z"/>
    </g>
  </g>
</svg>