<svg width="18" height="17" viewBox="0 0 18 17" fill="none" xmlns="http://www.w3.org/2000/svg">
<g clip-path="url(#clip0_147_93)">
<path d="M17.9937 8.48438C17.9937 9.04688 17.525 9.4875 16.9937 9.4875H15.9937L16.0156 14.4937C16.0156 14.5781 16.0094 14.6625 16 14.7469V15.25C16 15.9406 15.4406 16.5 14.75 16.5H14.25C14.2156 16.5 14.1813 16.5 14.1469 16.4969C14.1031 16.5 14.0594 16.5 14.0156 16.5H13H12.25C11.5594 16.5 11 15.9406 11 15.25V14.5V12.5C11 11.9469 10.5531 11.5 10 11.5H8C7.44688 11.5 7 11.9469 7 12.5V14.5V15.25C7 15.9406 6.44063 16.5 5.75 16.5H5H4.00313C3.95625 16.5 3.90937 16.4969 3.8625 16.4937C3.825 16.4969 3.7875 16.5 3.75 16.5H3.25C2.55938 16.5 2 15.9406 2 15.25V11.75C2 11.7219 2 11.6906 2.00312 11.6625V9.4875H1C0.4375 9.4875 0 9.05 0 8.48438C0 8.20312 0.09375 7.95312 0.3125 7.73438L8.325 0.75C8.54375 0.53125 8.79375 0.5 9.0125 0.5C9.23125 0.5 9.48125 0.5625 9.66875 0.71875L17.65 7.73438C17.9 7.95312 18.025 8.20312 17.9937 8.48438Z" fill="black"/>
</g>
<defs>
<clipPath id="clip0_147_93">
<rect width="18" height="16" fill="white" transform="translate(0 0.5)"/>
</clipPath>
</defs>
</svg>
