<svg width="165" height="144" viewBox="0 0 165 144" fill="none" xmlns="http://www.w3.org/2000/svg">
<path fill-rule="evenodd" clip-rule="evenodd" d="M116.906 19.929C136.857 19.929 153.1 35.7572 153.787 55.5411H153.785C159.347 59.5152 165 67.9316 165 75.2883C165 88.6227 152.865 94.1669 144.212 94.3542C141.631 94.2513 134.104 94.2789 124.182 94.3542C117.289 94.4056 34.2771 94.9529 21.3908 94.3542C8.50453 93.7555 0 81.8811 0 69.5219C0 54.2134 9.00404 43.5107 23.5468 40.8588C26.5034 17.8134 46.1772 0 70.0269 0C86.261 0 100.565 8.25294 108.978 20.7921C111.532 20.232 114.184 19.929 116.906 19.929ZM49.1797 108.071C46.4361 106.721 40.3703 109.446 35.0024 113.359C30.9311 116.329 27.26 119.982 25.745 123.061C22.2319 130.201 25.1738 138.838 32.3139 142.351C39.454 145.864 48.0907 142.922 51.6038 135.782C53.1189 132.703 53.7727 127.566 53.6404 122.529C53.466 115.886 51.9215 109.418 49.1779 108.071H49.1797ZM43.6172 131.041C42.3629 133.591 39.2777 134.642 36.725 133.388C34.1742 132.133 33.1238 129.048 34.3781 126.495C35.6323 123.945 38.7176 122.894 41.2702 124.149C43.821 125.403 44.8714 128.488 43.6172 131.041ZM77.5306 113.359C82.8985 109.446 88.9643 106.721 91.7079 108.071H91.7061C94.4497 109.418 95.9941 115.886 96.1686 122.529C96.3008 127.566 95.6471 132.703 94.132 135.782C90.6189 142.922 81.9821 145.864 74.8421 142.351C67.702 138.838 64.76 130.201 68.2731 123.061C69.7882 119.982 73.4592 116.329 77.5306 113.359ZM79.2532 133.388C81.8058 134.642 84.891 133.591 86.1453 131.041C87.3996 128.488 86.3492 125.403 83.7984 124.149C81.2457 122.894 78.1605 123.945 76.9062 126.495C75.6519 129.048 76.7024 132.133 79.2532 133.388ZM120.061 113.359C125.429 109.446 131.494 106.721 134.238 108.071H134.236C136.98 109.418 138.524 115.886 138.699 122.529C138.831 127.566 138.177 132.703 136.662 135.782C133.149 142.922 124.512 145.864 117.372 142.351C110.232 138.838 107.29 130.201 110.803 123.061C112.318 119.982 115.989 116.329 120.061 113.359ZM121.783 133.388C124.336 134.642 127.421 133.591 128.675 131.041C129.93 128.488 128.879 125.403 126.328 124.149C123.776 122.894 120.69 123.945 119.436 126.495C118.182 129.048 119.231 132.133 121.783 133.388Z" fill="url(#paint0_linear_147_145)"/>
<defs>
<linearGradient id="paint0_linear_147_145" x1="-8.5" y1="-5.13772" x2="79.7457" y2="192.716" gradientUnits="userSpaceOnUse">
<stop offset="0.0809276" stop-color="#8AD7D9"/>
<stop offset="0.5" stop-color="#C8CA62"/>
<stop offset="0.871232" stop-color="#F4B0A7"/>
</linearGradient>
</defs>
</svg>
