<svg width="14" height="17" viewBox="0 0 14 17" fill="none" xmlns="http://www.w3.org/2000/svg">
<path d="M6.58125 0.684375L1.9375 5.79375C1.81562 5.925 1.75 6.1 1.75 6.27812C1.75 6.67812 2.07187 7 2.47187 7H3.25L0.95625 9.29375C0.825 9.425 0.75 9.60625 0.75 9.79375C0.75 10.1844 1.06562 10.5 1.45625 10.5H2.5L0.16875 13.2969C0.059375 13.4281 0 13.5938 0 13.7656C0 14.1719 0.328125 14.5 0.734375 14.5H6V15.5C6 16.0531 6.44688 16.5 7 16.5C7.55312 16.5 8 16.0531 8 15.5V14.5H13.2656C13.6719 14.5 14 14.1719 14 13.7656C14 13.5938 13.9406 13.4281 13.8313 13.2969L11.5 10.5H12.5437C12.9344 10.5 13.25 10.1844 13.25 9.79375C13.25 9.60625 13.175 9.425 13.0437 9.29375L10.75 7H11.5281C11.925 7 12.25 6.67812 12.25 6.27812C12.25 6.1 12.1844 5.925 12.0625 5.79375L7.41875 0.684375C7.3125 0.565625 7.15938 0.5 7 0.5C6.84062 0.5 6.6875 0.565625 6.58125 0.684375Z" fill="black"/>
</svg>
