<?xml version="1.0" encoding="UTF-8"?>
<svg id="Layer_2" data-name="Layer 2" xmlns="http://www.w3.org/2000/svg" viewBox="0 0 142.79 150.64">
  <defs>
    <style>
      .cls-1, .cls-2 {
        stroke-width: 0px;
      }

      .cls-2 {
        fill: #d5d6ff;
      }
    </style>
  </defs>
  <g id="Layer_1-2" data-name="Layer 1">
    <g>
      <path class="cls-2" d="m101.76,89.75c-.9,0-2.88,1.95-2.88,3.88v.06c-.23.43-.26.73-.1.82.48.28,2.4-.74,3.87-2.94.45-.91.73-1.46.62-1.64-.11-.17-.66-.17-1.51-.17Z"/>
      <path class="cls-2" d="m58.81,126.74c-1.94.97-5.93,7.91-5.93,8.89,0,.24.05.39.12.4.01,0,.03,0,.04,0,.63,0,2.82-2.9,4.6-6.46.55-1.1,1.29-2.58,1.39-3.03-.04.03-.1.09-.19.17l-.03.02Z"/>
      <path class="cls-2" d="m66.93,87.27c-.13-.13-.3-.18-.48-.18-.2,0-.41.06-.59.13-.57.23-1.27.74-2.02,1.49-1.78,2.67-2.65,5.95-2.27,6.67.06.11.12.12.18.12.6,0,1.26-.88,1.9-1.73.33-.44.67-.9,1.01-1.24,2.33-2.33,2.89-4.64,2.27-5.26Z"/>
      <path class="cls-2" d="m75.76,112.75s-.88.01-.88.88c0,.81,0,1.46.09,1.54.07,0,.36-.28.66-.59.01-.39.16-.77.28-1.08.11-.28.21-.56.14-.66-.04-.05-.14-.08-.3-.08Z"/>
      <path class="cls-2" d="m85.55,136.36c-.19,0-.85.65-1.69,2.32l-.02.03c-.92.92-1.87,2.75-1.96,3.76.29-.08,1.02-.43,1.76-1.9.38-.77.76-1.38,1.09-1.92.52-.84.89-1.44.89-2.02,0-.21-.05-.26-.06-.27,0,0-.01,0-.02,0Z"/>
      <path class="cls-2" d="m86.09,88.7c-1.41.59-4.21,4.29-4.21,5.93,0,.07.01.13.04.14.37.16,2.31-1.78,3.74-3.21.83-1.67.96-2.64.97-2.87-.06-.04-.13-.06-.21-.06-.09,0-.2.03-.33.08Z"/>
      <path class="cls-2" d="m106.64,118.57l.02-.04.04-.02c1.49-.75,2.43-2.09,2.31-2.6-.02-.07-.06-.16-.26-.16h-.12v-.12s0-.04,0-.04c0,0-.12,0-.48.26-1.11.82-3.12,3.21-3.26,4.63.29-.08,1.02-.44,1.76-1.9Z"/>
      <path class="cls-2" d="m88.25,116.97c.15.05.95-.48,2.4-2.42l.04-.04c1.91-.95,1.93-2.87,1.93-2.89,0-.23,0-.49-.04-.54-.13.01-.77.66-1.75,1.63-2.24,2.8-2.72,4.1-2.59,4.26Z"/>
      <path class="cls-2" d="m25.93,145.76c.39,0,1.99-1.75,3.71-5.19,1.21-2.42,1.76-3.53,1.63-3.75-.05-.07-.26-.07-.51-.07-.86,0-4.88,6.81-4.88,8.88,0,.09.02.13.03.13,0,0,.02,0,.02,0Z"/>
      <path class="cls-2" d="m21.13,99.32c.5.12,1.75-1.24,2.51-2.75.58-1.74.84-2.53.7-2.73-.06-.09-.28-.09-.59-.09-.43,0-1.14.68-1.77,1.69-.69,1.11-1.11,2.3-1.11,3.18,0,.24.03.64.25.7Z"/>
      <path class="cls-2" d="m17.27,119.88c.21.06.85-.04,2.38-2.33l.02-.03h.03c1.89-.96,1.93-1.88,1.93-2.85-.08-.06-.18-.09-.3-.09-.15,0-.34.05-.55.14-1.59.66-3.89,3.22-3.89,3.9,0,.73.14,1.18.39,1.26Z"/>
      <path class="cls-2" d="m47.76,93.75c-1.94,0-4.88,3.99-4.88,4.88,0,.55.08.85.24.94.32.17,1.17-.41,2.45-1.28.34-.23.7-.48,1.11-.75,1.36-1.37,1.81-2.8,1.54-3.46-.09-.21-.24-.32-.46-.32Z"/>
      <path class="cls-2" d="m57.83,110.73c-1,1.03-3.43,6.01-3.13,6.73.01.04.03.04.05.04.6,0,1.26-.88,1.9-1.73.33-.43.66-.88,1-1.22.79-1.58,1.78-3.71,1.4-4.1-.1-.1-.4-.13-1.22.27Z"/>
      <path class="cls-2" d="m40.25,113.88s-.02-.02-.04-.03c-.26,0-1.1.75-2.35,2.84l-.02.03-.03.02c-1.91.96-2.93,2.87-2.93,3.89v.05l-.04.04s-.07.08-.1.11c.48-.23,1.66-1.02,2.92-2.28,2.24-2.8,2.72-4.38,2.59-4.66Z"/>
      <path class="cls-2" d="m121.76,91.75c-.92,0-3.88,3.88-3.88,5.88,0,.2.09.24.16.26.52.12,1.86-.82,2.6-2.31l.02-.03c1.75-1.75,2.53-2.89,2.33-3.39-.11-.26-.52-.39-1.24-.39Z"/>
      <path class="cls-2" d="m7.76,77.5c.52,0,1.29.26,2.04.51s1.48.49,1.96.49h.06q1.97,1,65.94,1c5.69-.14,10.72-.26,15.15-.37,22.95-.56,30.68-.75,30.82-1.34,0,0,0-.02-.05-.07l-.04-.04v-4.05c.52-2.1,2.33-2.84,3.9-2.64,1.62.2,3.35,1.42,3.35,3.64v.12h-2.12q-1.88,0-1.88,1.88c0,1.01,0,1.88,1.88,1.88,3.95.98,6.94,0,8.9-2.94,1.86-3.73,2.1-6.73-1.99-11.85l-.02-.04c-.97-2.91-1.88-2.91-4.88-2.91s-2.88,0-2.88.88c0,1.12-1.13,1.12-2.12,1.12s-2.95,0-3.91.96c-1.92,2.88-5.93,6.02-9.06,6.04-1.56.77-3.23.69-4.72-.23-2.09-1.29-3.44-4-3.44-6.9,0-4.1,3.03-8.12,6.12-8.12,2.54,0,5.12,2.4,5.12,4.12,0,.34-.28.61-.76.72-.99.23-2.75-.21-3.48-1.67v-.06c-.01-.37-.12-.59-.34-.66-.77-.23-2.82,1.3-4.43,3.7v3.93c1.11,1.84,2.36,2.83,3.8,3,2.43.3,5.5-1.57,9.99-6.06,4.17-3.65,6.35-7.48,6.48-11.39.13-3.82-1.72-7.67-5.48-11.43-4.73-4.73-9.41-6.03-17.9-4.96-4.82.96-6.88,1.86-7.89,6.9-1.03,4.11-10.12,12.1-14.09,13.1-3.72.93-8.03.61-11.83-.88-3.6-1.41-6.33-3.73-7.32-6.19-2.85-5.7-1.24-15.96,5.05-20.15,3.04-3.04,11.16-1.98,14.16,1.02,1.33,1.33,1.77,4.35,1.42,6.5-.23,1.39-.74,2.35-1.45,2.7-3.2.8-4.82.88-5.62.25-.38-.3-.56-.74-.56-1.37,0-2,0-2.12,1.12-2.12.39,0,1.12.24,1.12,1.12,0,.19.04.43.23.5.16.07.81.15,2.54-1.57.71-2.17.27-4.04-1.24-5.28-2-1.64-6.05-2.14-10.59.46-2.46,1.64-4.89,6.63-5.12,8.89-.04.42,0,.72.11.88,1.07.07,1.07,2.05,1.07,3.12-.46,1.85.13,4.05,1.58,5.9,1.45,1.86,3.43,2.97,5.29,2.97,1,0,2.04,0,3.07,1.02,1.91.94,5.8,1.03,9.87-1.01,6.07-3.03,10.89-13.18,9.93-20.87,0-8.88-7-18.93-15.93-22.9-4.98-2.99-7.04-2.99-16.95-2.99-6.08,0-12.97,0-14.94.99h-.04c-7.06,1.02-18.89,14.09-18.89,20.89,0,2.86,0,2.88,1.85,2.88,1.92-.94,5.69-.19,10.08,2.01,3.93.98,7.12,7.86,6.07,13.14,0,6.51-2.33,11.16-6.09,12.1h-5.03c-2.42,0-5-2.75-6.36-5.3-1.3-2.43-1.58-4.63-.74-5.89.71-1.43,5.18-3.33,7.38-2.81.7.17.85.57.85.88,0,2.12-1.12,2.12-4.1,2.12-1.15.59-1.45,2.14-1.53,3.01-.12,1.33.12,2.82.61,3.81.83,1.24,2.49,2.07,4.55,2.28,2.14.21,4.25-.32,5.25-1.31,2.15-1.72,3.32-5.09,3.15-9.03-.2-4.67-2.17-8.8-5.13-10.78-5.2-3.12-15.21-1.75-21.86,3l-.03.02c-3.11,1.04-6.06,5.2-6.93,6.94l-.02.03c-3.95,3.95-3.97,4.87-2.96,10.89v5.32s-.21-.21-.21-.21c-.06-.06-.13-.16-.19-.24.17.69.34,1.37.54,2.03,4.32-2.85,9.22-2.85,12.82.03,2.09,1.4,3.09,4.53,2.81,6.63-.18,1.33-.83,2.25-1.85,2.59-.76.38-2.06.09-3.53-.82-1.77-1.1-3.6-2.98-3.63-4.27-.25-.51-.27-.94-.06-1.23.18-.25.52-.36.93-.3.81.13,1.86.94,2.37,2.46v.04c0,.94.72,1.38,1.38,1.38s1.38-.43,1.38-1.38c0-1.65-1.52-3.18-2.94-4.06-1.5-.93-3.02-1.25-3.87-.83h-.06c-2.01.01-3.94,2.05-4.89,3.94l-.03.04c-3.35,2.68-4.34,7.41-3.33,10.27.57,1.62,1.72,2.51,3.26,2.51Z"/>
      <path class="cls-1" d="m62.96,108.45c-.56-1.6-1.86-2.55-3.47-2.55-.31,0-.63.04-.94.1-2.94.2-5.79,4.55-6.98,7.43-1.14,2.75-1.19,4.87-.16,6.11.73,1.33,1.91,2.1,3.21,2.1,1.06,0,2.67-.51,4.35-2.91,2.89-2.41,5.17-6.91,3.99-10.28Zm-5.31,6.1c-.33.34-.67.79-1,1.22-.64.85-1.3,1.73-1.9,1.73-.03,0-.04,0-.05-.04-.3-.73,2.13-5.71,3.13-6.73.82-.41,1.12-.37,1.22-.27.39.39-.61,2.52-1.4,4.1Z"/>
      <path class="cls-1" d="m67.02,95.64c2.33-2.91,4.84-6.95,3.54-9.63-.44-.92-1.46-2.01-3.81-2.01-4.44,0-8.62,5.42-8.62,9.62v5l.9.45c.74.37,1.42.55,2.09.55,1.94,0,3.31-1.37,5.79-3.85l.12-.13Zm-3.37-1.87c-.64.85-1.3,1.73-1.9,1.73-.05,0-.12-.01-.18-.12-.38-.71.49-3.99,2.27-6.67.75-.75,1.45-1.27,2.02-1.49.18-.07.39-.13.59-.13.18,0,.35.05.48.18.63.63.07,2.93-2.27,5.26-.34.34-.68.79-1.01,1.24Z"/>
      <path class="cls-1" d="m58.76,122c-.59,0-2.39,0-6.14,6.16-.58.96-3.49,5.86-3.49,8.47,0,1.79,0,4.02,2.13,4.02.86,0,1.58-.45,3.12-1.48,1.46-.41,2.87-2.35,5.73-6.64l.04-.07c2.4-4,3.05-6.85,2-8.72-.37-.65-1.3-1.74-3.39-1.74Zm-1.11,7.57c-1.78,3.56-3.97,6.46-4.6,6.46-.01,0-.03,0-.04,0-.08-.02-.12-.17-.12-.4,0-.98,3.99-7.92,5.93-8.89l.03-.02c.09-.09.15-.14.19-.17-.1.45-.84,1.92-1.39,3.03Z"/>
      <path class="cls-1" d="m87.28,84.61c-1.78,0-4.23.88-5.69,2.85-2.31,1.69-3.57,4.76-3.8,7.05-.13,1.32.07,2.34.59,3.02.77,1.48,1.77,2.23,3,2.23,1.35,0,2.54-1,3.41-1.86,3.33-2.31,5.41-7.33,5.58-9.92.24-.72.17-1.44-.2-2.05-.52-.85-1.55-1.32-2.88-1.32Zm-1.63,6.94c-1.42,1.43-3.37,3.37-3.74,3.21-.02,0-.04-.06-.04-.14,0-1.64,2.79-5.34,4.21-5.93.13-.05.24-.08.33-.08.08,0,.15.02.21.06-.02.23-.14,1.2-.97,2.87Z"/>
      <path class="cls-1" d="m72.13,110.62c0,.43-.72,2.05-1.52,2.85l-.17.17-.13.25c-1.06,2.12-2.26,4.52-1.14,6.31.23,2.35,1.85,2.54,2.35,2.54.98,0,1.96-.56,3.28-1.86,3.11-2.19,6.46-8.66,6.73-11.32.09-.89-.12-1.59-.61-2.09-.85-.85-1.98-1.3-3.27-1.3-2.54,0-5.5,1.95-5.5,4.45Zm3.78,2.87c-.12.31-.26.69-.28,1.08-.31.31-.59.58-.66.59-.09-.08-.09-.72-.09-1.54,0-.86.84-.88.88-.88.16,0,.26.03.3.08.07.1-.04.39-.14.66Z"/>
      <path class="cls-1" d="m88.48,131.17l-.11-.05-.1-.03c-.3-.1-.63-.15-.97-.15-2.76,0-6.23,3.59-8.29,6.93-1.21,1.95-3.04,5.64-1.76,8.38.54,1.5,1.72,2.39,3.18,2.39,2.54,0,5.51-2.77,7.75-7.22,2.25-3.76,2.96-6.03,2.44-7.83-.31-1.05-1.02-1.86-2.13-2.41Zm-3.74,7.48c-.33.54-.71,1.15-1.09,1.92-.74,1.47-1.46,1.82-1.76,1.9.09-1.01,1.03-2.84,1.96-3.76l.02-.03c.84-1.67,1.49-2.32,1.69-2.32,0,0,.01,0,.02,0,.02,0,.06.06.06.27,0,.58-.37,1.19-.89,2.02Z"/>
      <path class="cls-1" d="m103.21,85.96c-2.57,0-6.04,1.25-7.71,3.63-2.48,2.62-2.61,7.47-.89,9.19.26.27,1.07,1.07,2.34,1.07s2.66-.81,4.77-2.89c4.61-2.39,6.92-6.2,5.49-9.06-.62-1.25-2.05-1.94-4-1.94Zm-.56,5.6c-1.47,2.2-3.38,3.21-3.87,2.94-.16-.09-.13-.39.09-.82v-.06c.01-1.93,1.99-3.88,2.89-3.88.84,0,1.4,0,1.51.17.11.18-.16.73-.62,1.64Z"/>
      <path class="cls-1" d="m100.21,123.14c.49,1.46,1.68,2.33,3.2,2.33,2.61,0,6.11-2.74,7.8-6.12,1.4-2.81,1.65-5.56.65-7.18-.54-.87-1.4-1.36-2.37-1.36-.48,0-.97.12-1.46.37-4.13,2.06-9.22,7.75-7.82,11.97Zm7.93-7.29c.36-.27.48-.26.48-.26,0,0,0,.01,0,.04v.12h.12c.2,0,.24.09.26.16.12.51-.82,1.86-2.31,2.6l-.04.02-.02.04c-.74,1.47-1.46,1.82-1.76,1.9.14-1.42,2.15-3.81,3.26-4.63Z"/>
      <path class="cls-1" d="m90.61,105.48c-1.25,1.24-3.13,4.57-4.44,7.32-2.4,5.01-2.36,6.54-1.99,7.37.36,2.08,2.78,2.08,3.58,2.08h.49l.41-.27c2.42-1.61,9.72-8.21,9.72-11.35,0-2.09-4.28-5.78-6.2-5.78-.61,0-1.17.23-1.58.64Zm2.02,6.15s-.02,1.93-1.93,2.89l-.04.04c-1.46,1.94-2.26,2.47-2.4,2.42-.13-.16.35-1.46,2.59-4.26.98-.98,1.62-1.62,1.75-1.63.04.05.04.31.04.54Z"/>
      <path class="cls-1" d="m5.89,82c2.23,1.48,4.12,1.91,12.35,1.91,5.95,0,15.49-.25,30.56-.66h54.9c7.47.5,11.96.75,15.81.75s7-.27,11.43-.76l.21-.04c.6-.15,1.15-.28,1.67-.39,3-.69,5.17-1.19,7.19-4.14,3.61-3.69,3.32-7.45,1.31-14.49l-.05-.16c-1.98-4.95-4.26-8.02-9.51-8.02h-1.38v-4.25c1.03-7.43-1.07-12.96-6.61-17.39l-.11-.08c-4.86-3.24-8.82-5.53-15.68-5.53-1.36,0-2.8.09-4.41.26l-4.49.75-.72-4.34c-1.1-10.78-9.58-20.16-21.09-23.33-5.25-2.08-9.35-2.08-17.52-2.08-14.59,0-20.95,2.24-27.23,9.57-2.68,3.21-5.44,7.03-7.4,10.2-2.21,3.58-3.19,5.98-3.1,7.52-.39.47-1.24,1.28-2.78,1.79l-.09.03c-5.29,2.12-12.57,9.31-14.8,13.69-.95,1.5-1.42,4.28-1.28,7.62.12,3.02.71,6,1.52,7.77.14.62.3,1.25.47,1.86-.96.76-1.82,1.61-2.57,2.55-2.13,2.66-2.94,6.45-2.24,10.38.71,3.93,2.81,7.3,5.64,9.01Zm1.95-17.28l.03-.04c.95-1.89,2.88-3.93,4.89-3.93h.06c.85-.44,2.37-.11,3.87.82,1.42.88,2.94,2.41,2.94,4.06,0,.94-.71,1.38-1.38,1.38s-1.38-.43-1.38-1.38v-.04c-.51-1.52-1.56-2.33-2.37-2.46-.41-.07-.75.04-.93.3-.21.29-.19.73.06,1.23.03,1.28,1.86,3.17,3.63,4.27,1.47.91,2.77,1.21,3.53.82,1.01-.34,1.67-1.26,1.85-2.59.28-2.1-.72-5.23-2.81-6.63-3.6-2.88-8.49-2.88-12.82-.03-.2-.65-.37-1.34-.54-2.03.06.08.13.18.19.24l.21.21v-5.32c-1.01-6.02-.98-6.95,2.96-10.89l.02-.03c.87-1.74,3.82-5.9,6.93-6.94l.03-.02c6.65-4.75,16.66-6.12,21.86-3,2.96,1.97,4.93,6.1,5.13,10.78.17,3.94-1,7.31-3.15,9.03-1,1-3.11,1.52-5.25,1.31-2.06-.2-3.73-1.04-4.55-2.28-.49-.98-.73-2.48-.61-3.81.08-.87.38-2.42,1.53-3.01,2.98,0,4.1,0,4.1-2.12,0-.31-.15-.71-.85-.88-2.2-.52-6.67,1.38-7.38,2.81-.84,1.26-.56,3.46.74,5.89,1.37,2.56,3.94,5.31,6.36,5.31h5.03c3.76-.94,6.09-5.59,6.09-12.1,1.06-5.28-2.13-12.16-6.07-13.14-4.4-2.2-8.16-2.95-10.08-2.01-1.85,0-1.85-.02-1.85-2.88,0-6.8,11.83-19.87,18.89-20.88h.04c1.97-1,8.86-1,14.94-1,9.9,0,11.97,0,16.95,2.99,8.93,3.97,15.93,14.02,15.93,22.9.96,7.7-3.87,17.84-9.93,20.87-4.07,2.03-7.96,1.95-9.87,1.01-1.03-1.02-2.07-1.02-3.07-1.02-1.86,0-3.84-1.11-5.29-2.97-1.45-1.85-2.04-4.05-1.58-5.9,0-1.07,0-3.05-1.07-3.12-.11-.15-.15-.46-.11-.88.22-2.26,2.66-7.25,5.12-8.89,4.54-2.59,8.59-2.1,10.59-.46,1.51,1.24,1.95,3.11,1.24,5.28-1.73,1.72-2.38,1.64-2.54,1.57-.19-.08-.23-.32-.23-.5,0-.89-.74-1.12-1.12-1.12-1.12,0-1.12.12-1.12,2.12,0,.62.18,1.07.56,1.37.79.62,2.41.55,5.62-.25.71-.36,1.23-1.31,1.45-2.7.35-2.15-.09-5.17-1.42-6.5-3-3-11.12-4.05-14.16-1.02-6.28,4.19-7.9,14.45-5.05,20.15.99,2.47,3.72,4.78,7.32,6.19,3.79,1.49,8.11,1.81,11.83.88,3.97-.99,13.06-8.99,14.09-13.1,1.01-5.04,3.07-5.94,7.89-6.9,8.48-1.06,13.17.24,17.9,4.96,3.76,3.76,5.61,7.61,5.48,11.43-.13,3.91-2.31,7.74-6.48,11.39-4.49,4.49-7.56,6.36-9.99,6.06-1.44-.18-2.68-1.16-3.8-3v-3.93c1.61-2.4,3.65-3.93,4.43-3.7.21.06.32.29.32.66v.06c.74,1.45,2.5,1.9,3.49,1.67.48-.11.76-.38.76-.72,0-1.73-2.58-4.12-5.12-4.12-3.09,0-6.12,4.02-6.12,8.12,0,2.9,1.35,5.61,3.44,6.9,1.48.92,3.16.99,4.72.23,3.13-.02,7.14-3.15,9.06-6.04.96-.96,2.95-.96,3.91-.96s2.12,0,2.12-1.12q0-.88,2.88-.88c3,0,3.91,0,4.88,2.91l.02.04c4.1,5.12,3.86,8.12,1.99,11.85-1.96,2.94-4.94,3.93-8.9,2.94-1.88,0-1.88-.87-1.88-1.88q0-1.88,1.88-1.88h2.12v-.12c0-2.22-1.74-3.44-3.35-3.64-1.56-.19-3.37.54-3.9,2.64v4.05l.04.04c.05.05.05.07.05.07-.14.6-7.87.78-30.82,1.34-4.43.11-9.46.23-15.15.37q-63.97,0-65.94-.99h-.06c-.48-.01-1.23-.26-1.96-.51s-1.52-.51-2.04-.51c-1.53,0-2.69-.89-3.26-2.51-1-2.85-.01-7.59,3.33-10.27Z"/>
      <path class="cls-1" d="m122.47,87.09c-1.06,0-2.22.36-3.41,1.05-3.07,1.19-5.35,6.37-5.57,9.41-.11,1.51.26,2.6,1.09,3.25,1,1.42,2.17,2.13,3.47,2.13,1.98,0,3.73-1.56,6.03-5.38,2.23-2.84,3-6.08,1.95-8.27-.67-1.4-1.97-2.2-3.56-2.2Zm-1.81,8.44l-.02.03c-.75,1.49-2.09,2.43-2.6,2.31-.07-.02-.16-.06-.16-.26,0-1.99,2.96-5.88,3.88-5.88.71,0,1.13.13,1.24.39.21.5-.57,1.64-2.33,3.39Z"/>
      <path class="cls-1" d="m17.61,102.77c.69.69,1.62,1.07,2.6,1.07,1.2,0,3.01-.55,4.8-3.18,3.63-3.71,4.46-8.62,1.9-11.19l-.12-.12-.12-.08c-1.48-.99-2.38-1.59-3.44-1.59-1.81,0-2.54,1.47-3.87,4.12-2.07,3.14-3.43,7.78-2.05,10.55l.11.22.2.2Zm4.38-7.33c.63-1.01,1.34-1.69,1.77-1.69.31,0,.53,0,.59.09.14.2-.12,1-.7,2.73-.75,1.51-2.01,2.87-2.51,2.75-.22-.05-.25-.46-.25-.7,0-.89.41-2.08,1.11-3.18Z"/>
      <path class="cls-1" d="m12.3,123.35l.11.22.2.2c.4.4,1.12.87,2.32.87,3.79,0,11.45-5.51,11.45-10.02,0-1.74-1.88-3.04-3.56-3.04-.25,0-.49.03-.72.08l-1-1c-.57-1.12-1.1-1.98-2.28-1.98-1.41,0-1.92,1.03-3.44,4.07-3.37,4.52-4.37,7.99-3.07,10.59Zm8.47-8.63c.22-.09.4-.14.55-.14.12,0,.23.03.3.09,0,.97-.04,1.88-1.93,2.83h-.03s-.02.04-.02.04c-1.53,2.29-2.17,2.39-2.38,2.33-.25-.08-.39-.52-.39-1.26,0-.68,2.3-3.24,3.89-3.9Z"/>
      <path class="cls-1" d="m48.9,100.8l.15-.2c2.21-2.95,3.06-6.01,2.32-8.38-.46-1.47-1.52-2.57-2.98-3.09-.68-.33-1.31-.49-1.92-.49-2.15,0-3.61,1.81-6.01,5.01l-.15.19-.1.27c-.37,1.11-.74,2.08-1.07,2.93-.61,1.6-1.02,2.66-1.02,3.58v.35l.17.37c.73,1.46,2.16,2.29,3.92,2.29,1.88,0,4.13-.94,6.51-2.72l.17-.13Zm-2.23-3.27c-.41.27-.78.52-1.11.75-1.28.87-2.13,1.45-2.45,1.28-.16-.08-.24-.39-.24-.94,0-.89,2.94-4.88,4.88-4.88.21,0,.37.11.46.32.27.66-.17,2.09-1.54,3.46Z"/>
      <path class="cls-1" d="m43.25,116.27l.05-.13c1.07-3.2,1.12-5.5.17-6.82-.54-.74-1.35-1.15-2.29-1.15-1.52,0-3.34,1.08-5.57,3.31l-.09.09-.06.09c-4.58,6.11-6.31,10.38-5.15,12.7l.1.17c.74,1.12,1.86,1.73,3.14,1.73,3.24,0,7.14-4.02,9.7-9.99Zm-8.51,4.55s.06-.07.1-.11l.04-.04v-.05c0-1.02,1.02-2.93,2.93-3.89l.03-.02.02-.03c1.25-2.09,2.08-2.84,2.35-2.84.02,0,.03,0,.04.03.13.29-.35,1.86-2.59,4.66-1.26,1.26-2.44,2.05-2.92,2.28Z"/>
      <path class="cls-1" d="m25.19,150.64c1.59,0,2.78-1.44,3.82-2.98,3.13-3.19,6.7-9.75,5.2-12.77-.31-.63-1.15-2.29-3.07-2.29-1.28,0-2.68.71-5.35,2.72l-.17.13-.15.2c-3.06,4.08-5.69,9.91-3.05,12.9.73,1.39,1.66,2.09,2.79,2.09Zm5.56-13.89c.25,0,.47,0,.51.07.14.22-.42,1.33-1.63,3.75-1.72,3.43-3.31,5.19-3.71,5.19,0,0-.02,0-.02,0,0,0-.03-.04-.03-.13,0-2.07,4.02-8.88,4.88-8.88Z"/>
    </g>
  </g>
</svg>