<?xml version="1.0" encoding="UTF-8"?>
<svg id="Layer_2" data-name="Layer 2" xmlns="http://www.w3.org/2000/svg" viewBox="0 0 110.52 112.27">
  <defs>
    <style>
      .cls-1 {
        stroke-width: 0px;
      }
    </style>
  </defs>
  <g id="Layer_1-2" data-name="Layer 1">
    <path class="cls-1" d="m5.62,58.27h.13s-.07.05-.1.07l-.1.08-.07.07c-2.31,2.31-3.48,3.47-3.48,5.15,0,1.17.86,2.02,2.04,2.02.9,0,2.17-.45,5.49-2.67l.14-.1.11-.1c1-1,2.52-2.52,2.85-2.52,1.4,0,2.76-.94,3.34-2.3.52-.04,1.48-.09,3.17-.09,7.04,0,18.31.76,23.15,1.79-.21.22-.43.44-.65.66l-.17.17c-5.52,5.52-6.21,5.52-10.64,5.53-1.15-.28-2.15-.42-2.98-.42-2,0-2.77.84-3.06,1.55-.29.69-.19,1.45.27,2.14.29,1.4,1.44,2.57,2.82,2.89l-.31.21-.1.1c-2.31,2.31-3.48,3.47-3.48,5.15,0,.79,0,2.87,1.91,2.87,1.13,0,1.84-.7,5.71-4.58.83-.5,1.61-1,2.38-1.52v1.85c-1,2.12-1,3.32-1,4.37v.35l.17.37c.7,1.41,1.63,1.7,2.29,1.7,1.91,0,2.84-2.33,3.7-4.92l.04-.13.02-.12c.97-5.84,3.85-11.31,7.33-13.94.82-.55,1.64-1.07,2.44-1.55v23.7l-4.61,6.46c-5.25,5.26-7.31,7.82-4.91,10.21l.48.48h.67c1.79,0,4.25-1.52,5.46-4.87.91-1.26,1.67-2.27,2.26-2.98-.03,1-.14,2.35-.33,4.05v9.18c0,3.62,2.72,3.62,3.62,3.62,2.62,0,2.62-3.12,2.62-5.62v-9.88s.66-4.66.66-4.66l3.98,1.99c4.1,2.05,7.18,3.08,7.21,3.09l.95.32.71-.71c.7-.7.99-1.65.82-2.68-.25-1.54-1.49-3.04-3.25-3.92l-.32-.16h-.41c-.55-.01-3.15-.8-5.96-2.64l-3.42-3.42v-20.51l.39.29c.81.62,1.82,1.39,2.94,2.14,3.48,3.48,3.52,3.57,4.42,9.85.02,9.13,2.11,9.13,3.01,9.13.6,0,1.44-.26,2.07-1.51.01-.02,1.12-2.23,1.17-4.54.13-.65.26-1.22.39-1.72.82,1.04,2.05,1.66,3.36,1.66,1.88,0,3.25-1.31,3.25-3.12v-.67l-.48-.48c-.08-.08-2.06-2.05-4.18-3.18l-.96-.96.26-.09c3.55-.08,5.35-1.63,5.35-4.62,0-2.62-2.73-2.62-3.62-2.62h-.49l-.41.27c-.75.5-1.74.77-2.86.77-1.77,0-3.69-.66-5.19-1.79h13.04c4.49-.24,7.79-.35,10.38-.35,9.06,0,10.77,1.25,14.39,4.87l.17.17.25.13c2.34,1.17,3.61,1.17,4.73,1.17h2.63l-1.18-2.35c-.05-.09-1.13-2.25-3.3-4.42l-.28-.23c1.78-.04,5.76-.39,5.76-4.62,0-1.46-1.09-3.04-3.48-3.04-.55,0-1.17.09-1.84.26l.9-1.13c1.49-1.49,2.77-2.77,3.59-3.87,1.11-1.48,1.37-2.75.79-3.79-.23-1.85-1.57-1.99-1.98-1.99-1.35,0-2.45,1.1-7.76,6.41l-5.6,6.53h-19.35c-4.36.28-8.1.41-11.1.41-4.28,0-6.48-.29-7.59-.55,1.2-1.36,4.17-4.32,9.84-10,2.91-2.15,8.03-4.26,10.33-4.26.14,0,.24,0,.31.02.78,1.31,2.18,2.13,3.68,2.13,1.88,0,3.25-1.31,3.25-3.12,0-3.62-2.73-3.62-5.62-3.62-.31,0-.58-.01-.82-.04.42-.43,1.21-1.07,2.66-1.94l.18-.11.13-.13c3-3,3.96-4.83,3.34-6.34-.22-.54-.84-1.44-2.49-1.44s-3.98,1.31-5.15,2.48l-.23.23v-.08c0-5.22-2.77-5.62-3.62-5.62-.49,0-1.5,0-2.26.89-.91,1.08-1.01,2.94-.36,6.86v4.77c-2.34,1.3-6.89,5.33-13.52,11.96l-1.23,1.23v-10.19c-.95-13.26-.22-13.99,5.44-19.65,1.53-1.16,5-4.12,4.19-6.55-.24-.73-.96-1.51-2.26-1.51-.45,0-.94.09-1.51.28l-.12.04-.1.05c-.24.12-2.36,1.23-3.6,3.48l-2.99,2.99c-.03-.23-.06-.55-.06-1.02v-7.86c.61-3.78.16-7.46-1.09-8.93-.63-.74-1.34-.85-1.72-.85h0c-.61,0-1.74.28-2.36,2.13l-.08.23v18.79s-2.13-2.55-2.13-2.55l-.1-.11c-2.04-2.04-4.94-4.48-7.15-4.48h-.67l-.47.48c-.6.6-.89,1.39-.83,2.25.12,1.75,1.69,3.7,4.9,6.12,1.8,1.81,3.24,3.64,4.3,4.98.67.85,1.19,1.51,1.62,1.94.53.6.53,5.13.53,10.86l.6,6.68-3.83-3.83-.17-.15c-3.62-2.72-5.24-6.1-5.35-6.74-.02-1.28-.9-3.14-1.17-3.68l-.45-.9h-.32c-.04-.31-.06-.78-.06-1.38,0-3.19-2.73-6.82-5.13-6.82-.63,0-1.21.24-1.65.67l-.48.48v4.67c-.1-.08-.21-.15-.31-.23-1.21-1.16-3.53-2.39-5.06-2.39-.91,0-1.66.54-1.91,1.37-.68,2.26,2.9,4.86,4.01,5.61l.17.1c.7.35,1.18.66,1.49.89-.23.02-.48.03-.76.03-1.26,0-4.62,0-4.62,2.62v.67l.48.48c.25.25,1.65,1.48,5.15,1.48,2.39,0,3.29,0,4.52.76,1.46.9,3.42,2.86,7.32,6.76l.09-.09h0l-.06.11c1.87,1.87,4.41,4.41,6.03,6.21h-1.9c-.61,0-2.07-.11-3.91-.25-3.84-.3-9.65-.74-15.03-.75l-2.65-.19c-10.06-.71-12.46-.92-12.96-1.91l-.11-.22-.2-.2c-.5-.5-.52-.91-.52-1.85,0-.17-.04-1.71-1.48-3.15l-.12-.12-.12-.08c-1.07-.72-2.06-1.08-2.92-1.08-1.01,0-1.86.48-2.31,1.33-.67,1.25-.34,2.99.92,4.91.31.61.56,1.15.75,1.59l-.05-.02h-.28c-1.95,0-4.62,0-4.62,2.62,0,3.62,2.73,3.62,5.62,3.62Z"/>
  </g>
</svg>