<svg width="7" height="13" viewBox="0 0 7 13" fill="none" xmlns="http://www.w3.org/2000/svg">
<path d="M3.5 1.6765C2.8559 1.6765 2.33333 2.20017 2.33333 2.84562V6.85228C2.33333 7.27365 2.16076 7.62926 1.96146 7.88744C1.70625 8.21869 1.55556 8.63031 1.55556 9.08091C1.55556 10.1575 2.42569 11.0294 3.5 11.0294C4.57431 11.0294 5.44444 10.1575 5.44444 9.08091C5.44444 8.63031 5.29375 8.21869 5.03854 7.88987C4.83924 7.63169 4.66667 7.27609 4.66667 6.85472V2.84562C4.66667 2.20017 4.1441 1.6765 3.5 1.6765ZM0.777778 2.84562C0.777778 1.34038 1.99549 0.117676 3.5 0.117676C5.00451 0.117676 6.22222 1.33794 6.22222 2.84562V6.85228C6.22222 6.85472 6.22465 6.85959 6.22708 6.86689C6.23195 6.88151 6.24653 6.90587 6.2684 6.93509C6.72778 7.52939 7 8.27471 7 9.08091C7 11.0173 5.43229 12.5883 3.5 12.5883C1.56771 12.5883 0 11.0173 0 9.08091C0 8.27227 0.272222 7.52696 0.731597 6.93509C0.753472 6.90587 0.768056 6.88151 0.772917 6.86689C0.775347 6.85959 0.777778 6.85472 0.777778 6.85228V2.84562ZM4.66667 9.08091C4.66667 9.72636 4.1441 10.25 3.5 10.25C2.8559 10.25 2.33333 9.72636 2.33333 9.08091C2.33333 8.57186 2.65903 8.13831 3.11111 7.97756V5.18385C3.11111 4.96951 3.28611 4.79415 3.5 4.79415C3.71389 4.79415 3.88889 4.96951 3.88889 5.18385V7.97756C4.34097 8.13831 4.66667 8.57186 4.66667 9.08091Z" fill="#545454"/>
</svg>
