<?xml version="1.0" encoding="UTF-8"?>
<svg id="Layer_2" data-name="Layer 2" xmlns="http://www.w3.org/2000/svg" viewBox="0 0 132.52 142.04">
  <defs>
    <style>
      .cls-1, .cls-2, .cls-3, .cls-4 {
        stroke-width: 0px;
      }

      .cls-2 {
        fill: #78a9d5;
      }

      .cls-3 {
        fill: #d5d6ff;
      }

      .cls-4 {
        fill: #ffd341;
      }
    </style>
  </defs>
  <g id="Layer_1-2" data-name="Layer 1">
    <g>
      <path class="cls-3" d="m20.63,133.95v.06s-.05.08-.07.12c.63-.73,2.15-2.86,2.83-4.22.28-.84.51-1.54.61-1.9-.26.33-.76,1.07-1.39,2.02-1.98,1.98-1.98,2.93-1.98,3.93Z"/>
      <path class="cls-3" d="m35.63,107v4.64l1.77-1.77c.38-.76.76-1.37,1.09-1.9.48-.78.84-1.35.89-1.9h-1.87c-.83,0-1.69.75-1.88.93Z"/>
      <path class="cls-3" d="m23.62,94l-.02.03c-1.24,1.24-1.68,2.46-1.37,2.89.17.24.61.21,1.21-.08.95-.96.95-1.9.95-2.9,0-.59,0-1.1-.03-1.31-.14.19-.4.72-.73,1.37Z"/>
      <path class="cls-3" d="m101.84,115.03s-.06,0-.1,0c-1.32,0-4.36,2.92-5.12,5.95l-.84,2.51,2.62-2.63c1.95-1.95,3.96-3.96,3.96-4.91,0-.56-.18-.87-.54-.92Z"/>
      <path class="cls-3" d="m113.9,120.88c.48-.72.98-1.47,1.48-1.98v-.82c-.9.08-1.83,1.07-2.76,2.92-.84,1.26-1.45,2.18-1.49,2.42.17-.01.72-.29,1.3-.58.49-.49.99-1.24,1.47-1.97Z"/>
      <path class="cls-4" d="m66.38,86.95v-3.12h.12c.9,0,1.88-.9,1.88-2.88,0-.42,0-.82-.3-1.05-.46-.36-1.62-.3-3.55.18q-4.95,0-7.92,5.93c-1.9,2.86-2.93,5.76-2.98,6.86.4.16,2.47.84,6.85-.04h8.02s.12,0,.12,0v.12c0,.48-.58,1.5-1.47,3.04-1.03,1.8-2.44,4.26-3.54,7.01-2.73,4.56-3.63,7.16-3.31,7.73.03.06.08.09.14.1.48-.49,5.19-5.3,8.95-10.94,1.09-1.39,2.08-2.63,2.95-3.74,4.15-5.24,6.04-7.63,5.65-8.31-.26-.45-1.68-.26-3.84.03-.5.07-1.05.14-1.64.22h-.02c-6.01,0-6.12,0-6.12-1.12Z"/>
      <path class="cls-2" d="m128.38,57.95c0-7.22-1.15-10-4.93-11.89-3.07-2.04-5.58-2.77-7.69-2.2-1.99.53-3.68,2.21-5.14,5.15l-.02.03c-.33.33-.66.77-.99,1.21-.7.94-1.37,1.83-2.1,1.83-.03,0-2.97.02-4.91,1.96l-.05.03c-3.02,1.01-4.03,1.01-7.04,1.01h-.06c-4.28-2.15-6.03-5.31-5.07-9.16.51-1.53,1.5-2.8,2.81-3.58,1.36-.81,2.9-1,4.35-.51h.03c1.94,1.31,3.22,3.14,2.79,4.02-.16.33-.62.64-1.89.22-2.96-.59-4.19-.84-4.6-.5-.24.2-.24.64-.24,1.38-.39,1.98-.02,3.49,1.08,4.38,1.66,1.35,4.85,1.17,8.74-.5,5.05-2.02,6.92-4.97,6.92-10.88,0-7.82-5.84-12.88-14.88-12.88-6.3-.9-9.76,1.29-10.88,6.9-.99,8.89-8.85,15.1-19.12,15.1-4.03,0-6.06,0-7.1-2.04-3.13-2.12-3.98-9.3-3.02-13.12,1.12-5.03,6.25-7.25,10.52-6.78,4.08.45,6.72,3.12,6.72,6.81,0,2.57-.8,4.57-2.25,5.61-1.1.79-2.49.97-3.89.51-1.07-.01-2.1-1.06-2.1-2.12v-.12h1.16c1.19.4,2.28.18,3.07-.62.99-.99,1.29-2.65.77-4.22-.9-1.79-2.77-2.91-4.88-2.91s-3.98,1.12-4.89,2.93l-.02.03c-3.03,3.03-2.91,5.02-.97,9.86.68,2.05,2.12,3.48,4.15,4.14,3.47,1.13,8.32-.1,12.66-3.2,4.8-3.84,6.95-6.76,6.95-13.9,0-8.05-2.01-12.95-6.95-16.9-4.97-5.96-10-7.97-19.92-7.97h-.02q-7.96-1-13.93,1.99c-8.62,4.79-13.84,9.68-15.94,14.94-1.54,3.86-1.28,7.58-.24,9.11.32.47.71.72,1.12.72,2.97,0,10.07,3.99,12.11,8.07,2.01,3.01,2.01,5.09,0,10.1-.53,3.19-1.66,5.39-3.35,6.5-1.3.85-2.92,1.05-4.8.58-7.06-1.01-7.08-1.07-8.09-4.08-.6-3-.16-5.49,1.18-6.67.8-.7,1.82-.88,2.96-.5,2.1,0,3.07,1.07,3.1,2.07.34.34.45.59.37.79-.16.39-.99.39-2.49.39h-.06c-.71-.37-1.69-.8-2.04-.49-.29.25-.22,1.04.21,2.33v.04c0,2.02,1.08,2.96,2.92,3.88,2.29.45,4.29.04,5.8-1.19,1.99-1.63,3.04-4.63,3.04-8.69s-4-8.92-8.92-10.88c-7.02-2.01-18.98,2.16-22.85,7.95-2.66,3.99-1.73,12.43.88,17.31,1.21,2.25,2.63,3.49,4.02,3.49,4.73,0,7.12,1.39,7.12,4.12,0,2.32-.67,4.01-1.85,4.64-.92.49-2.08.31-3.35-.54-1.22-.61-1.76-1.62-1.49-2.17.1-.2.31-.32.58-.33.28-.02.61.08,1,.27.82-.02,1.66-.76,1.85-.93-.02-1.05-.73-1.82-1.94-2.11-.31-.07-.64-.11-.98-.11-1.18,0-2.4.44-2.84,1.32l-.02.03c-1.94,1.94-1.94,5.88,0,7.82l.02.03c.97,1.93,3.45,1.93,44.89,1.93,26.28,0,48.09-1.02,53.98-2l8.75-.97-2.82-2.82c-2.04-2.04-2.04-3.06-2.04-5.09.6-2.42,2.56-3.67,4.18-3.67,1.51,0,2.66.99,3.07,2.64.5,1,.26,2.25-.22,2.92-.27.37-.61.55-.93.5-.31-.05-.74-.32-1.08-1.35v-.04c0-.82-.71-.88-1.88-.88-.21,0-.37.11-.46.32-.27.66.18,2.1,1.54,3.46,1.65,1.32,3.75,1.48,5.91.44,3.42-1.64,6.87-6.41,6.87-12.35Z"/>
      <path class="cls-3" d="m69.4,134.88c.5-1,.8-1.6.72-1.73-.04-.07-.32-.07-.61-.07-.93,0-1.88.95-1.88,1.88v.04l-.02.03c-1.2,1.8-1.01,2.05-1.01,2.05.08.07.78-.17,2.8-2.19Z"/>
      <path class="cls-3" d="m113.72,90.6s-.05-.02-.09-.02c-.26,0-.93.36-2.03,1.46-.74.74-.91,1.48-.95,1.78.9-.09,1.85-1.03,2.76-1.94.43-.88.4-1.22.32-1.28Z"/>
      <path class="cls-3" d="m86.56,107.07h-.05c-.79,0-.87.66-.88,1.75h.82c.91-.91,1.83-1.84,1.92-2.74-.29.04-1.04.21-1.78.95l-.04.04Z"/>
      <path class="cls-3" d="m101.57,86.01c-1.59,0-4.94,2.77-4.94,4.94v.05l-.04.04c-.14.14-.2.24-.22.3-.02.07,0,.09,0,.09.18.19,1.55-.08,3.04-1.57.34-.34.8-.68,1.24-1.01.85-.64,1.73-1.3,1.73-1.9,0-.33-.08-.57-.22-.73-.13-.14-.33-.21-.59-.21Z"/>
      <path class="cls-1" d="m24.51,122.32c-.79,0-1.68,0-5.75,6.51-1.77,2.83-3.87,6.53-3.87,8.11,0,1.14.89,2.28,2.88,2.28,1.33,0,3.32-.56,4.89-2.13,2-2,3.2-3.4,3.43-4.69,1.65-3.49,1.42-7.18.37-8.88-.65-1.05-1.5-1.21-1.95-1.21Zm-1.12,7.58c-.68,1.37-2.2,3.5-2.83,4.22.02-.04.04-.08.06-.12v-.06c.01-1,.01-1.95,1.99-3.93.63-.95,1.13-1.69,1.39-2.02-.09.36-.33,1.07-.61,1.9Z"/>
      <path class="cls-1" d="m29.07,91.74c-.35-1.33-1.28-2.42-2.68-3.17-.33-.23-.72-.35-1.12-.35-.51,0-1.88,0-4.73,4.04-.8,1.13-2.65,3.94-2.65,5.69,0,1.86,1.25,3.11,3.11,3.11,2.24,0,5.32-1.89,6.87-4.21,1.22-1.83,1.62-3.55,1.21-5.11Zm-5.63,5.11c-.59.29-1.03.32-1.21.08-.31-.43.13-1.65,1.37-2.89l.02-.03c.33-.65.59-1.18.73-1.37.03.21.03.73.03,1.31,0,1,0,1.94-.95,2.9Z"/>
      <path class="cls-1" d="m38.66,101.7c-.84,0-1.75.25-2.77.75-2,.71-3.7,2.46-4.42,4.58-.65,1.9-.46,3.94.54,5.58.63,2.28,1.73,3.44,3.28,3.44,1.73,0,3.41-1.57,5.62-5.26l.07-.12.05-.11c.92-2.31,1.75-5.48.42-7.44-.62-.91-1.6-1.41-2.78-1.41Zm-.17,6.28c-.33.54-.71,1.14-1.09,1.9l-1.77,1.77v-4.64c.19-.17,1.04-.93,1.88-.93h1.87c-.05.54-.41,1.12-.89,1.9Z"/>
      <path class="cls-1" d="m65.55,142.04c1.29,0,2.82-.84,6.1-4.93,3.95-3.19,6.59-6.82,6.72-9.23.03-.58-.07-1.1-.32-1.55-.25-.99-1.07-1.43-1.78-1.43-.95,0-1.7.67-2.73,1.7-.42.2-.81.36-1.18.49-.88-.77-2.27-.77-2.87-.77h-.35l-.37.17c-2.69,1.34-5.9,9.05-5.9,11.45,0,1.53.35,4.09,2.67,4.09Zm2.06-7.02l.02-.03v-.04c0-.93.95-1.88,1.88-1.88.29,0,.57,0,.61.07.08.13-.22.73-.72,1.73-2.03,2.02-2.72,2.26-2.8,2.19,0,0-.19-.25,1.01-2.05Z"/>
      <path class="cls-1" d="m110.98,128.06c3.15,0,7.33-5.06,8.13-9.84.63-3.14.53-4.86-.35-5.94-.49-.6-1.2-.93-2-.93-.85,0-1.8.36-2.97,1.12-3.65,1.39-5.9,7.04-5.9,11.47,0,3.91,2.58,4.11,3.1,4.11Zm1.64-7.05c.93-1.86,1.86-2.84,2.76-2.92v.82c-.5.51-1,1.26-1.48,1.98-.48.73-.98,1.48-1.47,1.97-.58.29-1.13.57-1.3.58.03-.24.65-1.16,1.49-2.42Z"/>
      <path class="cls-1" d="m124.13,75.95c0-.34.62-1.95,2.52-3.85,3.03-3.03,5.43-5.43,5.47-10,1.14-7-.23-13.21-3.86-17.5-2.88-3.4-7.06-5.27-11.76-5.27q-1.53,0-2.2-2.08c-.07-.23-.15-.48-.24-.72-1.97-8.7-9.16-14.32-18.31-14.32-.78,0-1.57.04-2.34.13-2.72.02-5.65.77-7.34,1.89-.17-.22-.55-.88-1-2.66l-.02-.07c-3.09-10.31-10.33-16.88-22.13-20.1-3.32-.91-6.64-1.37-9.87-1.38h-.25c-8.25.03-15.99,3.05-22.38,8.73-6.51,5.43-9.55,10.9-9.55,17.22v3.67l-3.54.71c-2.32.05-5.47,1.12-7.57,2.17l-.22.11-.2.19c-.38.38-1.08.84-1.75,1.3-.7.47-1.43.95-2.01,1.48-1.94.92-3.55,3.09-4.54,6.1-1.62,4.95-1.68,13.02,1.99,19,1.66,4.14,1.73,4.32,1.03,6.42-2.04,2.24-1.38,3.96-.62,5.97v.04c.17.4.34.86.51,1.37,1.79,5.36,4.6,7.45,10.03,7.45,1.3,0,2.8-.11,4.71-.35l.12-.02c2.12-.42,10.21-.72,19.68-.72,8.45,0,13.57.23,15.46.44-.44,1.61-2.28,5.4-4.77,8.71l-.09.13-.06.12c-2.28,4.57-2.9,6.31-2.08,7.65.24.39.82,1.04,2.01,1.04.53,0,1.16-.13,2.03-.42,1.75-.58,7.37-1.29,10.51-1.33-.14.38-.3.81-.45,1.21-.33.86-.7,1.83-1.07,2.95-.25.5-.58,1.22-1,2.14l-.06.14c-1.35,2.93-3.62,7.84-5.83,11.52l-.06.11c-1.79,3.58-5.17,10.84-5.17,12.73,0,1.55,1.04,2.25,2.01,2.25,2.22,0,5.32-4.6,6.96-7.34,1.19-1.59,2.36-3.3,3.49-4.96,1.65-2.42,3.21-4.7,4.31-5.8,1.15-1.16,5.4-6.51,8.15-10.17,5.75-7.67,7.81-9.21,8.43-9.52l.22-.11.21-.19c2.45-2.45,4.96-6.12,4.01-8.43-.39-.94-1.26-1.5-2.34-1.5-.35,0-.72.06-1.09.17-.49.04-1.09.16-1.87.33-1.32.28-3.13.66-4.86.66h-.15s-.12.02-.12.02c-1.31.22-2.37.34-3.15.35.16-.18.35-.38.57-.6l.12-.12.08-.12c1.43-2.15,1.52-2.28,14.65-2.28h.06c12.08-.48,21.15-.99,26.95-1.51,8.35-.74,9.61-1.36,9.61-3.12Zm-51.62,12.12h.02c.59-.08,1.14-.15,1.64-.22,2.16-.29,3.58-.48,3.84-.03.39.69-1.5,3.08-5.65,8.31-.88,1.11-1.86,2.35-2.95,3.74-3.76,5.64-8.46,10.45-8.95,10.94-.06,0-.11-.04-.14-.1-.32-.57.57-3.17,3.31-7.73,1.1-2.75,2.51-5.21,3.54-7.01.88-1.54,1.47-2.56,1.47-3.04v-.12h-8.15c-4.38.88-6.45.2-6.85.04.05-1.1,1.08-4.01,2.98-6.86q2.97-5.93,7.92-5.93c1.92-.48,3.08-.54,3.55-.18.3.23.3.63.3,1.05,0,1.98-.97,2.88-1.88,2.88h-.12v3.12c0,1.12.12,1.12,6.12,1.12Zm15.06-7.63h0s0,0,0,0Zm28.03-10.59c-1.37-1.37-1.82-2.81-1.54-3.46.09-.21.24-.32.46-.32,1.17,0,1.88.06,1.88.88v.04c.35,1.03.79,1.3,1.09,1.35.32.05.66-.12.93-.5.49-.67.73-1.92.22-2.92-.41-1.65-1.56-2.64-3.07-2.64-1.62,0-3.58,1.25-4.18,3.67,0,2.03,0,3.05,2.04,5.09l2.82,2.82-8.75.97c-5.89.98-27.7,2-53.98,2-41.44,0-43.92,0-44.89-1.93l-.02-.03c-1.94-1.94-1.94-5.88,0-7.82l.02-.03c.44-.88,1.67-1.32,2.84-1.32.34,0,.67.04.98.11,1.21.29,1.91,1.05,1.94,2.11-.18.17-1.02.91-1.85.93-.39-.19-.72-.29-1-.27-.28.01-.48.13-.58.33-.27.55.26,1.56,1.49,2.17,1.27.84,2.42,1.03,3.35.54,1.17-.63,1.85-2.32,1.85-4.64,0-2.74-2.4-4.12-7.12-4.12-1.38,0-2.81-1.24-4.02-3.49-2.61-4.88-3.54-13.32-.88-17.31,3.87-5.8,15.83-9.96,22.85-7.95,4.92,1.97,8.92,6.85,8.92,10.88s-1.05,7.06-3.04,8.69c-1.5,1.23-3.51,1.64-5.8,1.19-1.85-.93-2.92-1.86-2.92-3.88v-.04c-.44-1.29-.51-2.08-.22-2.33.35-.3,1.33.13,2.04.48h.06c1.5.01,2.33.01,2.49-.37.08-.2-.03-.45-.37-.79-.03-1.01-1.01-2.07-3.1-2.07-1.14-.38-2.17-.2-2.96.5-1.34,1.18-1.78,3.67-1.18,6.67,1,3.02,1.02,3.07,8.09,4.08,1.88.47,3.5.28,4.8-.58,1.69-1.11,2.82-3.3,3.35-6.5,2-5.01,2-7.09,0-10.1-2.04-4.08-9.14-8.07-12.11-8.07-.42,0-.8-.25-1.12-.72-1.04-1.53-1.31-5.25.24-9.11,2.1-5.26,7.32-10.15,15.94-14.94q5.97-2.98,13.93-1.99h.02c9.92,0,14.95,2.01,19.92,7.97,4.94,3.95,6.95,8.85,6.95,16.9,0,7.14-2.14,10.06-6.95,13.9-4.34,3.1-9.19,4.32-12.66,3.2-2.03-.66-3.46-2.09-4.15-4.14-1.94-4.84-2.06-6.84.97-9.86l.02-.03c.9-1.81,2.78-2.93,4.89-2.93s3.98,1.12,4.88,2.91c.52,1.57.22,3.23-.77,4.22-.8.8-1.89,1.02-3.07.62h-1.16s0,.12,0,.12c0,1.07,1.04,2.11,2.1,2.12,1.41.46,2.79.28,3.89-.51,1.45-1.05,2.25-3.04,2.25-5.61,0-3.69-2.64-6.36-6.72-6.81-4.27-.47-9.41,1.75-10.52,6.78-.96,3.82-.1,10.99,3.02,13.12,1.04,2.04,3.07,2.04,7.1,2.04,10.27,0,18.14-6.21,19.12-15.1,1.12-5.61,4.57-7.8,10.88-6.9,9.04,0,14.88,5.05,14.88,12.88,0,5.92-1.88,8.87-6.92,10.88-3.89,1.67-7.08,1.85-8.74.5-1.1-.9-1.48-2.4-1.08-4.38,0-.74,0-1.18.24-1.38.41-.34,1.64-.09,4.6.5,1.27.43,1.73.12,1.89-.22.43-.88-.85-2.71-2.79-4.01h-.03c-1.45-.5-3-.32-4.35.5-1.3.78-2.3,2.05-2.81,3.58-.96,3.84.79,7,5.07,9.14h.06c3.01.01,4.02.01,7.04-.99l.05-.03c1.94-1.94,4.88-1.96,4.91-1.96.73,0,1.4-.89,2.1-1.83.33-.43.66-.88.99-1.21l.02-.03c1.47-2.93,3.15-4.62,5.14-5.15,2.11-.56,4.62.16,7.69,2.2,3.78,1.89,4.93,4.67,4.93,11.89,0,5.94-3.46,10.71-6.87,12.35-2.16,1.04-4.27.88-5.91-.44Z"/>
      <path class="cls-1" d="m109.51,98.57c3.85,0,7.36-4.6,8.53-9.06.55-1.14,1.03-2.45.36-3.53-.24-.39-.84-1.05-2.09-1.05-.56,0-1.22.13-2.07.39-4.65.1-7.26,2.71-7.36,7.35-.61,1.87-1.04,3.51-.15,4.75.83,1.15,2.29,1.15,2.78,1.15Zm2.09-6.54c1.1-1.1,1.77-1.46,2.03-1.46.04,0,.07,0,.09.02.09.06.12.4-.32,1.28-.91.92-1.86,1.85-2.76,1.94.04-.29.21-1.04.95-1.78Z"/>
      <path class="cls-1" d="m100.7,112.2c-.47,0-.98.05-1.51.16l-.08.02c-3.32.83-6.45,5.19-7.43,8.76-.72,2.59-.13,4.02.48,4.74.96,1.75,2.36,2.01,3.11,2.01,1.71,0,3.5-1.27,5.47-3.87,3.38-3.41,4.85-7.06,3.83-9.51-.61-1.47-2.02-2.31-3.86-2.31Zm-2.28,8.66l-2.62,2.63.84-2.51c.76-3.03,3.79-5.95,5.12-5.95.03,0,.07,0,.1,0,.36.04.54.35.54.92,0,.95-2.01,2.96-3.96,4.91Z"/>
      <path class="cls-1" d="m87.78,100.5l-.14.07-.11.08c-4.17,3.13-5.65,5.56-5.65,9.3,0,.9,0,3.62,2.62,3.62,3.06,0,5.94-4.28,6.75-5.59.96-1.55,2.48-4.45,1.85-6.39-.15-1.21-1.1-2.02-2.35-2.02-.77,0-1.72.29-2.98.92Zm-1.33,8.33h-.82c0-1.09.09-1.75.88-1.75h.05l.04-.04c.74-.74,1.48-.91,1.78-.95-.09.9-1.01,1.83-1.92,2.74Z"/>
      <path class="cls-1" d="m105.35,84.73c-.63-1.53-2.18-2.44-4.13-2.44-1.35,0-2.84.41-4.44,1.21-1.25.63-2.81,2.38-3.88,4.37-1.24,2.3-1.54,4.42-.85,5.81l.11.22.2.21c.93.93,2.6,1.07,3.51,1.07,2.25,0,5.25-.84,6.89-3.17,2.51-2.55,3.45-5.2,2.6-7.27Zm-4.7,4.12c-.44.33-.9.67-1.24,1.01-1.49,1.49-2.86,1.76-3.04,1.57,0,0-.03-.03,0-.09.02-.06.07-.15.22-.3l.04-.04v-.05c0-2.17,3.35-4.94,4.94-4.94.26,0,.45.07.59.21.15.16.22.4.22.73,0,.6-.88,1.26-1.73,1.9Z"/>
    </g>
  </g>
</svg>