<svg width="609" height="144" viewBox="0 0 609 144" fill="none" xmlns="http://www.w3.org/2000/svg">
<path d="M229.669 102.742C227.581 102.742 225.877 102.302 224.558 101.423C223.294 100.543 222.222 99.1419 221.343 97.2182L201.391 53.1927C200.511 51.269 200.237 49.5376 200.566 47.9987C200.896 46.4597 201.666 45.278 202.875 44.4535C204.084 43.5741 205.596 43.1344 207.409 43.1344C209.663 43.1344 211.339 43.6291 212.439 44.6184C213.593 45.6078 214.582 47.0643 215.407 48.988L232.225 87.9019H227.608L244.427 48.9055C245.252 46.9818 246.241 45.5528 247.395 44.6184C248.549 43.6291 250.171 43.1344 252.259 43.1344C253.963 43.1344 255.392 43.5741 256.546 44.4535C257.701 45.278 258.415 46.4597 258.69 47.9987C259.02 49.5376 258.745 51.269 257.866 53.1927L237.832 97.2182C237.007 99.1419 235.963 100.543 234.699 101.423C233.434 102.302 231.758 102.742 229.669 102.742ZM262.712 102.742C261.008 102.742 259.579 102.357 258.425 101.588C257.27 100.763 256.556 99.6641 256.281 98.29C256.006 96.8609 256.254 95.267 257.023 93.5082L277.552 49.3178C278.541 47.1742 279.75 45.6078 281.179 44.6184C282.663 43.6291 284.34 43.1344 286.209 43.1344C288.077 43.1344 289.699 43.6291 291.073 44.6184C292.502 45.6078 293.739 47.1742 294.783 49.3178L315.312 93.5082C316.191 95.267 316.493 96.8609 316.218 98.29C315.999 99.719 315.312 100.818 314.157 101.588C313.058 102.357 311.684 102.742 310.035 102.742C307.837 102.742 306.133 102.247 304.924 101.258C303.769 100.269 302.725 98.6747 301.791 96.4762L297.339 86.0057L303.11 90.2104H269.142L274.996 86.0057L270.544 96.4762C269.555 98.6747 268.538 100.269 267.494 101.258C266.449 102.247 264.855 102.742 262.712 102.742ZM286.044 59.7058L276.48 82.543L274.172 78.5857H298.163L295.855 82.543L286.209 59.7058H286.044ZM329.962 102.742C327.653 102.742 325.894 102.137 324.685 100.928C323.476 99.719 322.871 97.9327 322.871 95.5693V50.6369C322.871 48.2185 323.476 46.3772 324.685 45.1131C325.894 43.794 327.488 43.1344 329.467 43.1344C331.226 43.1344 332.6 43.4642 333.589 44.1237C334.579 44.7833 335.678 45.8826 336.887 47.4215L363.022 80.0697H360.714V50.2247C360.714 47.9162 361.291 46.1574 362.445 44.9482C363.654 43.739 365.413 43.1344 367.721 43.1344C370.03 43.1344 371.761 43.739 372.915 44.9482C374.125 46.1574 374.729 47.9162 374.729 50.2247V95.8991C374.729 97.9877 374.18 99.6641 373.08 100.928C371.981 102.137 370.497 102.742 368.628 102.742C366.759 102.742 365.275 102.412 364.176 101.753C363.132 101.038 362.005 99.9389 360.796 98.4549L334.661 65.7243H336.969V95.5693C336.969 97.9327 336.365 99.719 335.156 100.928C334.001 102.137 332.27 102.742 329.962 102.742ZM392.934 102.742C390.516 102.742 388.647 102.082 387.328 100.763C386.009 99.3892 385.349 97.493 385.349 95.0746V51.5438C385.349 49.0704 386.009 47.1742 387.328 45.8551C388.702 44.536 390.598 43.8764 393.016 43.8764H413.298C419.893 43.8764 424.978 45.5803 428.55 48.988C432.178 52.3407 433.992 56.9851 433.992 62.9212C433.992 68.8572 432.178 73.5291 428.55 76.9368C424.978 80.2895 419.893 81.9659 413.298 81.9659H400.519V95.0746C400.519 97.493 399.887 99.3892 398.623 100.763C397.359 102.082 395.462 102.742 392.934 102.742ZM400.519 70.3412H410.66C413.518 70.3412 415.716 69.7366 417.255 68.5274C418.794 67.2633 419.564 65.3945 419.564 62.9212C419.564 60.3929 418.794 58.5241 417.255 57.3149C415.716 56.1057 413.518 55.5011 410.66 55.5011H400.519V70.3412ZM448.731 102C446.313 102 444.416 101.34 443.042 100.021C441.723 98.6472 441.064 96.751 441.064 94.3326V51.4613C441.064 48.988 441.723 47.0918 443.042 45.7726C444.362 44.4535 446.23 43.794 448.649 43.794C451.122 43.794 452.991 44.4535 454.255 45.7726C455.574 47.0918 456.234 48.988 456.234 51.4613V89.3859H476.35C478.439 89.3859 480.033 89.9356 481.132 91.0348C482.286 92.0791 482.863 93.6181 482.863 95.6517C482.863 97.6854 482.286 99.2518 481.132 100.351C480.033 101.45 478.439 102 476.35 102H448.731ZM491.287 102.742C489.583 102.742 488.154 102.357 487 101.588C485.845 100.763 485.131 99.6641 484.856 98.29C484.581 96.8609 484.829 95.267 485.598 93.5082L506.127 49.3178C507.116 47.1742 508.325 45.6078 509.754 44.6184C511.238 43.6291 512.915 43.1344 514.784 43.1344C516.652 43.1344 518.274 43.6291 519.648 44.6184C521.077 45.6078 522.314 47.1742 523.358 49.3178L543.887 93.5082C544.766 95.267 545.068 96.8609 544.793 98.29C544.574 99.719 543.887 100.818 542.732 101.588C541.633 102.357 540.259 102.742 538.61 102.742C536.412 102.742 534.708 102.247 533.499 101.258C532.344 100.269 531.3 98.6747 530.366 96.4762L525.914 86.0057L531.685 90.2104H497.717L503.571 86.0057L499.119 96.4762C498.13 98.6747 497.113 100.269 496.069 101.258C495.024 102.247 493.43 102.742 491.287 102.742ZM514.619 59.7058L505.055 82.543L502.747 78.5857H526.738L524.43 82.543L514.784 59.7058H514.619ZM558.537 102.742C556.228 102.742 554.469 102.137 553.26 100.928C552.051 99.719 551.446 97.9327 551.446 95.5693V50.6369C551.446 48.2185 552.051 46.3772 553.26 45.1131C554.469 43.794 556.063 43.1344 558.042 43.1344C559.801 43.1344 561.175 43.4642 562.164 44.1237C563.154 44.7833 564.253 45.8826 565.462 47.4215L591.597 80.0697H589.289V50.2247C589.289 47.9162 589.866 46.1574 591.02 44.9482C592.229 43.739 593.988 43.1344 596.296 43.1344C598.605 43.1344 600.336 43.739 601.49 44.9482C602.7 46.1574 603.304 47.9162 603.304 50.2247V95.8991C603.304 97.9877 602.755 99.6641 601.655 100.928C600.556 102.137 599.072 102.742 597.203 102.742C595.334 102.742 593.85 102.412 592.751 101.753C591.707 101.038 590.58 99.9389 589.371 98.4549L563.236 65.7243H565.544V95.5693C565.544 97.9327 564.94 99.719 563.731 100.928C562.576 102.137 560.845 102.742 558.537 102.742Z" fill="url(#paint0_linear_210_158)"/>
<path fill-rule="evenodd" clip-rule="evenodd" d="M116.906 19.929C136.857 19.929 153.1 35.7572 153.787 55.5411H153.785C159.347 59.5152 165 67.9316 165 75.2883C165 88.6227 152.865 94.1669 144.212 94.3542C141.631 94.2513 134.104 94.2789 124.182 94.3542C117.289 94.4056 34.2771 94.9529 21.3908 94.3542C8.50453 93.7555 0 81.8811 0 69.5219C0 54.2134 9.00404 43.5107 23.5468 40.8588C26.5034 17.8134 46.1772 0 70.0269 0C86.261 0 100.565 8.25294 108.978 20.7921C111.532 20.232 114.184 19.929 116.906 19.929ZM49.1797 108.071C46.4361 106.721 40.3703 109.446 35.0024 113.359C30.9311 116.329 27.26 119.982 25.745 123.061C22.2319 130.201 25.1738 138.838 32.3139 142.351C39.454 145.864 48.0907 142.922 51.6038 135.782C53.1189 132.703 53.7727 127.566 53.6404 122.529C53.466 115.886 51.9215 109.418 49.1779 108.071H49.1797ZM43.6172 131.041C42.3629 133.591 39.2777 134.642 36.725 133.388C34.1742 132.133 33.1238 129.048 34.3781 126.495C35.6323 123.945 38.7176 122.894 41.2702 124.149C43.821 125.403 44.8714 128.488 43.6172 131.041ZM77.5306 113.359C82.8985 109.446 88.9643 106.721 91.7079 108.071H91.7061C94.4497 109.418 95.9941 115.886 96.1686 122.529C96.3008 127.566 95.647 132.703 94.132 135.782C90.6189 142.922 81.9821 145.864 74.8421 142.351C67.702 138.838 64.76 130.201 68.2731 123.061C69.7882 119.982 73.4592 116.329 77.5306 113.359ZM79.2532 133.388C81.8058 134.642 84.8911 133.591 86.1453 131.041C87.3996 128.488 86.3492 125.403 83.7984 124.149C81.2457 122.894 78.1605 123.945 76.9062 126.495C75.6519 129.048 76.7024 132.133 79.2532 133.388ZM120.061 113.359C125.428 109.446 131.494 106.721 134.238 108.071H134.236C136.98 109.418 138.524 115.886 138.699 122.529C138.831 127.566 138.177 132.703 136.662 135.782C133.149 142.922 124.512 145.864 117.372 142.351C110.232 138.838 107.29 130.201 110.803 123.061C112.318 119.982 115.989 116.329 120.061 113.359ZM121.783 133.388C124.336 134.642 127.421 133.591 128.675 131.041C129.93 128.488 128.879 125.403 126.328 124.149C123.776 122.894 120.69 123.945 119.436 126.495C118.182 129.048 119.231 132.133 121.783 133.388Z" fill="url(#paint1_linear_210_158)"/>
<defs>
<linearGradient id="paint0_linear_210_158" x1="177.879" y1="14.9994" x2="203.201" y2="196.171" gradientUnits="userSpaceOnUse">
<stop stop-color="#8AD7D9"/>
<stop offset="0.5" stop-color="#C8CA62"/>
<stop offset="1" stop-color="#F4B0A7"/>
</linearGradient>
<linearGradient id="paint1_linear_210_158" x1="-8.5" y1="-5.13772" x2="79.7457" y2="192.716" gradientUnits="userSpaceOnUse">
<stop stop-color="#8AD7D9"/>
<stop offset="0.5" stop-color="#C8CA62"/>
<stop offset="1" stop-color="#F4B0A7"/>
</linearGradient>
</defs>
</svg>
