<svg width="673" height="654" viewBox="0 0 673 654" fill="none" xmlns="http://www.w3.org/2000/svg">
<g clip-path="url(#clip0_76_737)">
<path d="M218.329 305.722C228.622 357.182 241.906 426.115 243.222 433.655C248.129 462.018 240.589 516.351 160.885 625.016L132.283 615.921L184.581 460.941C158.97 416.541 146.763 366.996 147.841 316.971C171.297 313.142 194.873 309.432 218.329 305.722Z" fill="#CA8551"/>
<path d="M251.719 305.722C318.258 387.46 365.052 483.44 388.508 586.241C378.096 589.951 367.684 593.541 357.273 597.251C337.407 555.604 317.54 514.077 297.674 472.43C263.088 434.373 228.502 396.436 193.916 358.379C213.183 340.906 232.451 323.314 251.719 305.722Z" fill="#CA8551"/>
<path d="M134.556 609.34C134.556 609.34 119.717 629.804 115.289 651.346H201.814C201.814 651.346 202.173 633.155 182.666 630.403C163.159 627.65 160.287 618.914 160.287 618.914L134.556 609.34Z" fill="#570B7F"/>
<path d="M353.682 584.926L366.368 626.453C392.816 618.076 418.427 606.109 442.362 590.192C433.626 581.336 426.325 579.182 421.179 578.942C409.332 578.224 402.271 586.841 392.338 583.849C386.474 582.054 382.764 577.027 380.609 573.317C371.753 577.267 362.658 581.096 353.682 584.926Z" fill="#570B7F"/>
<path d="M162.201 201.963C162.68 202.442 166.27 205.912 171.775 205.194C177.28 204.476 180.033 200.048 180.272 199.569C178.118 192.03 175.844 184.49 173.69 176.831L162.68 178.267L162.201 201.963Z" fill="#CA8551"/>
<path d="M143.652 347.13C143.652 347.13 135.395 383.871 171.297 456.035L135.395 568.291L208.277 589.713C208.277 589.713 248.009 503.187 253.275 482.483C258.66 461.779 253.275 435.331 253.275 435.331C260.934 447.777 268.474 460.104 276.133 472.55C290.015 503.187 303.898 533.944 317.9 564.581C341.476 552.494 364.932 540.406 388.508 528.319C347.819 430.903 307.488 379.682 265.482 317.331L143.652 347.13Z" fill="#FF9100"/>
<path d="M163.278 182.338C163.039 181.38 162.919 180.423 162.68 179.465L174.049 177.91C175.126 181.5 176.203 185.21 177.28 188.8C176.203 189.279 174.169 189.877 171.775 189.518C166.031 188.8 163.398 182.816 163.278 182.338Z" fill="#9D5B28"/>
<path d="M167.466 179.944C174.737 179.944 180.631 174.05 180.631 166.78C180.631 159.509 174.737 153.615 167.466 153.615C160.196 153.615 154.302 159.509 154.302 166.78C154.302 174.05 160.196 179.944 167.466 179.944Z" fill="#CA8551"/>
<path d="M180.273 163.549C180.871 166.062 181.23 168.216 181.589 169.892C182.546 174.798 182.666 176.115 182.427 177.671C182.307 178.748 181.948 180.662 180.632 182.338C177.64 186.287 170.818 186.407 166.39 184.971C161.484 183.295 158.851 179.585 157.893 178.03C157.893 178.03 157.295 177.072 154.782 170.131C169.981 166.182 164.116 167.618 180.273 163.549Z" fill="#CA8551"/>
<path d="M180.272 199.569L268.353 183.891L199.779 153.614L212.704 135.662C272.662 131.115 313.83 162.11 314.548 185.806C315.266 208.186 280.201 238.464 227.304 243.37L180.272 199.569Z" fill="#CA8551"/>
<path d="M145.208 230.804C140.301 271.973 135.275 313.021 130.368 354.19C179.914 377.766 239.392 365.559 275.415 323.672C250.762 287.291 229.938 247.319 213.782 204.117C202.652 202.561 191.522 201.125 180.392 199.569L162.321 201.962C156.577 211.536 150.832 221.23 145.208 230.804Z" fill="#FFF3FF"/>
<path d="M162.201 201.963C162.201 201.963 138.027 209.503 125.581 241.456C113.134 273.41 103.8 310.389 120.195 331.931C136.591 353.473 208.276 363.286 208.276 363.286L212.704 342.822L154.063 307.039C154.183 307.158 180.631 220.274 162.201 201.963Z" fill="#CA8551"/>
<path d="M168.544 199.331C147.003 200.169 132.881 226.617 130.727 230.806C130.727 230.806 158.013 251.031 164.356 273.769C171.656 257.852 175.964 244.209 178.717 234.635C184.461 213.812 184.82 206.751 180.871 202.682C177.161 198.972 171.297 199.211 168.544 199.331Z" fill="#FFF3FF"/>
<path d="M167.108 201.364C182.785 197.175 199.301 194.303 216.534 193.106C223.236 214.528 230.057 235.95 236.759 257.253L194.992 246.362C185.777 231.283 176.443 216.324 167.108 201.364Z" fill="#FFF3FF"/>
<path d="M191.762 353.593C191.762 353.593 194.036 367.834 209.594 369.988C209.594 369.988 202.293 374.057 205.285 376.211C208.277 378.366 216.295 371.903 216.295 371.903C216.295 371.903 211.149 378.007 214.62 378.126C218.091 378.246 223.955 371.185 223.955 371.185C223.955 371.185 220.364 377.648 222.997 378.126C225.63 378.605 229.579 373.339 231.853 368.552C231.853 368.552 227.784 379.682 231.853 378.126C235.922 376.57 242.504 365.201 238.794 356.824C235.085 348.447 200.379 337.317 200.379 337.317L191.762 353.593Z" fill="#CA8551"/>
<path d="M158.491 171.566C158.491 171.566 162.56 171.805 160.167 160.676C160.167 160.676 163.398 154.333 168.664 159.718C173.929 165.104 176.442 159.838 176.442 159.838C176.442 159.838 178.836 160.077 180.392 163.548C180.392 163.548 190.923 158.641 187.812 147.87C184.7 137.1 177.759 141.647 175.605 143.682C173.57 145.716 174.887 142.724 169.621 140.929C164.355 139.134 162.799 141.887 161.004 145.118C159.209 148.229 156.696 144.759 152.029 146.674C147.481 148.588 148.678 157.564 148.678 157.564C148.678 157.564 136.59 164.745 143.771 169.292C150.952 173.84 147.481 171.446 149.037 176.951C150.592 182.576 162.44 189.757 162.44 189.757C162.44 189.757 168.544 176.951 158.491 171.566Z" fill="#570B7F"/>
<path d="M161.894 178.833C163.981 177.32 164.07 173.88 162.091 171.15C160.113 168.419 156.816 167.433 154.728 168.946C152.64 170.459 152.552 173.899 154.53 176.629C156.509 179.36 159.806 180.347 161.894 178.833Z" fill="#CA8551"/>
<path d="M157.534 174.079C157.534 173.481 158.013 172.882 158.85 172.763C158.372 172.164 157.055 170.968 156.696 171.566C156.457 171.925 156.696 172.763 156.816 173.002C156.936 173.361 156.816 173.601 156.457 173.72C156.098 173.84 155.859 173.72 155.739 173.361C154.542 170.25 157.414 168.215 160.526 172.882C160.885 173.361 160.406 173.96 159.927 173.84C159.568 173.72 158.731 173.72 158.731 174.079C158.731 174.438 159.449 175.156 160.047 175.276C160.167 175.276 160.406 175.276 160.406 174.917C160.526 174.558 160.765 174.438 161.124 174.438C161.483 174.438 161.603 174.797 161.603 175.156C160.885 177.909 157.295 175.874 157.534 174.079Z" fill="#570B7F"/>
<path d="M215.576 138.296C215.576 138.296 213.781 130.038 198.941 124.653C198.941 124.653 196.309 112.207 193.077 111.608C189.846 111.01 191.282 121.422 191.282 121.422C191.282 121.422 186.376 112.087 183.384 112.446C180.272 112.925 184.7 124.892 184.7 124.892C184.7 124.892 178.836 113.882 175.246 116.276C171.655 118.55 179.195 131.115 179.195 131.115C179.195 131.115 171.296 123.935 168.544 127.046C165.791 130.158 173.929 139.612 183.384 145.117C183.384 145.117 174.049 144.28 172.493 149.186C170.937 154.093 174.767 153.614 183.384 152.777C192 151.939 206.84 155.649 206.84 155.649L215.576 138.296Z" fill="#CA8551"/>
<path d="M183.863 144.64C187.692 134.348 198.104 128.124 198.583 127.885C198.822 127.765 199.181 127.765 199.421 128.124C199.54 128.364 199.54 128.723 199.181 128.962C199.061 128.962 190.445 134.228 186.137 142.605C189.128 140.331 194.753 136.98 200.617 139.972C200.857 140.092 200.976 140.451 200.857 140.81C200.737 141.049 200.378 141.169 200.019 141.049C192.36 137.22 184.94 145.238 184.94 145.358C184.461 145.717 183.623 145.238 183.863 144.64Z" fill="#570B7F"/>
<path d="M136.71 235.712C136.71 235.712 145.327 212.256 164.834 203.161L167.347 204.956C167.347 204.956 152.148 220.035 143.412 242.055L136.71 235.712Z" fill="#E4CAE5"/>
<path d="M180.272 199.57L218.209 198.374L220.962 206.99L178.836 203.161L180.272 199.57Z" fill="#E4CAE5"/>
<path d="M162.081 200.288C162.081 200.288 167.586 207.468 174.647 206.87C181.708 206.391 179.913 198.134 179.913 198.134C179.913 198.134 169.86 189.756 162.081 200.288Z" fill="#CA8551"/>
<path d="M183.623 136.262C183.503 136.262 183.384 136.262 183.264 136.142C181.23 134.347 178.836 131.714 178.716 131.594C178.477 131.355 178.477 130.996 178.836 130.757C179.075 130.517 179.434 130.517 179.674 130.876C179.674 130.876 182.067 133.629 184.102 135.304C184.461 135.544 184.221 136.262 183.623 136.262Z" fill="#570B7F"/>
<path d="M187.812 130.397C187.573 130.397 187.453 130.278 187.333 130.158C185.299 127.525 184.222 125.371 184.102 125.251C183.982 125.012 184.102 124.653 184.341 124.414C184.581 124.294 184.94 124.414 185.179 124.653C185.179 124.653 186.256 126.807 188.291 129.44C188.65 129.799 188.291 130.397 187.812 130.397Z" fill="#570B7F"/>
<path d="M191.881 126.567C190.684 123.934 190.804 121.541 190.804 121.541C190.804 121.182 191.043 120.942 191.402 120.942C191.761 120.942 192.001 121.182 192.001 121.541C192.001 121.541 192.001 123.695 193.078 126.088C193.197 126.806 192.12 127.285 191.881 126.567Z" fill="#570B7F"/>
<path d="M230.536 369.748C230.775 369.509 234.964 363.525 230.655 359.337C230.416 359.097 230.416 358.738 230.655 358.499C230.895 358.259 231.254 358.259 231.493 358.499C236.519 363.406 231.613 370.347 231.613 370.466C231.134 371.065 230.057 370.347 230.536 369.748Z" fill="#570B7F"/>
<path d="M223.954 371.902C223.475 371.902 223.116 371.304 223.475 370.945C223.714 370.705 227.903 365.679 224.073 361.251C223.834 361.012 223.834 360.653 224.073 360.413C224.313 360.174 224.672 360.174 224.911 360.413C229.459 365.679 224.432 371.663 224.432 371.663C224.193 371.783 224.073 371.902 223.954 371.902Z" fill="#570B7F"/>
<path d="M216.294 372.622C215.696 372.622 215.457 371.904 215.935 371.545C216.175 371.306 220.842 366.998 217.491 363.288C217.252 363.048 217.252 362.689 217.491 362.45C217.73 362.211 218.089 362.211 218.329 362.45C221.56 366.04 218.688 370.468 216.653 372.383C216.534 372.503 216.414 372.622 216.294 372.622Z" fill="#570B7F"/>
<path d="M253.395 435.93C253.155 435.93 252.916 435.81 252.796 435.451L240.948 393.804C240.948 393.565 240.709 395.36 243.821 369.869C243.821 369.51 244.18 369.271 244.539 369.391C244.898 369.391 245.137 369.75 245.017 370.109L242.145 393.685L253.873 435.212C253.993 435.571 253.754 435.93 253.395 435.93Z" fill="#570B7F"/>
<path d="M181.588 452.803C180.631 446.58 178.118 440.476 176.203 434.493C166.15 403.736 161.004 387.939 156.098 372.62C155.619 371.304 150.951 371.424 151.43 372.979C156.217 387.819 161.124 403.018 169.86 429.706C175.006 445.503 177.519 451.128 176.921 457.949C176.562 462.856 177.759 458.069 146.284 567.811C145.925 569.247 150.832 569.846 151.311 567.931C158.491 542.799 162.68 528.199 178.716 471.472C180.511 465.489 182.546 459.266 181.588 452.803Z" fill="#570B7F"/>
<path d="M326.276 552.614C305.573 514.557 300.546 472.192 258.301 422.526C257.104 421.09 253.035 421.928 253.873 422.885C296.956 474.825 299.708 512.881 321.609 553.092C322.327 554.529 327.114 554.17 326.276 552.614Z" fill="#570B7F"/>
<path d="M177.281 175.634C177.161 177.549 175.605 178.985 173.69 178.985C171.895 178.985 170.339 177.549 170.22 175.634C172.494 176.95 175.246 176.95 177.281 175.634Z" fill="#570B7F"/>
<path d="M129.171 621.904L135.394 601.439C135.872 599.764 137.668 598.926 139.223 599.524L170.459 610.056C171.895 610.535 172.493 612.33 171.655 613.646L161.842 628.246L129.171 621.904Z" fill="#570B7F"/>
<path d="M362.777 610.057L349.254 585.763C348.177 583.848 348.895 581.335 350.93 580.378L382.165 565.418C383.721 564.7 385.635 565.538 385.994 567.333L390.303 586.96L362.777 610.057Z" fill="#570B7F"/>
<path d="M117.921 641.771H199.54C199.54 641.771 203.37 646.558 201.814 651.345H115.289C115.289 651.345 114.451 646.558 117.921 641.771Z" fill="#26A8AB"/>
<path d="M363.616 617.597C363.616 617.597 412.683 603.835 435.302 584.208C435.302 584.208 442.123 585.524 442.363 590.192C442.363 590.192 395.33 622.744 366.369 626.453C366.369 626.453 363.137 621.427 363.616 617.597Z" fill="#26A8AB"/>
<path d="M140.779 622.745C143.82 622.745 146.284 620.28 146.284 617.239C146.284 614.199 143.82 611.734 140.779 611.734C137.739 611.734 135.274 614.199 135.274 617.239C135.274 620.28 137.739 622.745 140.779 622.745Z" fill="#FFF3FF"/>
<path d="M364.094 595.218C367.134 595.218 369.599 592.753 369.599 589.713C369.599 586.673 367.134 584.208 364.094 584.208C361.053 584.208 358.589 586.673 358.589 589.713C358.589 592.753 361.053 595.218 364.094 595.218Z" fill="#FFF3FF"/>
<path d="M141.378 639.377C136.711 629.444 126.538 627.17 126.419 627.17C126.06 627.05 125.94 626.811 125.94 626.452C126.06 626.093 126.299 625.973 126.658 625.973C127.137 626.093 137.548 628.367 142.455 638.778C142.814 639.616 141.737 640.095 141.378 639.377Z" fill="#FFF3FF"/>
<path d="M174.887 640.336C174.528 640.336 174.169 639.977 174.288 639.618C174.408 639.379 175.844 633.275 182.905 631.002C183.264 630.882 183.503 631.121 183.623 631.361C183.743 631.72 183.503 631.959 183.264 632.079C176.921 634.113 175.485 639.618 175.485 639.858C175.365 640.097 175.126 640.336 174.887 640.336Z" fill="#FFF3FF"/>
<path d="M170.578 615.442C170.578 615.442 160.526 613.527 158.132 617.237C155.739 620.947 155.14 625.854 160.885 630.282C166.629 634.71 176.084 628.966 176.084 628.966L164.834 623.939L170.578 615.442Z" fill="#26A8AB"/>
<path d="M387.909 575.832C387.909 575.832 376.54 582.892 382.285 589.714C388.149 596.535 400.595 592.945 402.988 583.371C402.988 583.371 396.885 584.688 389.106 581.696L387.909 575.832Z" fill="#26A8AB"/>
<path d="M383.361 609.22C383.241 609.22 383.002 609.101 382.882 608.981C376.3 600.963 363.734 602.159 363.614 602.159C363.255 602.159 363.016 601.92 363.016 601.681C363.016 601.322 363.255 601.082 363.495 601.082C364.093 601.082 376.779 599.766 383.84 608.383C384.199 608.622 383.84 609.22 383.361 609.22Z" fill="#FFF3FF"/>
<path d="M412.443 596.773C412.204 596.773 412.084 596.653 411.964 596.534C406.818 588.515 410.528 582.173 410.648 581.814C410.768 581.574 411.127 581.455 411.486 581.574C411.725 581.694 411.845 582.053 411.725 582.412C411.605 582.651 408.254 588.516 413.041 595.816C413.161 596.294 412.922 596.773 412.443 596.773Z" fill="#FFF3FF"/>
<path d="M136.352 313.143C142.455 308.715 149.636 306.561 154.183 306.561C154.542 306.561 154.782 306.8 154.782 307.159C154.782 307.518 154.542 307.757 154.183 307.757C154.064 307.757 145.567 307.877 137.07 314.1C136.471 314.579 135.753 313.621 136.352 313.143Z" fill="#570B7F"/>
<path d="M289.895 193.705C277.568 193.705 268.353 184.61 267.994 184.251C267.755 184.012 267.755 183.653 267.994 183.413C268.234 183.174 268.593 183.174 268.832 183.413C268.952 183.533 278.765 193.107 291.211 192.509C291.57 192.509 291.81 192.748 291.81 193.107C291.81 193.466 291.57 193.705 291.211 193.705C290.852 193.705 290.374 193.705 289.895 193.705Z" fill="#570B7F"/>
<path d="M168.066 174.318C170.842 174.318 173.092 172.068 173.092 169.292C173.092 166.516 170.842 164.265 168.066 164.265C165.29 164.265 163.04 166.516 163.04 169.292C163.04 172.068 165.29 174.318 168.066 174.318Z" fill="#570B7F"/>
<path d="M180.392 172.644C183.168 172.644 185.418 170.393 185.418 167.617C185.418 164.841 183.168 162.591 180.392 162.591C177.616 162.591 175.366 164.841 175.366 167.617C175.366 170.393 177.616 172.644 180.392 172.644Z" fill="#570B7F"/>
<path d="M171.775 168.095C172.613 167.258 174.647 165.941 176.682 167.497C176.921 167.736 177.041 168.095 176.802 168.335C176.562 168.574 176.203 168.694 175.964 168.454C174.288 167.138 172.852 168.694 172.613 168.813C172.134 169.531 171.177 168.694 171.775 168.095Z" fill="#570B7F"/>
<path d="M524.302 238.92C564.772 238.92 597.58 206.112 597.58 165.641C597.58 125.171 564.772 92.3628 524.302 92.3628C483.831 92.3628 451.023 125.171 451.023 165.641C451.023 206.112 483.831 238.92 524.302 238.92Z" fill="#FFC700"/>
<path d="M528.578 86.1419C527.412 86.1419 526.634 85.3644 526.634 84.1982V29.7738C526.634 28.6076 527.412 27.8301 528.578 27.8301C529.744 27.8301 530.522 28.6076 530.522 29.7738V84.1982C530.522 85.17 529.744 86.1419 528.578 86.1419Z" fill="#FFC700"/>
<path d="M528.578 307.145C527.412 307.145 526.634 306.367 526.634 305.201V250.777C526.634 249.61 527.412 248.833 528.578 248.833C529.744 248.833 530.522 249.61 530.522 250.777V305.201C530.522 306.173 529.744 307.145 528.578 307.145Z" fill="#FFC700"/>
<path d="M666.389 169.333H611.964C610.798 169.333 610.021 168.555 610.021 167.389C610.021 166.223 610.798 165.445 611.964 165.445H666.389C667.555 165.445 668.332 166.223 668.332 167.389C668.332 168.555 667.36 169.333 666.389 169.333Z" fill="#FFC700"/>
<path d="M445.386 169.333H390.962C389.796 169.333 389.018 168.555 389.018 167.389C389.018 166.223 389.796 165.445 390.962 165.445H445.386C446.553 165.445 447.33 166.223 447.33 167.389C447.33 168.555 446.358 169.333 445.386 169.333Z" fill="#FFC700"/>
<path d="M587.473 110.439C585.724 110.439 584.946 108.301 586.113 107.134L624.598 68.6485C625.376 67.8711 626.542 67.8711 627.32 68.6485C628.097 69.426 628.097 70.5923 627.32 71.3698L588.834 109.856C588.445 110.244 588.056 110.439 587.473 110.439Z" fill="#FFC700"/>
<path d="M431.197 266.714C429.448 266.714 428.67 264.576 429.837 263.41L468.322 224.924C469.1 224.146 470.266 224.146 471.044 224.924C471.821 225.701 471.821 226.868 471.044 227.645L432.558 266.131C432.169 266.52 431.78 266.714 431.197 266.714Z" fill="#FFC700"/>
<path d="M625.959 266.714C625.376 266.714 624.987 266.52 624.599 266.131L586.113 227.645C585.335 226.868 585.335 225.701 586.113 224.924C586.89 224.146 588.057 224.146 588.834 224.924L627.32 263.41C628.681 264.576 627.709 266.714 625.959 266.714Z" fill="#FFC700"/>
<path d="M469.683 110.439C469.1 110.439 468.712 110.244 468.323 109.856L429.837 71.3698C429.06 70.5923 429.06 69.426 429.837 68.6485C430.615 67.8711 431.781 67.8711 432.558 68.6485L471.044 107.134C472.405 108.301 471.433 110.439 469.683 110.439Z" fill="#FFC700"/>
</g>
<path d="M238.357 82.092C198.887 168.115 153.036 226.33 86.5518 275.643C-37.4148 367.59 -13.7533 505.904 67.0147 610.902C159.363 730.954 537.609 571.686 633.048 435.037C695.166 346.098 610.981 175.729 564.175 74.526C517.368 -26.677 287.693 -25.4362 238.357 82.092Z" fill="#DB7F73" fill-opacity="0.05"/>
<defs>
<clipPath id="clip0_76_737">
<rect width="624.929" height="624.929" fill="white" transform="translate(48.0715 27.8306)"/>
</clipPath>
</defs>
</svg>
