<svg width="548" height="548" viewBox="0 0 548 548" fill="none" xmlns="http://www.w3.org/2000/svg">
<path d="M221.079 85.4924C192.392 148.016 159.066 190.329 110.744 226.17C20.6414 293 37.8392 393.53 96.5435 469.846C163.664 557.102 438.584 441.342 507.952 342.023C553.101 277.379 491.913 153.55 457.893 79.9932C423.872 6.43615 256.938 7.33799 221.079 85.4924Z" fill="#DB7F73" fill-opacity="0.1"/>
<path d="M114.298 509.822C120.411 509.822 125.366 504.867 125.366 498.755C125.366 492.643 120.411 487.688 114.298 487.688C108.186 487.688 103.231 492.643 103.231 498.755C103.231 504.867 108.186 509.822 114.298 509.822Z" fill="#26A8AB"/>
<path d="M206.271 534.996C212.383 534.996 217.338 530.041 217.338 523.929C217.338 517.817 212.383 512.862 206.271 512.862C200.158 512.862 195.204 517.817 195.204 523.929C195.204 530.041 200.158 534.996 206.271 534.996Z" fill="#26A8AB"/>
<path d="M362.622 152.423C359.967 144.492 358.18 137.835 357.003 132.997C353.46 118.452 354.594 117.103 355.151 116.868C355.272 116.829 355.4 116.815 355.527 116.826C355.653 116.837 355.777 116.873 355.89 116.932C359.432 118.173 361.498 124.285 361.937 125.666C365.248 128.846 367.676 132.833 368.979 137.236C369.947 140.569 370.242 144.062 369.846 147.511L362.622 152.423Z" fill="#CA8551"/>
<path d="M359.507 122.904C360.813 117.713 362.215 114.02 363.114 113.271C363.445 112.993 363.851 112.822 364.281 112.779C364.76 112.787 365.221 112.961 365.587 113.271C366.529 113.988 366.935 115.883 366.657 118.152C366.657 118.077 367.47 116.493 368.798 116.461C369.175 116.465 369.544 116.568 369.868 116.76C370.333 117.121 370.706 117.586 370.957 118.118C371.208 118.65 371.33 119.233 371.313 119.821C371.581 119.449 371.933 119.143 372.34 118.93C372.747 118.716 373.197 118.6 373.657 118.591C374.973 118.751 376.226 120.485 375.797 122.658C376.249 122.498 376.73 122.441 377.206 122.491C377.681 122.541 378.14 122.697 378.548 122.947C382.048 125.505 377.103 138.927 377.103 138.927L380.999 147.436H372.298L359.507 122.904Z" fill="#CA8551"/>
<path d="M312.681 480.774L302.973 511.374L334.226 530.565C339.543 533.839 345.664 535.573 351.908 535.574H374.32C374.32 535.574 374.781 521.189 356.061 513.654C337.341 506.119 335.511 478.494 335.511 478.494L312.681 480.774Z" fill="#570B7F"/>
<path d="M374.32 370.767L359.261 392.366L409.02 432.406C409.02 432.406 414.735 414.158 400.811 401.592C386.886 389.027 396.701 376.697 396.701 376.697L374.32 370.767Z" fill="#570B7F"/>
<path d="M296.648 148.271C305.317 146.933 317.551 146.59 328.757 153.001C333.092 155.495 335.018 157.861 340.723 162.741C349.239 170.008 358.396 176.488 368.08 182.103C365.269 169.003 362.451 155.909 359.625 142.823L377.917 140.682C383.145 150.128 387.505 160.03 390.942 170.266C397.685 190.345 401.859 202.964 396.058 210.231C387.763 220.613 362.247 213.132 351.469 208.722C333.274 201.23 322.432 188.386 315.357 179.823C307.559 170.314 301.251 159.675 296.648 148.271Z" fill="#CA8551"/>
<path d="M266.947 242.576C262.922 251.192 258.074 264.913 259.197 281.492C259.947 292.549 263.072 300.597 265.47 306.634C274.096 328.351 283.087 350.752 292.891 374.556C293.883 413.087 294.885 451.618 295.898 490.15L346.043 489.529C344.658 449.799 343.285 410.069 341.922 370.339C341.857 368.544 341.664 366.755 341.344 364.987L320.377 249.019L266.947 242.576Z" fill="#FF9100"/>
<path d="M336.528 250.453C346.214 250.164 359.422 249.886 375.059 249.939C413.59 250.089 432.931 250.26 438.828 255.087C464.976 276.494 413.333 378.024 405.916 392.409L363.681 375.883C373.122 352.072 382.569 328.265 392.023 304.461C378.434 307.338 364.637 309.127 350.763 309.813C324.69 311.118 311.161 311.611 301.924 302.567C299.538 300.244 290.654 290.643 293.148 268.092L336.528 250.453Z" fill="#FF9100"/>
<path d="M289.295 146.975C280.805 146.875 272.392 148.583 264.613 151.984C257.517 155.11 253.011 159.027 244.277 166.733C228.051 181.065 219.478 188.568 215.786 201.144C214.073 207.009 214.052 211.708 214.137 217.027C214.552 237.865 216.074 258.665 218.697 279.341L239.504 279.245L246.739 214.063L280.272 187.529C280.272 187.529 298.885 165.096 289.295 146.975Z" fill="#CA8551"/>
<path d="M257.581 175.531C265.538 206.076 264.046 238.317 253.3 267.996C262.394 274.874 273.177 279.167 284.51 280.422C320.516 284.018 344.972 252.679 346.845 250.196C341.615 227.656 336.374 205.115 331.122 182.574C330.227 178.078 328.646 173.746 326.434 169.73C319.542 157.272 308.443 151.621 303.755 149.576L289.166 147.061L257.581 175.531Z" fill="#FFC700"/>
<path d="M386.747 166.797C384.398 166.789 382.105 166.091 380.15 164.789C378.196 163.487 376.667 161.64 375.755 159.476L324.594 37.1397C324.539 37.0097 324.511 36.8703 324.511 36.7295C324.511 36.5886 324.538 36.4492 324.592 36.319C324.646 36.1888 324.725 36.0704 324.824 35.9707C324.923 35.8709 325.042 35.7917 325.172 35.7376C325.302 35.6835 325.441 35.6555 325.582 35.6553C325.723 35.655 325.862 35.6825 325.992 35.7362C326.122 35.7899 326.241 35.8687 326.341 35.9681C326.44 36.0675 326.52 36.1856 326.574 36.3156L377.735 158.642C378.709 160.917 380.511 162.737 382.775 163.736C385.04 164.734 387.599 164.836 389.936 164.021C392.273 163.205 394.213 161.534 395.365 159.344C396.518 157.153 396.796 154.607 396.144 152.22L394.314 145.798C394.266 145.66 394.248 145.515 394.258 145.37C394.269 145.225 394.309 145.084 394.376 144.955C394.443 144.826 394.536 144.712 394.649 144.62C394.761 144.528 394.891 144.46 395.031 144.42C395.171 144.38 395.317 144.369 395.461 144.388C395.605 144.406 395.744 144.453 395.869 144.527C395.994 144.601 396.103 144.7 396.189 144.817C396.275 144.934 396.336 145.068 396.369 145.209L398.199 151.631C398.988 154.42 398.733 157.401 397.482 160.016C396.231 162.63 394.069 164.699 391.402 165.834C389.932 166.468 388.348 166.796 386.747 166.797Z" fill="#26A8AB"/>
<path d="M252.422 114.984C259.077 104.308 268.983 96.0508 280.683 91.4266C292.382 86.8024 305.256 86.0556 317.412 89.2962C322.505 81.6676 329.519 75.517 337.748 71.4648C349.006 66.1351 361.777 64.9194 373.839 68.0291C378.985 61.5668 385.465 56.2913 392.837 52.5631C403.668 47.223 415.882 45.3541 427.815 47.2115C388.62 8.81942 331.187 3.07184 293.159 29.6049C252.658 57.8718 252.369 110.05 252.422 114.984Z" fill="#51BAA7"/>
<path d="M246.739 214.587C246.658 214.584 246.578 214.566 246.504 214.533C242.242 212.562 237.724 211.204 233.082 210.498C233.012 210.491 232.944 210.469 232.882 210.434C232.821 210.399 232.767 210.353 232.724 210.297C232.681 210.241 232.65 210.177 232.632 210.108C232.615 210.04 232.611 209.969 232.622 209.899C232.64 209.761 232.712 209.635 232.822 209.549C232.932 209.463 233.071 209.424 233.21 209.439C237.974 210.143 242.61 211.535 246.974 213.57C247.045 213.586 247.111 213.615 247.17 213.656C247.229 213.697 247.28 213.75 247.318 213.81C247.357 213.871 247.384 213.938 247.396 214.009C247.409 214.08 247.407 214.153 247.392 214.223C247.376 214.293 247.347 214.36 247.306 214.419C247.265 214.478 247.213 214.528 247.152 214.567C247.091 214.606 247.024 214.632 246.953 214.645C246.882 214.657 246.809 214.656 246.739 214.64V214.587Z" fill="#570B7F"/>
<path d="M373.817 124.766L361.583 116.825C361.583 116.825 359.218 125.248 361.241 126.554C363.264 127.86 363.638 126.458 363.703 126.243C363.596 126.575 362.397 130.439 364.323 131.178C364.689 131.305 365.084 131.317 365.457 131.214C365.83 131.111 366.163 130.896 366.411 130.6C365.619 132.002 364.923 133.811 365.94 134.624C367.128 135.587 368.915 134.025 369.964 132.879C368.958 134.185 367.663 136.283 369.579 136.54C372.394 136.925 377.456 129.123 377.456 129.123L373.817 124.766Z" fill="#CA8551"/>
<path d="M371.398 136.079C371.27 136.09 371.141 136.09 371.013 136.079C370.757 136.045 370.514 135.943 370.31 135.786C370.105 135.628 369.945 135.419 369.846 135.18C369.668 134.66 369.635 134.102 369.75 133.564C368.594 134.806 367.395 135.566 366.357 135.148C366.164 135.07 365.991 134.949 365.85 134.796C365.71 134.642 365.605 134.459 365.544 134.26C365.339 133.294 365.406 132.29 365.736 131.359C365.526 131.518 365.286 131.633 365.031 131.697C364.775 131.762 364.509 131.774 364.249 131.734C364.039 131.692 363.841 131.603 363.67 131.473C363.499 131.343 363.361 131.176 363.264 130.985C362.867 129.734 362.849 128.393 363.211 127.132C362.826 127.369 362.378 127.484 361.926 127.463C361.663 127.455 361.406 127.385 361.175 127.258C360.945 127.132 360.747 126.953 360.599 126.736C359.015 124.595 360.877 117.509 361.102 116.707C361.121 116.636 361.154 116.571 361.198 116.513C361.242 116.455 361.298 116.407 361.361 116.371C361.424 116.334 361.494 116.311 361.566 116.301C361.638 116.292 361.711 116.297 361.782 116.316C361.852 116.335 361.918 116.368 361.975 116.412C362.033 116.456 362.081 116.512 362.118 116.575C362.154 116.638 362.178 116.708 362.187 116.78C362.196 116.852 362.191 116.925 362.172 116.996C361.402 119.811 360.535 124.766 361.509 126.115C361.566 126.199 361.642 126.268 361.731 126.317C361.821 126.365 361.921 126.391 362.022 126.393C362.377 126.343 362.714 126.208 363.005 125.999C363.296 125.79 363.531 125.514 363.692 125.194C364.3 122.95 365.043 120.745 365.918 118.59C365.972 118.475 366.065 118.382 366.181 118.329C366.297 118.276 366.428 118.266 366.55 118.301C366.673 118.336 366.779 118.413 366.849 118.519C366.92 118.625 366.95 118.753 366.935 118.879C366.574 121.23 365.817 123.503 364.698 125.601C364.131 127.742 363.842 129.711 364.249 130.471C364.271 130.525 364.305 130.573 364.35 130.61C364.395 130.648 364.448 130.673 364.506 130.685C365.062 130.803 365.769 130.161 366.518 129.112C367.65 126.294 368.969 123.555 370.467 120.913C370.535 120.796 370.643 120.708 370.772 120.667C370.9 120.625 371.04 120.633 371.163 120.688C371.284 120.744 371.379 120.844 371.43 120.966C371.482 121.089 371.486 121.226 371.441 121.352C370.454 124.244 369.125 127.007 367.481 129.583C366.743 131.509 366.325 133.147 366.593 133.864C366.607 133.918 366.632 133.969 366.667 134.014C366.702 134.058 366.746 134.094 366.796 134.121C367.738 134.485 369.365 132.633 370.917 130.246C371.715 128.579 372.623 126.966 373.635 125.419C373.708 125.305 373.822 125.223 373.954 125.191C374.086 125.159 374.225 125.18 374.342 125.248C374.46 125.314 374.55 125.422 374.591 125.551C374.633 125.68 374.624 125.821 374.567 125.943C373.753 127.631 372.838 129.268 371.827 130.846C371.056 132.526 370.574 134.056 370.874 134.72C370.904 134.793 370.954 134.856 371.019 134.901C371.083 134.947 371.159 134.973 371.238 134.977C373.197 135.319 376.033 130.696 377.36 127.624C377.417 127.493 377.523 127.391 377.656 127.338C377.788 127.286 377.936 127.289 378.066 127.346C378.197 127.402 378.3 127.509 378.352 127.641C378.404 127.774 378.402 127.921 378.345 128.052C377.895 128.908 374.609 136.079 371.398 136.079Z" fill="#570B7F"/>
<path d="M377.456 201.219C377.331 201.217 377.21 201.171 377.114 201.091C369.194 194.497 367.599 182.681 367.535 182.178C367.519 182.037 367.56 181.895 367.648 181.783C367.736 181.671 367.864 181.597 368.006 181.579C368.146 181.564 368.287 181.605 368.397 181.693C368.507 181.781 368.578 181.909 368.594 182.05C368.594 182.167 370.2 193.952 377.799 200.245C377.908 200.337 377.977 200.468 377.991 200.61C378.005 200.752 377.963 200.894 377.874 201.005C377.825 201.07 377.762 201.123 377.69 201.16C377.617 201.197 377.538 201.217 377.456 201.219Z" fill="#570B7F"/>
<path d="M309.01 492.344C306.27 498.252 303.526 504.153 300.779 510.047L334.794 533.016C337.309 534.708 340.271 535.614 343.303 535.616H374.342C374.976 534.293 375.129 532.789 374.773 531.364C374.418 529.94 373.576 528.684 372.394 527.814C371.301 527.387 370.15 527.131 368.979 527.054C366.087 526.879 363.196 527.412 360.556 528.606C358.159 529.537 349.607 532.823 343.806 530.372C340.381 528.927 341.269 526.893 337.116 522.965C329.11 515.42 321.522 518.92 317.54 512.573C315.292 508.966 317.283 507.125 314.329 500.585C313 497.576 311.205 494.794 309.01 492.344Z" fill="#FFC700"/>
<path d="M367.631 380.368L359.261 392.366L409.02 432.406C409.02 432.406 413.933 428.125 410.176 422.945C406.419 417.764 397.61 419.563 395.084 416.352C392.558 413.141 390.439 405.306 382.39 403.508C374.342 401.71 377.949 386.64 367.631 380.368Z" fill="#FFC700"/>
<path d="M317.412 89.8419C317.311 89.8434 317.212 89.8159 317.127 89.7628C317.042 89.7096 316.973 89.6331 316.93 89.5422C316.748 89.1569 298.799 50.9146 313.848 18.5484C313.899 18.4449 313.981 18.3602 314.083 18.3064C314.185 18.2525 314.301 18.2323 314.415 18.2487C314.843 18.3129 357.12 25.3341 374.352 67.8363C374.406 67.9697 374.404 68.1188 374.348 68.251C374.292 68.3832 374.186 68.488 374.053 68.5427C373.987 68.5687 373.918 68.5817 373.847 68.5807C373.777 68.5797 373.707 68.5649 373.643 68.5371C373.578 68.5092 373.52 68.4689 373.471 68.4185C373.422 68.368 373.383 68.3084 373.357 68.243C357.26 28.5023 318.953 20.1966 314.672 19.3725C300.148 51.1929 317.733 88.6967 317.883 89.082C317.914 89.1444 317.932 89.2123 317.936 89.2818C317.94 89.3513 317.931 89.421 317.908 89.4868C317.885 89.5525 317.849 89.6131 317.803 89.6648C317.756 89.7166 317.7 89.7586 317.637 89.7884C317.567 89.8246 317.49 89.843 317.412 89.8419Z" fill="#26A8AB"/>
<path d="M325.696 489.818C325.696 489.818 332.3 515.612 346.685 507.028C343.197 501.503 340.169 495.7 337.63 489.679L325.696 489.818Z" fill="#FFC700"/>
<path d="M383.889 383.729C384.189 387.483 385.283 391.132 387.1 394.432C390.033 399.334 397.803 398.424 397.803 398.424C397.803 398.424 393.789 392.698 393.34 387.41L383.889 383.729Z" fill="#FFC700"/>
<path d="M289.166 146.975C283.107 145.905 276.893 146.072 270.9 147.469C264.906 148.865 259.258 151.46 254.296 155.099C242.978 163.52 232.113 172.534 221.747 182.103C221.747 182.103 238.605 207.395 253.332 214.052L281.332 186.16C281.332 186.16 298.692 161.286 289.166 146.975Z" fill="#FFC700"/>
<path d="M303.797 147.125C303.797 147.125 310.487 180.155 320.184 190.141C329.881 200.127 343.27 206.849 343.27 206.849L359.507 174.985C359.507 174.985 339.171 159.252 330.833 151.92C322.496 144.589 308.667 147.596 303.797 147.125Z" fill="#FFC700"/>
<path d="M338.219 152.562C332.76 143.197 323.234 135.93 311.546 132.408C301.418 129.405 290.636 129.405 280.507 132.408C268.873 135.898 259.294 143.197 253.814 152.562C250.521 158.072 248.783 164.371 248.783 170.79C248.783 177.209 250.521 183.507 253.814 189.017C259.294 198.372 268.873 205.682 280.507 209.161C290.634 212.173 301.419 212.173 311.546 209.161C323.234 205.682 332.76 198.383 338.219 189.017C341.511 183.507 343.25 177.209 343.25 170.79C343.25 164.371 341.511 158.072 338.219 152.562ZM302.331 195.964C298.143 196.748 293.846 196.748 289.659 195.964C279.426 194.069 271.121 187.658 267.706 179.288C265.466 173.844 265.466 167.736 267.706 162.292C271.11 153.911 279.416 147.5 289.648 145.605C293.839 144.821 298.14 144.821 302.331 145.605C312.563 147.5 320.869 153.9 324.283 162.281C326.523 167.729 326.523 173.84 324.283 179.288C320.89 187.658 312.585 194.069 302.352 195.964H302.331Z" fill="white"/>
<path d="M289.669 145.563C279.437 147.457 271.131 153.868 267.728 162.249L253.814 152.52C259.294 143.154 268.873 135.855 280.507 132.366L289.669 145.563Z" fill="#FF9100"/>
<path d="M338.219 189.017C332.739 198.382 323.159 205.682 311.525 209.171L302.331 195.964C312.563 194.069 320.869 187.658 324.283 179.288L338.219 189.017Z" fill="#FF9100"/>
<path d="M289.68 195.964L280.475 209.161C268.841 205.682 259.262 198.372 253.782 189.017L267.696 179.288C271.142 187.658 279.448 194.069 289.68 195.964Z" fill="#FF9100"/>
<path d="M338.219 152.562L324.305 162.281C320.89 153.9 312.585 147.5 302.353 145.605L311.547 132.408C323.234 135.93 332.76 143.197 338.219 152.562Z" fill="#FF9100"/>
<path d="M289.166 146.975C289.84 148.233 290.792 149.322 291.949 150.157C293.107 150.992 294.44 151.552 295.846 151.794C297.253 152.037 298.696 151.955 300.067 151.556C301.437 151.157 302.698 150.45 303.755 149.49L304.119 130.332L295.224 128.801L289.166 146.975Z" fill="#CA8551"/>
<path d="M294.721 132.055L294.935 129.668L304.097 131.242C304.044 134.314 303.979 137.396 303.926 140.468C302.418 140.631 300.895 140.371 299.527 139.719C295.256 137.642 294.753 132.419 294.721 132.055Z" fill="#FF9100"/>
<path d="M301.689 131.702C307.612 131.702 312.413 126.9 312.413 120.977C312.413 115.054 307.612 110.253 301.689 110.253C295.766 110.253 290.964 115.054 290.964 120.977C290.964 126.9 295.766 131.702 301.689 131.702Z" fill="#CA8551"/>
<path d="M301.689 120.945L312.392 121.545C312.232 123.61 312.05 125.376 311.9 126.768C311.461 130.76 311.226 131.798 310.648 132.954C310.102 134.216 309.248 135.32 308.164 136.165C304.879 138.498 299.602 136.989 296.487 134.731C294.045 132.884 292.304 130.261 291.553 127.292C291.249 125.002 291.067 122.698 291.007 120.389L301.689 120.945Z" fill="#CA8551"/>
<path d="M307.008 131.146L301.539 130.075C302.145 131.104 303.086 131.894 304.204 132.312C304.486 132.448 304.793 132.524 305.106 132.537C305.419 132.55 305.731 132.499 306.024 132.387C306.261 132.255 306.471 132.078 306.64 131.864C306.809 131.651 306.934 131.407 307.008 131.146Z" fill="white"/>
<path d="M293.908 123.728L296.048 118.377C296.048 118.377 299.163 120.603 300.801 119.64C302.438 118.676 302.138 113.689 302.138 113.689C302.617 113.61 303.107 113.628 303.579 113.742C304.05 113.855 304.494 114.063 304.884 114.351C305.275 114.639 305.603 115.003 305.85 115.421C306.097 115.838 306.258 116.301 306.323 116.782C306.351 117.232 306.487 117.67 306.718 118.057C306.95 118.444 307.271 118.771 307.654 119.009C308.038 119.247 308.473 119.389 308.923 119.424C309.373 119.46 309.825 119.387 310.241 119.211C310.241 119.211 312.124 119.211 312.381 122.422C312.381 122.422 322.239 122.048 322.442 113.699C322.646 105.351 317.465 107.277 314.575 108.947C311.686 110.617 312.124 103.424 306.355 102.525C300.586 101.626 295.128 104.034 291.061 108.947C290.182 108.814 289.286 108.865 288.428 109.097C288.428 109.097 285.591 109.9 283.568 113.892C281.428 118.109 284.639 127.806 292.131 138.359C292.045 138.359 298.275 131.552 293.908 123.728Z" fill="#570B7F"/>
<path d="M294.515 128.948C296.516 128.275 297.428 125.621 296.553 123.021C295.678 120.421 293.347 118.859 291.347 119.532C289.346 120.205 288.434 122.859 289.309 125.459C290.184 128.059 292.515 129.621 294.515 128.948Z" fill="#CA8551"/>
<path d="M293.95 127.367C293.737 127.365 293.527 127.31 293.34 127.207C292.892 126.97 292.532 126.596 292.312 126.14C292.092 125.683 292.025 125.168 292.12 124.67C292.177 124.513 292.268 124.37 292.387 124.252C292.505 124.133 292.648 124.042 292.805 123.985C292.991 123.924 293.187 123.898 293.383 123.91C293.041 123.161 292.623 122.551 292.313 122.54C292.28 122.533 292.247 122.534 292.215 122.543C292.183 122.552 292.154 122.57 292.131 122.594C291.946 122.919 291.86 123.291 291.885 123.664C291.885 123.806 291.828 123.942 291.728 124.042C291.628 124.143 291.492 124.199 291.35 124.199C291.208 124.199 291.072 124.143 290.971 124.042C290.871 123.942 290.814 123.806 290.814 123.664C290.758 122.974 290.96 122.287 291.382 121.737C291.51 121.609 291.665 121.51 291.834 121.445C292.004 121.381 292.185 121.353 292.366 121.363C293.726 121.427 294.507 123.75 294.764 124.467C294.793 124.568 294.792 124.675 294.762 124.776C294.732 124.876 294.673 124.966 294.593 125.034C294.504 125.094 294.4 125.126 294.293 125.126C294.186 125.126 294.082 125.094 293.993 125.034C293.738 124.882 293.444 124.811 293.148 124.831C293.122 125.081 293.169 125.333 293.283 125.557C293.397 125.781 293.573 125.967 293.79 126.094C293.897 126.094 293.983 126.19 294.132 125.944C294.166 125.878 294.212 125.819 294.269 125.772C294.326 125.724 294.392 125.689 294.464 125.669C294.535 125.649 294.61 125.643 294.683 125.653C294.756 125.663 294.827 125.688 294.89 125.727C294.953 125.766 295.008 125.817 295.05 125.878C295.092 125.939 295.122 126.008 295.136 126.08C295.15 126.153 295.149 126.228 295.133 126.3C295.117 126.372 295.086 126.441 295.042 126.5C294.961 126.733 294.815 126.938 294.622 127.092C294.428 127.245 294.196 127.341 293.95 127.367Z" fill="#570B7F"/>
<path d="M285.773 146.879C286.755 148.721 288.207 150.271 289.981 151.371C291.755 152.471 293.788 153.082 295.874 153.143C297.961 153.204 300.026 152.712 301.861 151.717C303.696 150.722 305.236 149.26 306.323 147.478C304.044 147.125 301.582 146.836 298.96 146.665C294.566 146.379 290.156 146.45 285.773 146.879Z" fill="#CA8551"/>
<path d="M165.524 420.001C165.417 420.018 165.309 420.018 165.203 420.001C165.067 419.96 164.941 419.892 164.832 419.802C164.723 419.711 164.633 419.6 164.568 419.475C164.502 419.349 164.462 419.212 164.45 419.071C164.437 418.93 164.453 418.788 164.496 418.653L205.243 288.407C205.328 288.135 205.517 287.909 205.769 287.778C206.021 287.646 206.315 287.62 206.586 287.705C206.857 287.791 207.083 287.98 207.215 288.232C207.346 288.484 207.372 288.778 207.287 289.049L166.54 419.252C166.472 419.469 166.337 419.658 166.154 419.793C165.972 419.927 165.751 420.001 165.524 420.001Z" fill="#26A8AB"/>
<path d="M210.391 422.495C210.282 422.494 210.174 422.476 210.07 422.442C209.801 422.356 209.577 422.167 209.447 421.916C209.316 421.665 209.29 421.373 209.374 421.104L248.687 295.406C248.725 295.268 248.79 295.139 248.879 295.026C248.968 294.914 249.079 294.821 249.205 294.752C249.33 294.683 249.469 294.64 249.611 294.626C249.754 294.611 249.898 294.625 250.035 294.668C250.172 294.71 250.299 294.779 250.408 294.872C250.518 294.964 250.608 295.078 250.673 295.205C250.738 295.333 250.777 295.473 250.787 295.616C250.797 295.759 250.778 295.902 250.731 296.038L211.408 421.703C211.348 421.928 211.216 422.126 211.032 422.269C210.849 422.412 210.624 422.491 210.391 422.495Z" fill="#26A8AB"/>
<path d="M253.024 295.248L204.046 281.899C202.009 281.344 199.908 282.545 199.353 284.582L199.052 285.687C198.497 287.723 199.698 289.824 201.735 290.379L250.712 303.728C252.749 304.283 254.85 303.082 255.405 301.045L255.706 299.94C256.261 297.904 255.06 295.803 253.024 295.248Z" fill="#51BAA7"/>
<path d="M256.798 386.656L164.86 357.841C159.158 356.054 153.088 359.227 151.301 364.929L115.526 479.075C113.739 484.776 116.912 490.847 122.613 492.633L214.551 521.448C220.253 523.235 226.323 520.062 228.11 514.361L263.885 400.214C265.672 394.513 262.499 388.443 256.798 386.656Z" fill="#26A8AB"/>
<path d="M236.699 380.352L151.817 353.748C146.115 351.961 140.045 355.135 138.258 360.836L102.483 474.982C100.696 480.683 103.869 486.754 109.57 488.541L194.452 515.144C200.154 516.931 206.224 513.758 208.011 508.057L243.786 393.91C245.573 388.209 242.4 382.139 236.699 380.352Z" fill="#51BAA7"/>
<path d="M226.007 398.531C225.786 398.531 225.566 398.498 225.354 398.434L148.859 374.32C148.586 374.236 148.333 374.098 148.114 373.914C147.895 373.73 147.715 373.504 147.585 373.25C147.454 372.998 147.374 372.723 147.35 372.44C147.326 372.157 147.359 371.872 147.446 371.602C147.529 371.33 147.665 371.077 147.847 370.858C148.028 370.639 148.252 370.459 148.504 370.327C148.756 370.196 149.032 370.116 149.315 370.092C149.598 370.068 149.884 370.101 150.154 370.189L226.649 394.303C226.922 394.387 227.176 394.525 227.394 394.709C227.613 394.893 227.793 395.119 227.923 395.373C228.114 395.703 228.213 396.078 228.21 396.459C228.208 396.84 228.103 397.214 227.908 397.541C227.713 397.869 227.433 398.138 227.099 398.321C226.765 398.505 226.388 398.595 226.007 398.584V398.531ZM149.501 371.173C149.264 371.163 149.03 371.232 148.836 371.37C148.642 371.508 148.5 371.706 148.431 371.933C148.347 372.211 148.374 372.51 148.506 372.768C148.571 372.896 148.662 373.009 148.772 373.101C148.883 373.193 149.011 373.262 149.148 373.303L225.643 397.418C225.78 397.464 225.925 397.482 226.069 397.47C226.213 397.459 226.353 397.419 226.481 397.352C226.609 397.285 226.722 397.192 226.814 397.08C226.905 396.968 226.973 396.839 227.013 396.7C227.059 396.564 227.077 396.419 227.066 396.275C227.055 396.131 227.014 395.99 226.947 395.862C226.88 395.734 226.788 395.621 226.676 395.53C226.564 395.438 226.435 395.371 226.296 395.33L149.844 371.227C149.734 371.186 149.618 371.168 149.501 371.173Z" fill="#26A8AB"/>
<path d="M220.709 415.281C220.488 415.28 220.268 415.248 220.056 415.185L143.561 391.071C143.29 390.985 143.038 390.846 142.822 390.662C142.605 390.479 142.427 390.254 142.298 390C142.165 389.749 142.083 389.474 142.057 389.191C142.031 388.908 142.062 388.623 142.148 388.352C142.327 387.808 142.712 387.356 143.22 387.092C143.728 386.828 144.319 386.773 144.867 386.939L221.362 411.053C221.633 411.139 221.884 411.278 222.101 411.461C222.318 411.645 222.496 411.87 222.625 412.124C222.816 412.454 222.915 412.828 222.912 413.21C222.909 413.591 222.805 413.964 222.61 414.292C222.414 414.619 222.135 414.888 221.801 415.072C221.467 415.255 221.09 415.346 220.709 415.334V415.281ZM144.214 387.924C143.976 387.914 143.742 387.983 143.548 388.12C143.355 388.258 143.212 388.456 143.143 388.684C143.056 388.96 143.079 389.259 143.208 389.519C143.273 389.646 143.364 389.759 143.474 389.851C143.585 389.943 143.712 390.012 143.85 390.054L220.388 414.211C220.594 414.283 220.817 414.291 221.027 414.233C221.238 414.175 221.426 414.054 221.566 413.886C221.705 413.719 221.79 413.512 221.81 413.295C221.829 413.077 221.781 412.859 221.672 412.669C221.608 412.543 221.519 412.43 221.41 412.338C221.302 412.246 221.176 412.177 221.041 412.134L144.545 388.031C144.44 387.989 144.327 387.968 144.214 387.967V387.924Z" fill="#26A8AB"/>
<path d="M215.422 432.117C215.2 432.117 214.98 432.085 214.769 432.021L138.273 407.906C138 407.822 137.747 407.684 137.528 407.5C137.31 407.316 137.13 407.09 137 406.836C136.79 406.457 136.7 406.024 136.742 405.594C136.783 405.163 136.955 404.755 137.233 404.423C137.511 404.092 137.883 403.852 138.3 403.737C138.717 403.621 139.159 403.634 139.568 403.775L216.064 427.889C216.337 427.973 216.59 428.112 216.809 428.295C217.028 428.479 217.207 428.705 217.337 428.959C217.596 429.47 217.646 430.061 217.477 430.608C217.341 431.046 217.068 431.43 216.698 431.702C216.328 431.973 215.881 432.119 215.422 432.117ZM138.916 404.76C138.678 404.75 138.444 404.819 138.25 404.956C138.056 405.094 137.914 405.292 137.845 405.52C137.799 405.657 137.781 405.801 137.793 405.945C137.804 406.089 137.844 406.23 137.911 406.358C137.978 406.486 138.071 406.599 138.182 406.69C138.294 406.782 138.424 406.849 138.562 406.89L215.133 430.993C215.269 431.039 215.413 431.058 215.556 431.047C215.7 431.036 215.84 430.997 215.968 430.931C216.096 430.865 216.209 430.774 216.301 430.663C216.393 430.553 216.461 430.424 216.503 430.287C216.586 430.009 216.559 429.71 216.428 429.452C216.362 429.324 216.271 429.211 216.161 429.119C216.051 429.027 215.923 428.958 215.785 428.917L139.247 404.802C139.139 404.772 139.028 404.758 138.916 404.76Z" fill="#26A8AB"/>
<path d="M210.124 448.91C209.903 448.91 209.683 448.877 209.471 448.814L132.976 424.7C132.705 424.614 132.453 424.476 132.236 424.292C132.02 424.108 131.842 423.883 131.713 423.63C131.579 423.379 131.498 423.103 131.472 422.82C131.446 422.538 131.477 422.252 131.563 421.981C131.742 421.438 132.127 420.986 132.635 420.722C133.143 420.458 133.733 420.403 134.281 420.568L210.777 444.683C211.3 444.808 211.757 445.125 212.056 445.571C212.356 446.018 212.477 446.561 212.395 447.092C212.312 447.624 212.033 448.105 211.612 448.44C211.192 448.775 210.66 448.939 210.124 448.9V448.91ZM133.628 421.553C133.391 421.543 133.157 421.612 132.963 421.75C132.769 421.887 132.627 422.086 132.558 422.313C132.512 422.449 132.493 422.593 132.504 422.737C132.515 422.88 132.554 423.02 132.62 423.148C132.686 423.276 132.777 423.389 132.888 423.481C132.999 423.573 133.127 423.642 133.265 423.683L209.781 447.787C209.917 447.831 210.06 447.848 210.202 447.837C210.344 447.825 210.483 447.786 210.61 447.72C210.736 447.654 210.849 447.563 210.94 447.454C211.031 447.344 211.099 447.217 211.14 447.08C211.187 446.944 211.205 446.8 211.195 446.656C211.184 446.513 211.144 446.373 211.078 446.245C211.013 446.117 210.921 446.004 210.811 445.912C210.7 445.82 210.572 445.751 210.434 445.71L133.96 421.596C133.852 421.567 133.74 421.552 133.628 421.553Z" fill="#26A8AB"/>
<path d="M204.836 465.704C204.614 465.706 204.393 465.67 204.183 465.597L127.688 441.493C127.417 441.408 127.166 441.269 126.949 441.085C126.732 440.901 126.554 440.676 126.425 440.423C126.217 440.045 126.128 439.614 126.17 439.184C126.211 438.755 126.382 438.349 126.658 438.018C126.934 437.687 127.304 437.448 127.719 437.33C128.134 437.213 128.575 437.224 128.983 437.362L205.5 461.487C205.773 461.571 206.026 461.709 206.245 461.893C206.464 462.077 206.644 462.303 206.774 462.557C206.951 462.885 207.039 463.255 207.03 463.628C207.021 464.001 206.914 464.365 206.72 464.684C206.526 465.004 206.253 465.267 205.926 465.447C205.599 465.628 205.231 465.72 204.858 465.714L204.836 465.704ZM128.33 438.336C128.047 438.293 127.757 438.365 127.527 438.536C127.296 438.706 127.142 438.962 127.1 439.246C127.057 439.529 127.129 439.819 127.3 440.049C127.47 440.28 127.725 440.434 128.009 440.476L204.505 464.591C204.641 464.637 204.785 464.655 204.928 464.645C205.072 464.634 205.212 464.594 205.34 464.529C205.468 464.463 205.581 464.372 205.673 464.261C205.765 464.15 205.833 464.022 205.875 463.884C205.958 463.607 205.931 463.308 205.8 463.049C205.734 462.922 205.643 462.808 205.533 462.716C205.423 462.624 205.295 462.556 205.157 462.514L128.662 438.4C128.555 438.363 128.443 438.341 128.33 438.336Z" fill="#26A8AB"/>
<path d="M199.538 482.497C199.32 482.498 199.102 482.462 198.896 482.39L122.39 458.286C122.119 458.201 121.868 458.062 121.651 457.878C121.434 457.694 121.256 457.469 121.127 457.216C120.994 456.967 120.912 456.693 120.889 456.412C120.865 456.13 120.898 455.847 120.988 455.578C121.071 455.308 121.207 455.056 121.387 454.838C121.568 454.62 121.791 454.44 122.041 454.309C122.292 454.177 122.567 454.097 122.849 454.073C123.131 454.048 123.415 454.08 123.685 454.166L200.148 478.269C200.419 478.355 200.671 478.493 200.887 478.677C201.104 478.861 201.282 479.086 201.411 479.339C201.543 479.589 201.624 479.862 201.65 480.143C201.675 480.424 201.645 480.708 201.561 480.977C201.429 481.412 201.162 481.794 200.798 482.068C200.434 482.341 199.993 482.491 199.538 482.497ZM123.086 455.129C122.847 455.119 122.612 455.19 122.418 455.33C122.224 455.469 122.082 455.67 122.015 455.9C121.973 456.035 121.957 456.178 121.97 456.319C121.983 456.461 122.024 456.598 122.09 456.724C122.155 456.85 122.244 456.963 122.352 457.055C122.461 457.147 122.586 457.216 122.722 457.259L199.228 481.373C199.364 481.417 199.508 481.434 199.651 481.422C199.793 481.41 199.932 481.369 200.059 481.302C200.186 481.235 200.298 481.144 200.389 481.033C200.479 480.922 200.547 480.793 200.587 480.656C200.63 480.52 200.645 480.378 200.632 480.236C200.62 480.095 200.579 479.957 200.512 479.832C200.448 479.705 200.359 479.593 200.25 479.501C200.142 479.409 200.016 479.339 199.881 479.297L123.375 455.182C123.281 455.151 123.184 455.133 123.086 455.129Z" fill="#26A8AB"/>
<path d="M194.251 499.29C194.029 499.291 193.808 499.255 193.598 499.183L117.103 475.079C116.556 474.908 116.1 474.526 115.836 474.018C115.571 473.51 115.518 472.918 115.69 472.372C115.862 471.825 116.243 471.369 116.751 471.104C117.259 470.839 117.851 470.787 118.398 470.959L194.893 495.062C195.166 495.147 195.419 495.285 195.638 495.469C195.857 495.652 196.037 495.878 196.167 496.133C196.344 496.461 196.432 496.83 196.423 497.203C196.414 497.577 196.307 497.941 196.113 498.26C195.92 498.579 195.646 498.842 195.319 499.023C194.992 499.203 194.624 499.296 194.251 499.29ZM117.734 471.922C117.45 471.879 117.161 471.951 116.93 472.122C116.7 472.293 116.546 472.548 116.503 472.832C116.461 473.116 116.533 473.405 116.703 473.636C116.874 473.866 117.129 474.02 117.413 474.063L193.908 498.177C194.045 498.223 194.19 498.241 194.334 498.23C194.478 498.218 194.618 498.178 194.747 498.111C194.875 498.044 194.988 497.952 195.079 497.84C195.17 497.728 195.238 497.598 195.278 497.46C195.323 497.323 195.339 497.18 195.327 497.037C195.315 496.894 195.274 496.755 195.208 496.628C195.141 496.501 195.049 496.389 194.938 496.299C194.827 496.208 194.699 496.141 194.561 496.1L118.077 472.008C117.968 471.961 117.852 471.933 117.734 471.922Z" fill="#26A8AB"/>
<path d="M245.53 293.03C245.441 290.576 244.96 288.151 244.106 285.849C243.045 282.802 241.225 280.076 238.819 277.928L220.227 273.797C220.227 273.797 210.702 279.02 209.321 285.046C207.94 291.072 209.781 298.821 213.335 300.779C216.888 302.738 218.622 300.897 218.622 300.897C222.347 306.003 225.504 301.7 225.504 301.7C228.929 307.629 232.996 302.77 232.996 302.77C232.996 302.77 233.863 305.35 237.706 304.493C241.548 303.637 242.533 301.357 242.533 301.357C241.597 300.678 240.813 299.81 240.232 298.81C239.661 297.746 239.307 296.58 239.19 295.379C239.072 294.177 239.193 292.965 239.547 291.81L245.53 293.03Z" fill="#CA8551"/>
<path d="M218.622 301.421C218.529 301.423 218.438 301.4 218.357 301.355C218.276 301.31 218.209 301.244 218.162 301.165C216.508 298.13 215.877 294.643 216.363 291.221C216.375 291.152 216.4 291.085 216.438 291.025C216.476 290.965 216.525 290.913 216.582 290.873C216.64 290.832 216.705 290.803 216.774 290.787C216.843 290.772 216.915 290.77 216.984 290.783C217.054 290.793 217.12 290.817 217.18 290.854C217.24 290.89 217.292 290.938 217.332 290.995C217.373 291.052 217.402 291.116 217.418 291.185C217.434 291.253 217.435 291.324 217.423 291.393C216.988 294.566 217.569 297.796 219.082 300.619C219.153 300.743 219.172 300.889 219.136 301.027C219.1 301.165 219.012 301.284 218.889 301.357C218.806 301.399 218.715 301.421 218.622 301.421Z" fill="#570B7F"/>
<path d="M225.504 302.235C225.395 302.232 225.289 302.197 225.199 302.134C225.11 302.071 225.041 301.983 225.001 301.882C223.898 298.711 223.615 295.312 224.177 292.003C224.208 291.865 224.291 291.744 224.408 291.667C224.526 291.589 224.669 291.56 224.808 291.585C224.878 291.598 224.944 291.625 225.003 291.663C225.062 291.702 225.113 291.753 225.152 291.812C225.191 291.871 225.217 291.937 225.23 292.007C225.243 292.076 225.241 292.148 225.226 292.217C224.716 295.33 224.984 298.522 226.007 301.507C226.033 301.572 226.045 301.642 226.043 301.712C226.041 301.782 226.025 301.851 225.997 301.915C225.968 301.979 225.926 302.036 225.875 302.084C225.823 302.131 225.763 302.168 225.697 302.192C225.637 302.221 225.571 302.236 225.504 302.235Z" fill="#570B7F"/>
<path d="M232.964 303.263C232.867 303.262 232.772 303.234 232.689 303.184C232.606 303.133 232.538 303.06 232.493 302.974C230.875 299.533 230.537 295.628 231.541 291.96C231.58 291.824 231.673 291.709 231.797 291.641C231.922 291.572 232.068 291.556 232.204 291.596C232.339 291.638 232.452 291.731 232.52 291.855C232.588 291.978 232.605 292.124 232.568 292.26C231.649 295.664 231.96 299.283 233.446 302.481C233.51 302.609 233.521 302.757 233.477 302.893C233.433 303.029 233.337 303.143 233.21 303.209C233.133 303.243 233.049 303.261 232.964 303.263Z" fill="#570B7F"/>
<path d="M270.928 277.339C270.928 277.339 282.177 335.992 300.779 362.59L305.863 489.679L314.126 489.968L307.586 360.524C307.586 360.524 281.407 307.554 280.208 279.287C277.044 279.036 273.926 278.382 270.928 277.339Z" fill="white"/>
<path d="M330.973 287.175C354.954 292.549 379.905 291.776 403.508 284.928L383.889 383.728L374.32 379.982L396.176 294.518C389.576 295.403 382.687 296.134 375.508 296.712C360.692 297.866 345.82 298.13 330.973 297.504V287.175Z" fill="white"/>
<path d="M392.066 304.953H391.959C391.82 304.92 391.7 304.835 391.622 304.715C391.544 304.596 391.516 304.451 391.541 304.311C394.273 294.504 400.273 285.924 408.549 279.994C408.606 279.953 408.671 279.923 408.74 279.908C408.809 279.892 408.88 279.89 408.95 279.902C409.02 279.914 409.086 279.939 409.146 279.977C409.206 280.015 409.257 280.064 409.298 280.122C409.339 280.179 409.368 280.243 409.383 280.311C409.399 280.379 409.401 280.45 409.389 280.518C409.377 280.587 409.351 280.653 409.314 280.712C409.276 280.77 409.227 280.821 409.17 280.861C401.109 286.635 395.261 294.987 392.59 304.536C392.564 304.655 392.497 304.761 392.402 304.837C392.306 304.913 392.188 304.954 392.066 304.953Z" fill="#570B7F"/>
<path d="M330.973 311.043C330.831 311.043 330.695 310.987 330.594 310.887C330.494 310.786 330.438 310.65 330.438 310.508V278.517C330.438 278.375 330.494 278.239 330.594 278.138C330.695 278.038 330.831 277.981 330.973 277.981C331.114 277.984 331.248 278.041 331.348 278.141C331.448 278.241 331.505 278.376 331.508 278.517V310.508C331.505 310.649 331.448 310.784 331.348 310.884C331.248 310.983 331.114 311.041 330.973 311.043Z" fill="#570B7F"/>
</svg>
